M48
; DRILL file {KiCad (5.1.5)-3} date 31/08/2020 23:01:32
; FORMAT={-:-/ absolute / inch / decimal}
; #@! TF.CreationDate,2020-08-31T23:01:32+02:00
; #@! TF.GenerationSoftware,Kicad,Pcbnew,(5.1.5)-3
; #@! TF.FileFunction,Plated,1,4,PTH
FMAT,2
INCH
T1C0.0079
T2C0.0118
T3C0.0157
T4C0.0197
T5C0.0374
T6C0.0394
T7C0.0512
T8C0.0720
T9C0.2402
%
G90
G05
T1
X2.6969Y-3.0433
X2.6969Y-3.0866
X2.748Y-3.0433
X2.748Y-3.0866
T2
X1.6339Y-4.8327
X1.6535Y-4.7638
X1.6732Y-4.9213
X1.7047Y-4.5295
X1.7913Y-4.9213
X1.8209Y-4.813
X1.9488Y-5.3248
X1.9587Y-5.2067
X1.998Y-5.4429
X2.0177Y-5.0787
X2.0394Y-3.8661
X2.0433Y-2.8622
X2.0472Y-3.2638
X2.1161Y-5.0
X2.2736Y-4.9902
X2.3425Y-3.0315
X2.3425Y-3.1004
X2.3425Y-3.1791
X2.3425Y-3.2579
X2.3425Y-3.3465
X2.3622Y-2.0768
X2.3622Y-2.1555
X2.3622Y-2.2244
X2.3622Y-2.2933
X2.3622Y-2.3622
X2.3622Y-2.4311
X2.3819Y-5.0394
X2.3917Y-3.3858
X2.4094Y-3.2441
X2.4094Y-3.2992
X2.4311Y-2.2933
X2.4705Y-3.0512
X2.5Y-2.2933
X2.5Y-3.3858
X2.5098Y-2.8642
X2.5098Y-3.0217
X2.5098Y-4.8327
X2.5197Y-3.4252
X2.5197Y-4.685
X2.5295Y-2.815
X2.5394Y-4.1831
X2.5492Y-2.9232
X2.5492Y-3.8681
X2.5492Y-5.1476
X2.5492Y-5.2559
X2.5492Y-5.3937
X2.5689Y-2.2933
X2.5689Y-4.252
X2.5689Y-4.2913
X2.5689Y-4.3307
X2.5787Y-4.498
X2.5886Y-2.9232
X2.5886Y-3.7795
X2.6083Y-2.2244
X2.6083Y-3.5138
X2.6083Y-3.5925
X2.6083Y-4.2126
X2.6083Y-4.252
X2.6083Y-4.2913
X2.6083Y-4.3307
X2.6378Y-3.7402
X2.6378Y-3.7795
X2.6476Y-2.7067
X2.6476Y-2.7461
X2.6476Y-2.7854
X2.6575Y-3.0807
X2.6575Y-3.1102
X2.6575Y-4.2126
X2.6575Y-4.252
X2.6575Y-4.2913
X2.6575Y-4.3307
X2.6673Y-2.2244
X2.6673Y-2.2933
X2.6673Y-3.5138
X2.6673Y-3.5925
X2.6673Y-3.75
X2.685Y-3.6772
X2.687Y-2.7067
X2.687Y-2.7461
X2.687Y-3.7795
X2.687Y-3.8681
X2.687Y-5.1476
X2.687Y-5.2559
X2.687Y-5.3937
X2.6969Y-4.1732
X2.6969Y-4.2126
X2.6969Y-4.252
X2.7165Y-3.6614
X2.7165Y-3.7106
X2.7165Y-3.8287
X2.7362Y-2.2244
X2.7362Y-2.2933
X2.7362Y-3.622
X2.7854Y-3.622
X2.8031Y-4.0472
X2.8051Y-2.2933
X2.8051Y-3.002
X2.8051Y-3.0413
X2.815Y-4.0079
X2.8346Y-3.1102
X2.8445Y-3.1791
X2.8543Y-2.1555
X2.8642Y-3.0807
X2.8642Y-3.1398
X2.8642Y-3.376
X2.874Y-5.3937
X2.8839Y-3.2283
X2.8839Y-3.2677
X2.8839Y-3.3071
X2.8839Y-3.3465
X2.9232Y-2.1555
X2.9232Y-2.2244
X2.9535Y-4.3862
X2.9921Y-2.1555
X2.9921Y-2.2244
X3.0315Y-3.6142
X3.0512Y-5.3937
X3.061Y-2.1555
X3.061Y-2.2244
X3.1299Y-2.1555
X3.1299Y-2.2244
X3.1299Y-3.0709
X3.1299Y-3.1398
X3.1299Y-3.2087
X3.1988Y-5.3937
X3.2185Y-4.6949
X3.2185Y-4.8524
X3.2283Y-4.5276
X3.2874Y-4.7736
X3.2972Y-4.3799
X3.3071Y-4.5866
X3.3169Y-2.372
X3.3169Y-2.5886
X3.3563Y-2.372
X3.3563Y-2.5886
X3.3661Y-4.2421
X3.3661Y-5.3937
X3.3937Y-2.3898
X3.3937Y-2.4449
X3.3937Y-2.5
X3.3937Y-2.5551
X3.3957Y-4.439
X3.4252Y-4.1043
X3.4547Y-4.3012
X3.4646Y-5.2559
X3.5236Y-3.0217
X3.5236Y-3.0906
X3.5236Y-3.1594
X3.5236Y-3.2283
X3.5236Y-3.2972
X3.5925Y-3.0217
X3.5925Y-3.0906
X3.5925Y-3.1594
X3.5925Y-3.2283
X3.5925Y-3.2972
X4.5079Y-4.685
X4.5079Y-4.8327
X4.5079Y-4.9803
X4.685Y-4.685
X4.685Y-4.9803
X2.8051Y-4.1811
X2.8051Y-4.2165
X2.8051Y-4.252
X2.8642Y-4.1811
X2.8642Y-4.2165
X2.8642Y-4.252
X2.9232Y-4.1811
X2.9232Y-4.2165
X2.9232Y-4.252
T3
X2.2047Y-4.5965
X2.2638Y-4.626
X2.3996Y-3.1142
X2.3996Y-3.1831
X2.4114Y-3.5827
X2.4213Y-3.0118
X2.4213Y-4.0354
X2.4606Y-3.7894
X2.4754Y-2.9085
X2.4902Y-1.9587
X2.5098Y-2.2244
X2.5098Y-2.7461
X2.5541Y-1.8652
X2.5551Y-3.3996
X2.5689Y-3.0315
X2.5886Y-2.7854
X2.6142Y-3.252
X2.6161Y-3.3209
X2.6251Y-3.0512
X2.6575Y-2.5098
X2.7047Y-4.0276
X2.7077Y-4.1043
X2.7156Y-4.3297
X2.7933Y-3.1496
X2.9724Y-3.8976
X2.9724Y-3.9528
X2.9823Y-3.7894
X3.0059Y-4.3307
X3.0217Y-3.6614
X3.0217Y-4.1033
X3.0217Y-4.1535
X3.0217Y-4.2028
X3.0217Y-4.252
X3.0699Y-4.3848
X3.0709Y-4.1043
X3.0709Y-4.1535
X3.0709Y-4.2028
X3.0984Y-3.8543
X3.1201Y-4.1043
X3.1201Y-4.1535
X3.1201Y-4.2028
X3.1201Y-4.252
X3.1693Y-2.5492
X3.2382Y-4.0945
X3.2382Y-4.1535
X3.2402Y-3.8425
X3.3268Y-3.5433
X3.3268Y-3.622
X3.3268Y-3.8681
X3.3858Y-3.75
X3.3858Y-3.8189
T4
X2.0276Y-1.9094
X2.1457Y-1.9094
X2.8937Y-1.8307
X2.8937Y-2.0669
T5
X2.8937Y-5.1969
X2.9921Y-5.1969
X3.0906Y-5.1969
X3.189Y-5.1969
T6
X3.4055Y-4.685
X2.2642Y-1.7118
X2.2642Y-1.8118
X2.2642Y-1.9118
X2.2642Y-2.0118
X2.2642Y-2.1118
X2.2642Y-2.2118
X2.2642Y-2.3118
X2.2642Y-2.4118
X2.2642Y-2.5118
X2.2642Y-2.6118
X2.2642Y-2.7118
X2.2642Y-2.8118
X2.2642Y-2.9118
X2.2642Y-3.0118
X2.2642Y-3.1118
X2.2642Y-3.2118
X2.2642Y-3.3118
X2.2642Y-3.4118
X2.2642Y-3.5118
X2.2642Y-3.6118
X2.2642Y-3.7118
X2.2642Y-3.8118
X2.2642Y-3.9118
X2.2642Y-4.0118
X2.2642Y-4.1118
X2.2642Y-4.2118
X2.2642Y-4.3118
X2.2642Y-4.4118
X1.5886Y-3.9118
X1.5886Y-4.0118
X1.5886Y-4.1118
X1.5886Y-4.2118
X1.5886Y-4.3118
X1.5886Y-4.4118
X4.0642Y-1.7118
X4.0642Y-1.8118
X4.0642Y-1.9118
X4.0642Y-2.0118
X4.0642Y-2.1118
X4.0642Y-2.2118
X4.0642Y-2.3118
X4.0642Y-2.4118
X4.0642Y-2.5118
X4.0642Y-2.6118
X4.0642Y-2.7118
X4.0642Y-2.8118
X4.0642Y-2.9118
X4.0642Y-3.0118
X4.0642Y-3.1118
X4.0642Y-3.2118
X4.0642Y-3.3118
X4.0642Y-3.4118
X4.0642Y-3.5118
X4.0642Y-3.6118
X4.0642Y-3.7118
X4.0642Y-3.8118
X4.0642Y-3.9118
X4.0642Y-4.0118
X4.0642Y-4.1118
X4.0642Y-4.2118
X4.0642Y-4.3118
X4.0642Y-4.4118
X1.7705Y-1.7118
X1.7705Y-1.8118
X1.7705Y-1.9118
X1.7705Y-2.0118
X1.7705Y-2.1118
X1.7705Y-2.2118
X1.7705Y-2.3118
X1.7705Y-2.4118
X1.7705Y-2.5118
X1.7705Y-2.6118
X1.7705Y-2.7118
X1.7705Y-2.8118
X1.7705Y-2.9118
X1.7705Y-3.0118
X1.7705Y-3.1118
X1.7705Y-3.2118
X1.7705Y-3.3118
X1.7705Y-3.4118
X1.7705Y-3.5118
X1.7705Y-3.6118
X1.7705Y-3.7118
X1.7705Y-3.8118
X1.7705Y-3.9118
X1.7705Y-4.0118
X1.7705Y-4.1118
X1.7705Y-4.2118
X1.7705Y-4.3118
X1.7705Y-4.4118
X1.8705Y-1.7118
X1.8705Y-1.8118
X1.8705Y-1.9118
X1.8705Y-2.0118
X1.8705Y-2.1118
X1.8705Y-2.2118
X1.8705Y-2.3118
X1.8705Y-2.4118
X1.8705Y-2.5118
X1.8705Y-2.6118
X1.8705Y-2.7118
X1.8705Y-2.8118
X1.8705Y-2.9118
X1.8705Y-3.0118
X1.8705Y-3.1118
X1.8705Y-3.2118
X1.8705Y-3.3118
X1.8705Y-3.4118
X1.8705Y-3.5118
X1.8705Y-3.6118
X1.8705Y-3.7118
X1.8705Y-3.8118
X1.8705Y-3.9118
X1.8705Y-4.0118
X1.8705Y-4.1118
X1.8705Y-4.2118
X1.8705Y-4.3118
X1.8705Y-4.4118
X2.7634Y-1.6732
X2.8634Y-1.6732
X2.9634Y-1.6732
X3.0634Y-1.6732
X1.2354Y-2.3622
X1.2354Y-2.4622
X1.3354Y-2.3622
X1.3354Y-2.4622
X1.4354Y-2.3622
X1.4354Y-2.4622
X1.5354Y-2.3622
X1.5354Y-2.4622
X1.2323Y-4.7291
X1.2323Y-4.8291
X1.2323Y-4.9291
X4.4579Y-1.7118
X4.4579Y-1.8118
X4.4579Y-1.9118
X4.4579Y-2.0118
X4.4579Y-2.1118
X4.4579Y-2.2118
X4.4579Y-2.3118
X4.4579Y-2.4118
X4.4579Y-2.5118
X4.4579Y-2.6118
X4.4579Y-2.7118
X4.4579Y-2.8118
X4.4579Y-2.9118
X4.4579Y-3.0118
X4.4579Y-3.1118
X4.4579Y-3.2118
X4.4579Y-3.3118
X4.4579Y-3.4118
X4.4579Y-3.5118
X4.4579Y-3.6118
X4.4579Y-3.7118
X4.4579Y-3.8118
X4.4579Y-3.9118
X4.4579Y-4.0118
X4.4579Y-4.1118
X4.4579Y-4.2118
X4.4579Y-4.3118
X4.4579Y-4.4118
X4.5579Y-1.7118
X4.5579Y-1.8118
X4.5579Y-1.9118
X4.5579Y-2.0118
X4.5579Y-2.1118
X4.5579Y-2.2118
X4.5579Y-2.3118
X4.5579Y-2.4118
X4.5579Y-2.5118
X4.5579Y-2.6118
X4.5579Y-2.7118
X4.5579Y-2.8118
X4.5579Y-2.9118
X4.5579Y-3.0118
X4.5579Y-3.1118
X4.5579Y-3.2118
X4.5579Y-3.3118
X4.5579Y-3.4118
X4.5579Y-3.5118
X4.5579Y-3.6118
X4.5579Y-3.7118
X4.5579Y-3.8118
X4.5579Y-3.9118
X4.5579Y-4.0118
X4.5579Y-4.1118
X4.5579Y-4.2118
X4.5579Y-4.3118
X4.5579Y-4.4118
X3.135Y-1.8776
X3.135Y-1.9776
X1.5177Y-4.7252
X1.5177Y-4.8252
X1.5177Y-4.9252
T7
X4.4039Y-4.8327
X4.6039Y-4.8327
X1.7327Y-4.8346
X1.9327Y-4.8346
X1.1795Y-5.3346
X1.3795Y-5.3346
T8
X1.2528Y-2.7854
X1.5528Y-2.6854
X1.5528Y-2.8854
X3.4425Y-2.6854
X3.4425Y-2.8854
X3.7425Y-2.7854
X1.2528Y-3.5335
X1.5528Y-3.4335
X1.5528Y-3.6335
X3.4425Y-3.4335
X3.4425Y-3.6335
X3.7425Y-3.5335
X1.2528Y-2.0374
X1.5528Y-1.9374
X1.5528Y-2.1374
X3.4425Y-1.9374
X3.4425Y-2.1374
X3.7425Y-2.0374
T9
X3.7992Y-5.2717
X2.2244Y-5.2717
T0
M30
