G04 #@! TF.GenerationSoftware,KiCad,Pcbnew,(5.1.5)-3*
G04 #@! TF.CreationDate,2020-08-31T23:00:59+02:00*
G04 #@! TF.ProjectId,NFC_hatch,4e46435f-6861-4746-9368-2e6b69636164,rev?*
G04 #@! TF.SameCoordinates,Original*
G04 #@! TF.FileFunction,Soldermask,Bot*
G04 #@! TF.FilePolarity,Negative*
%FSLAX46Y46*%
G04 Gerber Fmt 4.6, Leading zero omitted, Abs format (unit mm)*
G04 Created by KiCad (PCBNEW (5.1.5)-3) date 2020-08-31 23:00:59*
%MOMM*%
%LPD*%
G04 APERTURE LIST*
%ADD10C,0.100000*%
G04 APERTURE END LIST*
D10*
G36*
X97501008Y-128867590D02*
G01*
X97996658Y-128966181D01*
X98930440Y-129352967D01*
X99770822Y-129914492D01*
X100485508Y-130629178D01*
X100981852Y-131372010D01*
X101047034Y-131469562D01*
X101071461Y-131528534D01*
X101433819Y-132403342D01*
X101447370Y-132471467D01*
X101631000Y-133394639D01*
X101631000Y-134405361D01*
X101541457Y-134855525D01*
X101433819Y-135396658D01*
X101047033Y-136330440D01*
X100485508Y-137170822D01*
X99770822Y-137885508D01*
X98930440Y-138447033D01*
X97996658Y-138833819D01*
X97501009Y-138932409D01*
X97005361Y-139031000D01*
X95994639Y-139031000D01*
X95498991Y-138932409D01*
X95003342Y-138833819D01*
X94069560Y-138447033D01*
X93229178Y-137885508D01*
X92514492Y-137170822D01*
X91952967Y-136330440D01*
X91566181Y-135396658D01*
X91458543Y-134855525D01*
X91369000Y-134405361D01*
X91369000Y-133394639D01*
X91552630Y-132471467D01*
X91566181Y-132403342D01*
X91928539Y-131528534D01*
X91952966Y-131469562D01*
X92018148Y-131372010D01*
X92514492Y-130629178D01*
X93229178Y-129914492D01*
X94069560Y-129352967D01*
X95003342Y-128966181D01*
X95498992Y-128867590D01*
X95994639Y-128769000D01*
X97005361Y-128769000D01*
X97501008Y-128867590D01*
G37*
G36*
X57501008Y-128867590D02*
G01*
X57996658Y-128966181D01*
X58930440Y-129352967D01*
X59770822Y-129914492D01*
X60485508Y-130629178D01*
X60981852Y-131372010D01*
X61047034Y-131469562D01*
X61071461Y-131528534D01*
X61433819Y-132403342D01*
X61447370Y-132471467D01*
X61631000Y-133394639D01*
X61631000Y-134405361D01*
X61541457Y-134855525D01*
X61433819Y-135396658D01*
X61047033Y-136330440D01*
X60485508Y-137170822D01*
X59770822Y-137885508D01*
X58930440Y-138447033D01*
X57996658Y-138833819D01*
X57501009Y-138932409D01*
X57005361Y-139031000D01*
X55994639Y-139031000D01*
X55498991Y-138932409D01*
X55003342Y-138833819D01*
X54069560Y-138447033D01*
X53229178Y-137885508D01*
X52514492Y-137170822D01*
X51952967Y-136330440D01*
X51566181Y-135396658D01*
X51458543Y-134855525D01*
X51369000Y-134405361D01*
X51369000Y-133394639D01*
X51552630Y-132471467D01*
X51566181Y-132403342D01*
X51928539Y-131528534D01*
X51952966Y-131469562D01*
X52018148Y-131372010D01*
X52514492Y-130629178D01*
X53229178Y-129914492D01*
X54069560Y-129352967D01*
X55003342Y-128966181D01*
X55498992Y-128867590D01*
X55994639Y-128769000D01*
X57005361Y-128769000D01*
X57501008Y-128867590D01*
G37*
G36*
X30254898Y-134527851D02*
G01*
X30438886Y-134604062D01*
X30438888Y-134604063D01*
X30604475Y-134714705D01*
X30745295Y-134855525D01*
X30745296Y-134855527D01*
X30855938Y-135021114D01*
X30932149Y-135205102D01*
X30971000Y-135400424D01*
X30971000Y-135599576D01*
X30932149Y-135794898D01*
X30855938Y-135978886D01*
X30855937Y-135978888D01*
X30745295Y-136144475D01*
X30604475Y-136285295D01*
X30438888Y-136395937D01*
X30438887Y-136395938D01*
X30438886Y-136395938D01*
X30254898Y-136472149D01*
X30059576Y-136511000D01*
X29860424Y-136511000D01*
X29665102Y-136472149D01*
X29481114Y-136395938D01*
X29481113Y-136395938D01*
X29481112Y-136395937D01*
X29315525Y-136285295D01*
X29174705Y-136144475D01*
X29064063Y-135978888D01*
X29064062Y-135978886D01*
X28987851Y-135794898D01*
X28949000Y-135599576D01*
X28949000Y-135400424D01*
X28987851Y-135205102D01*
X29064062Y-135021114D01*
X29174704Y-134855527D01*
X29174705Y-134855525D01*
X29315525Y-134714705D01*
X29481112Y-134604063D01*
X29481114Y-134604062D01*
X29665102Y-134527851D01*
X29860424Y-134489000D01*
X30059576Y-134489000D01*
X30254898Y-134527851D01*
G37*
G36*
X35334898Y-134527851D02*
G01*
X35518886Y-134604062D01*
X35518888Y-134604063D01*
X35684475Y-134714705D01*
X35825295Y-134855525D01*
X35825296Y-134855527D01*
X35935938Y-135021114D01*
X36012149Y-135205102D01*
X36051000Y-135400424D01*
X36051000Y-135599576D01*
X36012149Y-135794898D01*
X35935938Y-135978886D01*
X35935937Y-135978888D01*
X35825295Y-136144475D01*
X35684475Y-136285295D01*
X35518888Y-136395937D01*
X35518887Y-136395938D01*
X35518886Y-136395938D01*
X35334898Y-136472149D01*
X35139576Y-136511000D01*
X34940424Y-136511000D01*
X34745102Y-136472149D01*
X34561114Y-136395938D01*
X34561113Y-136395938D01*
X34561112Y-136395937D01*
X34395525Y-136285295D01*
X34254705Y-136144475D01*
X34144063Y-135978888D01*
X34144062Y-135978886D01*
X34067851Y-135794898D01*
X34029000Y-135599576D01*
X34029000Y-135400424D01*
X34067851Y-135205102D01*
X34144062Y-135021114D01*
X34254704Y-134855527D01*
X34254705Y-134855525D01*
X34395525Y-134714705D01*
X34561112Y-134604063D01*
X34561114Y-134604062D01*
X34745102Y-134527851D01*
X34940424Y-134489000D01*
X35139576Y-134489000D01*
X35334898Y-134527851D01*
G37*
G36*
X81176626Y-130987037D02*
G01*
X81346465Y-131038557D01*
X81346467Y-131038558D01*
X81502989Y-131122221D01*
X81640186Y-131234814D01*
X81723448Y-131336271D01*
X81752778Y-131372009D01*
X81752779Y-131372011D01*
X81804921Y-131469560D01*
X81836443Y-131528534D01*
X81887963Y-131698373D01*
X81901000Y-131830742D01*
X81901000Y-132169257D01*
X81887963Y-132301626D01*
X81836443Y-132471466D01*
X81752778Y-132627991D01*
X81723448Y-132663729D01*
X81640186Y-132765186D01*
X81545250Y-132843097D01*
X81502991Y-132877778D01*
X81346466Y-132961443D01*
X81176627Y-133012963D01*
X81000000Y-133030359D01*
X80823374Y-133012963D01*
X80653535Y-132961443D01*
X80497010Y-132877778D01*
X80359815Y-132765185D01*
X80247222Y-132627991D01*
X80163557Y-132471466D01*
X80112037Y-132301627D01*
X80099000Y-132169258D01*
X80099000Y-131830743D01*
X80112037Y-131698374D01*
X80163557Y-131528535D01*
X80247222Y-131372010D01*
X80247223Y-131372009D01*
X80359814Y-131234814D01*
X80461271Y-131151552D01*
X80497009Y-131122222D01*
X80653534Y-131038557D01*
X80823373Y-130987037D01*
X81000000Y-130969641D01*
X81176626Y-130987037D01*
G37*
G36*
X78676626Y-130987037D02*
G01*
X78846465Y-131038557D01*
X78846467Y-131038558D01*
X79002989Y-131122221D01*
X79140186Y-131234814D01*
X79223448Y-131336271D01*
X79252778Y-131372009D01*
X79252779Y-131372011D01*
X79304921Y-131469560D01*
X79336443Y-131528534D01*
X79387963Y-131698373D01*
X79401000Y-131830742D01*
X79401000Y-132169257D01*
X79387963Y-132301626D01*
X79336443Y-132471466D01*
X79252778Y-132627991D01*
X79223448Y-132663729D01*
X79140186Y-132765186D01*
X79045250Y-132843097D01*
X79002991Y-132877778D01*
X78846466Y-132961443D01*
X78676627Y-133012963D01*
X78500000Y-133030359D01*
X78323374Y-133012963D01*
X78153535Y-132961443D01*
X77997010Y-132877778D01*
X77859815Y-132765185D01*
X77747222Y-132627991D01*
X77663557Y-132471466D01*
X77612037Y-132301627D01*
X77599000Y-132169258D01*
X77599000Y-131830743D01*
X77612037Y-131698374D01*
X77663557Y-131528535D01*
X77747222Y-131372010D01*
X77747223Y-131372009D01*
X77859814Y-131234814D01*
X77961271Y-131151552D01*
X77997009Y-131122222D01*
X78153534Y-131038557D01*
X78323373Y-130987037D01*
X78500000Y-130969641D01*
X78676626Y-130987037D01*
G37*
G36*
X76176626Y-130987037D02*
G01*
X76346465Y-131038557D01*
X76346467Y-131038558D01*
X76502989Y-131122221D01*
X76640186Y-131234814D01*
X76723448Y-131336271D01*
X76752778Y-131372009D01*
X76752779Y-131372011D01*
X76804921Y-131469560D01*
X76836443Y-131528534D01*
X76887963Y-131698373D01*
X76901000Y-131830742D01*
X76901000Y-132169257D01*
X76887963Y-132301626D01*
X76836443Y-132471466D01*
X76752778Y-132627991D01*
X76723448Y-132663729D01*
X76640186Y-132765186D01*
X76545250Y-132843097D01*
X76502991Y-132877778D01*
X76346466Y-132961443D01*
X76176627Y-133012963D01*
X76000000Y-133030359D01*
X75823374Y-133012963D01*
X75653535Y-132961443D01*
X75497010Y-132877778D01*
X75359815Y-132765185D01*
X75247222Y-132627991D01*
X75163557Y-132471466D01*
X75112037Y-132301627D01*
X75099000Y-132169258D01*
X75099000Y-131830743D01*
X75112037Y-131698374D01*
X75163557Y-131528535D01*
X75247222Y-131372010D01*
X75247223Y-131372009D01*
X75359814Y-131234814D01*
X75461271Y-131151552D01*
X75497009Y-131122222D01*
X75653534Y-131038557D01*
X75823373Y-130987037D01*
X76000000Y-130969641D01*
X76176626Y-130987037D01*
G37*
G36*
X74258600Y-130977989D02*
G01*
X74291652Y-130988015D01*
X74322103Y-131004292D01*
X74348799Y-131026201D01*
X74370708Y-131052897D01*
X74386985Y-131083348D01*
X74397011Y-131116400D01*
X74401000Y-131156903D01*
X74401000Y-132843097D01*
X74397011Y-132883600D01*
X74386985Y-132916652D01*
X74370708Y-132947103D01*
X74348799Y-132973799D01*
X74322103Y-132995708D01*
X74291652Y-133011985D01*
X74258600Y-133022011D01*
X74218097Y-133026000D01*
X72781903Y-133026000D01*
X72741400Y-133022011D01*
X72708348Y-133011985D01*
X72677897Y-132995708D01*
X72651201Y-132973799D01*
X72629292Y-132947103D01*
X72613015Y-132916652D01*
X72602989Y-132883600D01*
X72599000Y-132843097D01*
X72599000Y-131156903D01*
X72602989Y-131116400D01*
X72613015Y-131083348D01*
X72629292Y-131052897D01*
X72651201Y-131026201D01*
X72677897Y-131004292D01*
X72708348Y-130988015D01*
X72741400Y-130977989D01*
X72781903Y-130974000D01*
X74218097Y-130974000D01*
X74258600Y-130977989D01*
G37*
G36*
X31413512Y-124303927D02*
G01*
X31562812Y-124333624D01*
X31726784Y-124401544D01*
X31874354Y-124500147D01*
X31999853Y-124625646D01*
X32098456Y-124773216D01*
X32166376Y-124937188D01*
X32201000Y-125111259D01*
X32201000Y-125288741D01*
X32166376Y-125462812D01*
X32098456Y-125626784D01*
X31999853Y-125774354D01*
X31874354Y-125899853D01*
X31726784Y-125998456D01*
X31562812Y-126066376D01*
X31413512Y-126096073D01*
X31388742Y-126101000D01*
X31211258Y-126101000D01*
X31186488Y-126096073D01*
X31037188Y-126066376D01*
X30873216Y-125998456D01*
X30725646Y-125899853D01*
X30600147Y-125774354D01*
X30501544Y-125626784D01*
X30433624Y-125462812D01*
X30399000Y-125288741D01*
X30399000Y-125111259D01*
X30433624Y-124937188D01*
X30501544Y-124773216D01*
X30600147Y-124625646D01*
X30725646Y-124500147D01*
X30873216Y-124401544D01*
X31037188Y-124333624D01*
X31186488Y-124303927D01*
X31211258Y-124299000D01*
X31388742Y-124299000D01*
X31413512Y-124303927D01*
G37*
G36*
X39451000Y-126001000D02*
G01*
X37649000Y-126001000D01*
X37649000Y-124199000D01*
X39451000Y-124199000D01*
X39451000Y-126001000D01*
G37*
G36*
X44304898Y-121827851D02*
G01*
X44488886Y-121904062D01*
X44488888Y-121904063D01*
X44654475Y-122014705D01*
X44795295Y-122155525D01*
X44847208Y-122233218D01*
X44905938Y-122321114D01*
X44982149Y-122505102D01*
X45021000Y-122700424D01*
X45021000Y-122899576D01*
X44982149Y-123094898D01*
X44926648Y-123228888D01*
X44905937Y-123278888D01*
X44795295Y-123444475D01*
X44654475Y-123585295D01*
X44488888Y-123695937D01*
X44488887Y-123695938D01*
X44488886Y-123695938D01*
X44304898Y-123772149D01*
X44109576Y-123811000D01*
X43910424Y-123811000D01*
X43715102Y-123772149D01*
X43531114Y-123695938D01*
X43531113Y-123695938D01*
X43531112Y-123695937D01*
X43365525Y-123585295D01*
X43224705Y-123444475D01*
X43114063Y-123278888D01*
X43093352Y-123228888D01*
X43037851Y-123094898D01*
X42999000Y-122899576D01*
X42999000Y-122700424D01*
X43037851Y-122505102D01*
X43114062Y-122321114D01*
X43172792Y-122233218D01*
X43224705Y-122155525D01*
X43365525Y-122014705D01*
X43531112Y-121904063D01*
X43531114Y-121904062D01*
X43715102Y-121827851D01*
X43910424Y-121789000D01*
X44109576Y-121789000D01*
X44304898Y-121827851D01*
G37*
G36*
X49384898Y-121827851D02*
G01*
X49568886Y-121904062D01*
X49568888Y-121904063D01*
X49734475Y-122014705D01*
X49875295Y-122155525D01*
X49927208Y-122233218D01*
X49985938Y-122321114D01*
X50062149Y-122505102D01*
X50101000Y-122700424D01*
X50101000Y-122899576D01*
X50062149Y-123094898D01*
X50006648Y-123228888D01*
X49985937Y-123278888D01*
X49875295Y-123444475D01*
X49734475Y-123585295D01*
X49568888Y-123695937D01*
X49568887Y-123695938D01*
X49568886Y-123695938D01*
X49384898Y-123772149D01*
X49189576Y-123811000D01*
X48990424Y-123811000D01*
X48795102Y-123772149D01*
X48611114Y-123695938D01*
X48611113Y-123695938D01*
X48611112Y-123695937D01*
X48445525Y-123585295D01*
X48304705Y-123444475D01*
X48194063Y-123278888D01*
X48173352Y-123228888D01*
X48117851Y-123094898D01*
X48079000Y-122899576D01*
X48079000Y-122700424D01*
X48117851Y-122505102D01*
X48194062Y-122321114D01*
X48252792Y-122233218D01*
X48304705Y-122155525D01*
X48445525Y-122014705D01*
X48611112Y-121904063D01*
X48611114Y-121904062D01*
X48795102Y-121827851D01*
X48990424Y-121789000D01*
X49189576Y-121789000D01*
X49384898Y-121827851D01*
G37*
G36*
X117234898Y-121777851D02*
G01*
X117418886Y-121854062D01*
X117418888Y-121854063D01*
X117584475Y-121964705D01*
X117725295Y-122105525D01*
X117810617Y-122233218D01*
X117835938Y-122271114D01*
X117912149Y-122455102D01*
X117951000Y-122650424D01*
X117951000Y-122849576D01*
X117912149Y-123044898D01*
X117835938Y-123228886D01*
X117835937Y-123228888D01*
X117725295Y-123394475D01*
X117584475Y-123535295D01*
X117418888Y-123645937D01*
X117418887Y-123645938D01*
X117418886Y-123645938D01*
X117234898Y-123722149D01*
X117039576Y-123761000D01*
X116840424Y-123761000D01*
X116645102Y-123722149D01*
X116461114Y-123645938D01*
X116461113Y-123645938D01*
X116461112Y-123645937D01*
X116295525Y-123535295D01*
X116154705Y-123394475D01*
X116044063Y-123228888D01*
X116044062Y-123228886D01*
X115967851Y-123044898D01*
X115929000Y-122849576D01*
X115929000Y-122650424D01*
X115967851Y-122455102D01*
X116044062Y-122271114D01*
X116069383Y-122233218D01*
X116154705Y-122105525D01*
X116295525Y-121964705D01*
X116461112Y-121854063D01*
X116461114Y-121854062D01*
X116645102Y-121777851D01*
X116840424Y-121739000D01*
X117039576Y-121739000D01*
X117234898Y-121777851D01*
G37*
G36*
X112154898Y-121777851D02*
G01*
X112338886Y-121854062D01*
X112338888Y-121854063D01*
X112504475Y-121964705D01*
X112645295Y-122105525D01*
X112730617Y-122233218D01*
X112755938Y-122271114D01*
X112832149Y-122455102D01*
X112871000Y-122650424D01*
X112871000Y-122849576D01*
X112832149Y-123044898D01*
X112755938Y-123228886D01*
X112755937Y-123228888D01*
X112645295Y-123394475D01*
X112504475Y-123535295D01*
X112338888Y-123645937D01*
X112338887Y-123645938D01*
X112338886Y-123645938D01*
X112154898Y-123722149D01*
X111959576Y-123761000D01*
X111760424Y-123761000D01*
X111565102Y-123722149D01*
X111381114Y-123645938D01*
X111381113Y-123645938D01*
X111381112Y-123645937D01*
X111215525Y-123535295D01*
X111074705Y-123394475D01*
X110964063Y-123228888D01*
X110964062Y-123228886D01*
X110887851Y-123044898D01*
X110849000Y-122849576D01*
X110849000Y-122650424D01*
X110887851Y-122455102D01*
X110964062Y-122271114D01*
X110989383Y-122233218D01*
X111074705Y-122105525D01*
X111215525Y-121964705D01*
X111381112Y-121854063D01*
X111381114Y-121854062D01*
X111565102Y-121777851D01*
X111760424Y-121739000D01*
X111959576Y-121739000D01*
X112154898Y-121777851D01*
G37*
G36*
X31401531Y-121761544D02*
G01*
X31562812Y-121793624D01*
X31726784Y-121861544D01*
X31874354Y-121960147D01*
X31999853Y-122085646D01*
X32098456Y-122233216D01*
X32166376Y-122397188D01*
X32201000Y-122571259D01*
X32201000Y-122748741D01*
X32166376Y-122922812D01*
X32098456Y-123086784D01*
X31999853Y-123234354D01*
X31874354Y-123359853D01*
X31726784Y-123458456D01*
X31562812Y-123526376D01*
X31413512Y-123556073D01*
X31388742Y-123561000D01*
X31211258Y-123561000D01*
X31186488Y-123556073D01*
X31037188Y-123526376D01*
X30873216Y-123458456D01*
X30725646Y-123359853D01*
X30600147Y-123234354D01*
X30501544Y-123086784D01*
X30433624Y-122922812D01*
X30399000Y-122748741D01*
X30399000Y-122571259D01*
X30433624Y-122397188D01*
X30501544Y-122233216D01*
X30600147Y-122085646D01*
X30725646Y-121960147D01*
X30873216Y-121861544D01*
X31037188Y-121793624D01*
X31198469Y-121761544D01*
X31211258Y-121759000D01*
X31388742Y-121759000D01*
X31401531Y-121761544D01*
G37*
G36*
X38663512Y-121663927D02*
G01*
X38812812Y-121693624D01*
X38976784Y-121761544D01*
X39124354Y-121860147D01*
X39249853Y-121985646D01*
X39348456Y-122133216D01*
X39416376Y-122297188D01*
X39451000Y-122471259D01*
X39451000Y-122648741D01*
X39416376Y-122822812D01*
X39348456Y-122986784D01*
X39249853Y-123134354D01*
X39124354Y-123259853D01*
X38976784Y-123358456D01*
X38812812Y-123426376D01*
X38663512Y-123456073D01*
X38638742Y-123461000D01*
X38461258Y-123461000D01*
X38436488Y-123456073D01*
X38287188Y-123426376D01*
X38123216Y-123358456D01*
X37975646Y-123259853D01*
X37850147Y-123134354D01*
X37751544Y-122986784D01*
X37683624Y-122822812D01*
X37649000Y-122648741D01*
X37649000Y-122471259D01*
X37683624Y-122297188D01*
X37751544Y-122133216D01*
X37850147Y-121985646D01*
X37975646Y-121860147D01*
X38123216Y-121761544D01*
X38287188Y-121693624D01*
X38436488Y-121663927D01*
X38461258Y-121659000D01*
X38638742Y-121659000D01*
X38663512Y-121663927D01*
G37*
G36*
X32201000Y-121021000D02*
G01*
X30399000Y-121021000D01*
X30399000Y-119219000D01*
X32201000Y-119219000D01*
X32201000Y-121021000D01*
G37*
G36*
X38663512Y-119123927D02*
G01*
X38812812Y-119153624D01*
X38976784Y-119221544D01*
X39124354Y-119320147D01*
X39249853Y-119445646D01*
X39348456Y-119593216D01*
X39416376Y-119757188D01*
X39451000Y-119931259D01*
X39451000Y-120108741D01*
X39416376Y-120282812D01*
X39348456Y-120446784D01*
X39249853Y-120594354D01*
X39124354Y-120719853D01*
X38976784Y-120818456D01*
X38812812Y-120886376D01*
X38663512Y-120916073D01*
X38638742Y-120921000D01*
X38461258Y-120921000D01*
X38436488Y-120916073D01*
X38287188Y-120886376D01*
X38123216Y-120818456D01*
X37975646Y-120719853D01*
X37850147Y-120594354D01*
X37751544Y-120446784D01*
X37683624Y-120282812D01*
X37649000Y-120108741D01*
X37649000Y-119931259D01*
X37683624Y-119757188D01*
X37751544Y-119593216D01*
X37850147Y-119445646D01*
X37975646Y-119320147D01*
X38123216Y-119221544D01*
X38287188Y-119153624D01*
X38436488Y-119123927D01*
X38461258Y-119119000D01*
X38638742Y-119119000D01*
X38663512Y-119123927D01*
G37*
G36*
X57623512Y-111163927D02*
G01*
X57772812Y-111193624D01*
X57936784Y-111261544D01*
X58084354Y-111360147D01*
X58209853Y-111485646D01*
X58308456Y-111633216D01*
X58376376Y-111797188D01*
X58411000Y-111971259D01*
X58411000Y-112148741D01*
X58376376Y-112322812D01*
X58308456Y-112486784D01*
X58209853Y-112634354D01*
X58084354Y-112759853D01*
X57936784Y-112858456D01*
X57772812Y-112926376D01*
X57623512Y-112956073D01*
X57598742Y-112961000D01*
X57421258Y-112961000D01*
X57396488Y-112956073D01*
X57247188Y-112926376D01*
X57083216Y-112858456D01*
X56935646Y-112759853D01*
X56810147Y-112634354D01*
X56711544Y-112486784D01*
X56643624Y-112322812D01*
X56609000Y-112148741D01*
X56609000Y-111971259D01*
X56643624Y-111797188D01*
X56711544Y-111633216D01*
X56810147Y-111485646D01*
X56935646Y-111360147D01*
X57083216Y-111261544D01*
X57247188Y-111193624D01*
X57396488Y-111163927D01*
X57421258Y-111159000D01*
X57598742Y-111159000D01*
X57623512Y-111163927D01*
G37*
G36*
X103343512Y-111163927D02*
G01*
X103492812Y-111193624D01*
X103656784Y-111261544D01*
X103804354Y-111360147D01*
X103929853Y-111485646D01*
X104028456Y-111633216D01*
X104096376Y-111797188D01*
X104131000Y-111971259D01*
X104131000Y-112148741D01*
X104096376Y-112322812D01*
X104028456Y-112486784D01*
X103929853Y-112634354D01*
X103804354Y-112759853D01*
X103656784Y-112858456D01*
X103492812Y-112926376D01*
X103343512Y-112956073D01*
X103318742Y-112961000D01*
X103141258Y-112961000D01*
X103116488Y-112956073D01*
X102967188Y-112926376D01*
X102803216Y-112858456D01*
X102655646Y-112759853D01*
X102530147Y-112634354D01*
X102431544Y-112486784D01*
X102363624Y-112322812D01*
X102329000Y-112148741D01*
X102329000Y-111971259D01*
X102363624Y-111797188D01*
X102431544Y-111633216D01*
X102530147Y-111485646D01*
X102655646Y-111360147D01*
X102803216Y-111261544D01*
X102967188Y-111193624D01*
X103116488Y-111163927D01*
X103141258Y-111159000D01*
X103318742Y-111159000D01*
X103343512Y-111163927D01*
G37*
G36*
X115883512Y-111163927D02*
G01*
X116032812Y-111193624D01*
X116196784Y-111261544D01*
X116344354Y-111360147D01*
X116469853Y-111485646D01*
X116568456Y-111633216D01*
X116636376Y-111797188D01*
X116671000Y-111971259D01*
X116671000Y-112148741D01*
X116636376Y-112322812D01*
X116568456Y-112486784D01*
X116469853Y-112634354D01*
X116344354Y-112759853D01*
X116196784Y-112858456D01*
X116032812Y-112926376D01*
X115883512Y-112956073D01*
X115858742Y-112961000D01*
X115681258Y-112961000D01*
X115656488Y-112956073D01*
X115507188Y-112926376D01*
X115343216Y-112858456D01*
X115195646Y-112759853D01*
X115070147Y-112634354D01*
X114971544Y-112486784D01*
X114903624Y-112322812D01*
X114869000Y-112148741D01*
X114869000Y-111971259D01*
X114903624Y-111797188D01*
X114971544Y-111633216D01*
X115070147Y-111485646D01*
X115195646Y-111360147D01*
X115343216Y-111261544D01*
X115507188Y-111193624D01*
X115656488Y-111163927D01*
X115681258Y-111159000D01*
X115858742Y-111159000D01*
X115883512Y-111163927D01*
G37*
G36*
X113343512Y-111163927D02*
G01*
X113492812Y-111193624D01*
X113656784Y-111261544D01*
X113804354Y-111360147D01*
X113929853Y-111485646D01*
X114028456Y-111633216D01*
X114096376Y-111797188D01*
X114131000Y-111971259D01*
X114131000Y-112148741D01*
X114096376Y-112322812D01*
X114028456Y-112486784D01*
X113929853Y-112634354D01*
X113804354Y-112759853D01*
X113656784Y-112858456D01*
X113492812Y-112926376D01*
X113343512Y-112956073D01*
X113318742Y-112961000D01*
X113141258Y-112961000D01*
X113116488Y-112956073D01*
X112967188Y-112926376D01*
X112803216Y-112858456D01*
X112655646Y-112759853D01*
X112530147Y-112634354D01*
X112431544Y-112486784D01*
X112363624Y-112322812D01*
X112329000Y-112148741D01*
X112329000Y-111971259D01*
X112363624Y-111797188D01*
X112431544Y-111633216D01*
X112530147Y-111485646D01*
X112655646Y-111360147D01*
X112803216Y-111261544D01*
X112967188Y-111193624D01*
X113116488Y-111163927D01*
X113141258Y-111159000D01*
X113318742Y-111159000D01*
X113343512Y-111163927D01*
G37*
G36*
X47623512Y-111163927D02*
G01*
X47772812Y-111193624D01*
X47936784Y-111261544D01*
X48084354Y-111360147D01*
X48209853Y-111485646D01*
X48308456Y-111633216D01*
X48376376Y-111797188D01*
X48411000Y-111971259D01*
X48411000Y-112148741D01*
X48376376Y-112322812D01*
X48308456Y-112486784D01*
X48209853Y-112634354D01*
X48084354Y-112759853D01*
X47936784Y-112858456D01*
X47772812Y-112926376D01*
X47623512Y-112956073D01*
X47598742Y-112961000D01*
X47421258Y-112961000D01*
X47396488Y-112956073D01*
X47247188Y-112926376D01*
X47083216Y-112858456D01*
X46935646Y-112759853D01*
X46810147Y-112634354D01*
X46711544Y-112486784D01*
X46643624Y-112322812D01*
X46609000Y-112148741D01*
X46609000Y-111971259D01*
X46643624Y-111797188D01*
X46711544Y-111633216D01*
X46810147Y-111485646D01*
X46935646Y-111360147D01*
X47083216Y-111261544D01*
X47247188Y-111193624D01*
X47396488Y-111163927D01*
X47421258Y-111159000D01*
X47598742Y-111159000D01*
X47623512Y-111163927D01*
G37*
G36*
X45083512Y-111163927D02*
G01*
X45232812Y-111193624D01*
X45396784Y-111261544D01*
X45544354Y-111360147D01*
X45669853Y-111485646D01*
X45768456Y-111633216D01*
X45836376Y-111797188D01*
X45871000Y-111971259D01*
X45871000Y-112148741D01*
X45836376Y-112322812D01*
X45768456Y-112486784D01*
X45669853Y-112634354D01*
X45544354Y-112759853D01*
X45396784Y-112858456D01*
X45232812Y-112926376D01*
X45083512Y-112956073D01*
X45058742Y-112961000D01*
X44881258Y-112961000D01*
X44856488Y-112956073D01*
X44707188Y-112926376D01*
X44543216Y-112858456D01*
X44395646Y-112759853D01*
X44270147Y-112634354D01*
X44171544Y-112486784D01*
X44103624Y-112322812D01*
X44069000Y-112148741D01*
X44069000Y-111971259D01*
X44103624Y-111797188D01*
X44171544Y-111633216D01*
X44270147Y-111485646D01*
X44395646Y-111360147D01*
X44543216Y-111261544D01*
X44707188Y-111193624D01*
X44856488Y-111163927D01*
X44881258Y-111159000D01*
X45058742Y-111159000D01*
X45083512Y-111163927D01*
G37*
G36*
X41251000Y-112961000D02*
G01*
X39449000Y-112961000D01*
X39449000Y-111159000D01*
X41251000Y-111159000D01*
X41251000Y-112961000D01*
G37*
G36*
X45083512Y-108623927D02*
G01*
X45232812Y-108653624D01*
X45396784Y-108721544D01*
X45544354Y-108820147D01*
X45669853Y-108945646D01*
X45768456Y-109093216D01*
X45836376Y-109257188D01*
X45871000Y-109431259D01*
X45871000Y-109608741D01*
X45836376Y-109782812D01*
X45768456Y-109946784D01*
X45669853Y-110094354D01*
X45544354Y-110219853D01*
X45396784Y-110318456D01*
X45232812Y-110386376D01*
X45083512Y-110416073D01*
X45058742Y-110421000D01*
X44881258Y-110421000D01*
X44856488Y-110416073D01*
X44707188Y-110386376D01*
X44543216Y-110318456D01*
X44395646Y-110219853D01*
X44270147Y-110094354D01*
X44171544Y-109946784D01*
X44103624Y-109782812D01*
X44069000Y-109608741D01*
X44069000Y-109431259D01*
X44103624Y-109257188D01*
X44171544Y-109093216D01*
X44270147Y-108945646D01*
X44395646Y-108820147D01*
X44543216Y-108721544D01*
X44707188Y-108653624D01*
X44856488Y-108623927D01*
X44881258Y-108619000D01*
X45058742Y-108619000D01*
X45083512Y-108623927D01*
G37*
G36*
X40463512Y-108623927D02*
G01*
X40612812Y-108653624D01*
X40776784Y-108721544D01*
X40924354Y-108820147D01*
X41049853Y-108945646D01*
X41148456Y-109093216D01*
X41216376Y-109257188D01*
X41251000Y-109431259D01*
X41251000Y-109608741D01*
X41216376Y-109782812D01*
X41148456Y-109946784D01*
X41049853Y-110094354D01*
X40924354Y-110219853D01*
X40776784Y-110318456D01*
X40612812Y-110386376D01*
X40463512Y-110416073D01*
X40438742Y-110421000D01*
X40261258Y-110421000D01*
X40236488Y-110416073D01*
X40087188Y-110386376D01*
X39923216Y-110318456D01*
X39775646Y-110219853D01*
X39650147Y-110094354D01*
X39551544Y-109946784D01*
X39483624Y-109782812D01*
X39449000Y-109608741D01*
X39449000Y-109431259D01*
X39483624Y-109257188D01*
X39551544Y-109093216D01*
X39650147Y-108945646D01*
X39775646Y-108820147D01*
X39923216Y-108721544D01*
X40087188Y-108653624D01*
X40236488Y-108623927D01*
X40261258Y-108619000D01*
X40438742Y-108619000D01*
X40463512Y-108623927D01*
G37*
G36*
X47623512Y-108623927D02*
G01*
X47772812Y-108653624D01*
X47936784Y-108721544D01*
X48084354Y-108820147D01*
X48209853Y-108945646D01*
X48308456Y-109093216D01*
X48376376Y-109257188D01*
X48411000Y-109431259D01*
X48411000Y-109608741D01*
X48376376Y-109782812D01*
X48308456Y-109946784D01*
X48209853Y-110094354D01*
X48084354Y-110219853D01*
X47936784Y-110318456D01*
X47772812Y-110386376D01*
X47623512Y-110416073D01*
X47598742Y-110421000D01*
X47421258Y-110421000D01*
X47396488Y-110416073D01*
X47247188Y-110386376D01*
X47083216Y-110318456D01*
X46935646Y-110219853D01*
X46810147Y-110094354D01*
X46711544Y-109946784D01*
X46643624Y-109782812D01*
X46609000Y-109608741D01*
X46609000Y-109431259D01*
X46643624Y-109257188D01*
X46711544Y-109093216D01*
X46810147Y-108945646D01*
X46935646Y-108820147D01*
X47083216Y-108721544D01*
X47247188Y-108653624D01*
X47396488Y-108623927D01*
X47421258Y-108619000D01*
X47598742Y-108619000D01*
X47623512Y-108623927D01*
G37*
G36*
X115883512Y-108623927D02*
G01*
X116032812Y-108653624D01*
X116196784Y-108721544D01*
X116344354Y-108820147D01*
X116469853Y-108945646D01*
X116568456Y-109093216D01*
X116636376Y-109257188D01*
X116671000Y-109431259D01*
X116671000Y-109608741D01*
X116636376Y-109782812D01*
X116568456Y-109946784D01*
X116469853Y-110094354D01*
X116344354Y-110219853D01*
X116196784Y-110318456D01*
X116032812Y-110386376D01*
X115883512Y-110416073D01*
X115858742Y-110421000D01*
X115681258Y-110421000D01*
X115656488Y-110416073D01*
X115507188Y-110386376D01*
X115343216Y-110318456D01*
X115195646Y-110219853D01*
X115070147Y-110094354D01*
X114971544Y-109946784D01*
X114903624Y-109782812D01*
X114869000Y-109608741D01*
X114869000Y-109431259D01*
X114903624Y-109257188D01*
X114971544Y-109093216D01*
X115070147Y-108945646D01*
X115195646Y-108820147D01*
X115343216Y-108721544D01*
X115507188Y-108653624D01*
X115656488Y-108623927D01*
X115681258Y-108619000D01*
X115858742Y-108619000D01*
X115883512Y-108623927D01*
G37*
G36*
X113343512Y-108623927D02*
G01*
X113492812Y-108653624D01*
X113656784Y-108721544D01*
X113804354Y-108820147D01*
X113929853Y-108945646D01*
X114028456Y-109093216D01*
X114096376Y-109257188D01*
X114131000Y-109431259D01*
X114131000Y-109608741D01*
X114096376Y-109782812D01*
X114028456Y-109946784D01*
X113929853Y-110094354D01*
X113804354Y-110219853D01*
X113656784Y-110318456D01*
X113492812Y-110386376D01*
X113343512Y-110416073D01*
X113318742Y-110421000D01*
X113141258Y-110421000D01*
X113116488Y-110416073D01*
X112967188Y-110386376D01*
X112803216Y-110318456D01*
X112655646Y-110219853D01*
X112530147Y-110094354D01*
X112431544Y-109946784D01*
X112363624Y-109782812D01*
X112329000Y-109608741D01*
X112329000Y-109431259D01*
X112363624Y-109257188D01*
X112431544Y-109093216D01*
X112530147Y-108945646D01*
X112655646Y-108820147D01*
X112803216Y-108721544D01*
X112967188Y-108653624D01*
X113116488Y-108623927D01*
X113141258Y-108619000D01*
X113318742Y-108619000D01*
X113343512Y-108623927D01*
G37*
G36*
X57623512Y-108623927D02*
G01*
X57772812Y-108653624D01*
X57936784Y-108721544D01*
X58084354Y-108820147D01*
X58209853Y-108945646D01*
X58308456Y-109093216D01*
X58376376Y-109257188D01*
X58411000Y-109431259D01*
X58411000Y-109608741D01*
X58376376Y-109782812D01*
X58308456Y-109946784D01*
X58209853Y-110094354D01*
X58084354Y-110219853D01*
X57936784Y-110318456D01*
X57772812Y-110386376D01*
X57623512Y-110416073D01*
X57598742Y-110421000D01*
X57421258Y-110421000D01*
X57396488Y-110416073D01*
X57247188Y-110386376D01*
X57083216Y-110318456D01*
X56935646Y-110219853D01*
X56810147Y-110094354D01*
X56711544Y-109946784D01*
X56643624Y-109782812D01*
X56609000Y-109608741D01*
X56609000Y-109431259D01*
X56643624Y-109257188D01*
X56711544Y-109093216D01*
X56810147Y-108945646D01*
X56935646Y-108820147D01*
X57083216Y-108721544D01*
X57247188Y-108653624D01*
X57396488Y-108623927D01*
X57421258Y-108619000D01*
X57598742Y-108619000D01*
X57623512Y-108623927D01*
G37*
G36*
X103343512Y-108623927D02*
G01*
X103492812Y-108653624D01*
X103656784Y-108721544D01*
X103804354Y-108820147D01*
X103929853Y-108945646D01*
X104028456Y-109093216D01*
X104096376Y-109257188D01*
X104131000Y-109431259D01*
X104131000Y-109608741D01*
X104096376Y-109782812D01*
X104028456Y-109946784D01*
X103929853Y-110094354D01*
X103804354Y-110219853D01*
X103656784Y-110318456D01*
X103492812Y-110386376D01*
X103343512Y-110416073D01*
X103318742Y-110421000D01*
X103141258Y-110421000D01*
X103116488Y-110416073D01*
X102967188Y-110386376D01*
X102803216Y-110318456D01*
X102655646Y-110219853D01*
X102530147Y-110094354D01*
X102431544Y-109946784D01*
X102363624Y-109782812D01*
X102329000Y-109608741D01*
X102329000Y-109431259D01*
X102363624Y-109257188D01*
X102431544Y-109093216D01*
X102530147Y-108945646D01*
X102655646Y-108820147D01*
X102803216Y-108721544D01*
X102967188Y-108653624D01*
X103116488Y-108623927D01*
X103141258Y-108619000D01*
X103318742Y-108619000D01*
X103343512Y-108623927D01*
G37*
G36*
X115883512Y-106083927D02*
G01*
X116032812Y-106113624D01*
X116196784Y-106181544D01*
X116344354Y-106280147D01*
X116469853Y-106405646D01*
X116568456Y-106553216D01*
X116636376Y-106717188D01*
X116671000Y-106891259D01*
X116671000Y-107068741D01*
X116636376Y-107242812D01*
X116568456Y-107406784D01*
X116469853Y-107554354D01*
X116344354Y-107679853D01*
X116196784Y-107778456D01*
X116032812Y-107846376D01*
X115883512Y-107876073D01*
X115858742Y-107881000D01*
X115681258Y-107881000D01*
X115656488Y-107876073D01*
X115507188Y-107846376D01*
X115343216Y-107778456D01*
X115195646Y-107679853D01*
X115070147Y-107554354D01*
X114971544Y-107406784D01*
X114903624Y-107242812D01*
X114869000Y-107068741D01*
X114869000Y-106891259D01*
X114903624Y-106717188D01*
X114971544Y-106553216D01*
X115070147Y-106405646D01*
X115195646Y-106280147D01*
X115343216Y-106181544D01*
X115507188Y-106113624D01*
X115656488Y-106083927D01*
X115681258Y-106079000D01*
X115858742Y-106079000D01*
X115883512Y-106083927D01*
G37*
G36*
X113343512Y-106083927D02*
G01*
X113492812Y-106113624D01*
X113656784Y-106181544D01*
X113804354Y-106280147D01*
X113929853Y-106405646D01*
X114028456Y-106553216D01*
X114096376Y-106717188D01*
X114131000Y-106891259D01*
X114131000Y-107068741D01*
X114096376Y-107242812D01*
X114028456Y-107406784D01*
X113929853Y-107554354D01*
X113804354Y-107679853D01*
X113656784Y-107778456D01*
X113492812Y-107846376D01*
X113343512Y-107876073D01*
X113318742Y-107881000D01*
X113141258Y-107881000D01*
X113116488Y-107876073D01*
X112967188Y-107846376D01*
X112803216Y-107778456D01*
X112655646Y-107679853D01*
X112530147Y-107554354D01*
X112431544Y-107406784D01*
X112363624Y-107242812D01*
X112329000Y-107068741D01*
X112329000Y-106891259D01*
X112363624Y-106717188D01*
X112431544Y-106553216D01*
X112530147Y-106405646D01*
X112655646Y-106280147D01*
X112803216Y-106181544D01*
X112967188Y-106113624D01*
X113116488Y-106083927D01*
X113141258Y-106079000D01*
X113318742Y-106079000D01*
X113343512Y-106083927D01*
G37*
G36*
X47623512Y-106083927D02*
G01*
X47772812Y-106113624D01*
X47936784Y-106181544D01*
X48084354Y-106280147D01*
X48209853Y-106405646D01*
X48308456Y-106553216D01*
X48376376Y-106717188D01*
X48411000Y-106891259D01*
X48411000Y-107068741D01*
X48376376Y-107242812D01*
X48308456Y-107406784D01*
X48209853Y-107554354D01*
X48084354Y-107679853D01*
X47936784Y-107778456D01*
X47772812Y-107846376D01*
X47623512Y-107876073D01*
X47598742Y-107881000D01*
X47421258Y-107881000D01*
X47396488Y-107876073D01*
X47247188Y-107846376D01*
X47083216Y-107778456D01*
X46935646Y-107679853D01*
X46810147Y-107554354D01*
X46711544Y-107406784D01*
X46643624Y-107242812D01*
X46609000Y-107068741D01*
X46609000Y-106891259D01*
X46643624Y-106717188D01*
X46711544Y-106553216D01*
X46810147Y-106405646D01*
X46935646Y-106280147D01*
X47083216Y-106181544D01*
X47247188Y-106113624D01*
X47396488Y-106083927D01*
X47421258Y-106079000D01*
X47598742Y-106079000D01*
X47623512Y-106083927D01*
G37*
G36*
X45083512Y-106083927D02*
G01*
X45232812Y-106113624D01*
X45396784Y-106181544D01*
X45544354Y-106280147D01*
X45669853Y-106405646D01*
X45768456Y-106553216D01*
X45836376Y-106717188D01*
X45871000Y-106891259D01*
X45871000Y-107068741D01*
X45836376Y-107242812D01*
X45768456Y-107406784D01*
X45669853Y-107554354D01*
X45544354Y-107679853D01*
X45396784Y-107778456D01*
X45232812Y-107846376D01*
X45083512Y-107876073D01*
X45058742Y-107881000D01*
X44881258Y-107881000D01*
X44856488Y-107876073D01*
X44707188Y-107846376D01*
X44543216Y-107778456D01*
X44395646Y-107679853D01*
X44270147Y-107554354D01*
X44171544Y-107406784D01*
X44103624Y-107242812D01*
X44069000Y-107068741D01*
X44069000Y-106891259D01*
X44103624Y-106717188D01*
X44171544Y-106553216D01*
X44270147Y-106405646D01*
X44395646Y-106280147D01*
X44543216Y-106181544D01*
X44707188Y-106113624D01*
X44856488Y-106083927D01*
X44881258Y-106079000D01*
X45058742Y-106079000D01*
X45083512Y-106083927D01*
G37*
G36*
X103343512Y-106083927D02*
G01*
X103492812Y-106113624D01*
X103656784Y-106181544D01*
X103804354Y-106280147D01*
X103929853Y-106405646D01*
X104028456Y-106553216D01*
X104096376Y-106717188D01*
X104131000Y-106891259D01*
X104131000Y-107068741D01*
X104096376Y-107242812D01*
X104028456Y-107406784D01*
X103929853Y-107554354D01*
X103804354Y-107679853D01*
X103656784Y-107778456D01*
X103492812Y-107846376D01*
X103343512Y-107876073D01*
X103318742Y-107881000D01*
X103141258Y-107881000D01*
X103116488Y-107876073D01*
X102967188Y-107846376D01*
X102803216Y-107778456D01*
X102655646Y-107679853D01*
X102530147Y-107554354D01*
X102431544Y-107406784D01*
X102363624Y-107242812D01*
X102329000Y-107068741D01*
X102329000Y-106891259D01*
X102363624Y-106717188D01*
X102431544Y-106553216D01*
X102530147Y-106405646D01*
X102655646Y-106280147D01*
X102803216Y-106181544D01*
X102967188Y-106113624D01*
X103116488Y-106083927D01*
X103141258Y-106079000D01*
X103318742Y-106079000D01*
X103343512Y-106083927D01*
G37*
G36*
X57623512Y-106083927D02*
G01*
X57772812Y-106113624D01*
X57936784Y-106181544D01*
X58084354Y-106280147D01*
X58209853Y-106405646D01*
X58308456Y-106553216D01*
X58376376Y-106717188D01*
X58411000Y-106891259D01*
X58411000Y-107068741D01*
X58376376Y-107242812D01*
X58308456Y-107406784D01*
X58209853Y-107554354D01*
X58084354Y-107679853D01*
X57936784Y-107778456D01*
X57772812Y-107846376D01*
X57623512Y-107876073D01*
X57598742Y-107881000D01*
X57421258Y-107881000D01*
X57396488Y-107876073D01*
X57247188Y-107846376D01*
X57083216Y-107778456D01*
X56935646Y-107679853D01*
X56810147Y-107554354D01*
X56711544Y-107406784D01*
X56643624Y-107242812D01*
X56609000Y-107068741D01*
X56609000Y-106891259D01*
X56643624Y-106717188D01*
X56711544Y-106553216D01*
X56810147Y-106405646D01*
X56935646Y-106280147D01*
X57083216Y-106181544D01*
X57247188Y-106113624D01*
X57396488Y-106083927D01*
X57421258Y-106079000D01*
X57598742Y-106079000D01*
X57623512Y-106083927D01*
G37*
G36*
X40463512Y-106083927D02*
G01*
X40612812Y-106113624D01*
X40776784Y-106181544D01*
X40924354Y-106280147D01*
X41049853Y-106405646D01*
X41148456Y-106553216D01*
X41216376Y-106717188D01*
X41251000Y-106891259D01*
X41251000Y-107068741D01*
X41216376Y-107242812D01*
X41148456Y-107406784D01*
X41049853Y-107554354D01*
X40924354Y-107679853D01*
X40776784Y-107778456D01*
X40612812Y-107846376D01*
X40463512Y-107876073D01*
X40438742Y-107881000D01*
X40261258Y-107881000D01*
X40236488Y-107876073D01*
X40087188Y-107846376D01*
X39923216Y-107778456D01*
X39775646Y-107679853D01*
X39650147Y-107554354D01*
X39551544Y-107406784D01*
X39483624Y-107242812D01*
X39449000Y-107068741D01*
X39449000Y-106891259D01*
X39483624Y-106717188D01*
X39551544Y-106553216D01*
X39650147Y-106405646D01*
X39775646Y-106280147D01*
X39923216Y-106181544D01*
X40087188Y-106113624D01*
X40236488Y-106083927D01*
X40261258Y-106079000D01*
X40438742Y-106079000D01*
X40463512Y-106083927D01*
G37*
G36*
X40463512Y-103543927D02*
G01*
X40612812Y-103573624D01*
X40776784Y-103641544D01*
X40924354Y-103740147D01*
X41049853Y-103865646D01*
X41148456Y-104013216D01*
X41216376Y-104177188D01*
X41251000Y-104351259D01*
X41251000Y-104528741D01*
X41216376Y-104702812D01*
X41148456Y-104866784D01*
X41049853Y-105014354D01*
X40924354Y-105139853D01*
X40776784Y-105238456D01*
X40612812Y-105306376D01*
X40463512Y-105336073D01*
X40438742Y-105341000D01*
X40261258Y-105341000D01*
X40236488Y-105336073D01*
X40087188Y-105306376D01*
X39923216Y-105238456D01*
X39775646Y-105139853D01*
X39650147Y-105014354D01*
X39551544Y-104866784D01*
X39483624Y-104702812D01*
X39449000Y-104528741D01*
X39449000Y-104351259D01*
X39483624Y-104177188D01*
X39551544Y-104013216D01*
X39650147Y-103865646D01*
X39775646Y-103740147D01*
X39923216Y-103641544D01*
X40087188Y-103573624D01*
X40236488Y-103543927D01*
X40261258Y-103539000D01*
X40438742Y-103539000D01*
X40463512Y-103543927D01*
G37*
G36*
X103343512Y-103543927D02*
G01*
X103492812Y-103573624D01*
X103656784Y-103641544D01*
X103804354Y-103740147D01*
X103929853Y-103865646D01*
X104028456Y-104013216D01*
X104096376Y-104177188D01*
X104131000Y-104351259D01*
X104131000Y-104528741D01*
X104096376Y-104702812D01*
X104028456Y-104866784D01*
X103929853Y-105014354D01*
X103804354Y-105139853D01*
X103656784Y-105238456D01*
X103492812Y-105306376D01*
X103343512Y-105336073D01*
X103318742Y-105341000D01*
X103141258Y-105341000D01*
X103116488Y-105336073D01*
X102967188Y-105306376D01*
X102803216Y-105238456D01*
X102655646Y-105139853D01*
X102530147Y-105014354D01*
X102431544Y-104866784D01*
X102363624Y-104702812D01*
X102329000Y-104528741D01*
X102329000Y-104351259D01*
X102363624Y-104177188D01*
X102431544Y-104013216D01*
X102530147Y-103865646D01*
X102655646Y-103740147D01*
X102803216Y-103641544D01*
X102967188Y-103573624D01*
X103116488Y-103543927D01*
X103141258Y-103539000D01*
X103318742Y-103539000D01*
X103343512Y-103543927D01*
G37*
G36*
X45083512Y-103543927D02*
G01*
X45232812Y-103573624D01*
X45396784Y-103641544D01*
X45544354Y-103740147D01*
X45669853Y-103865646D01*
X45768456Y-104013216D01*
X45836376Y-104177188D01*
X45871000Y-104351259D01*
X45871000Y-104528741D01*
X45836376Y-104702812D01*
X45768456Y-104866784D01*
X45669853Y-105014354D01*
X45544354Y-105139853D01*
X45396784Y-105238456D01*
X45232812Y-105306376D01*
X45083512Y-105336073D01*
X45058742Y-105341000D01*
X44881258Y-105341000D01*
X44856488Y-105336073D01*
X44707188Y-105306376D01*
X44543216Y-105238456D01*
X44395646Y-105139853D01*
X44270147Y-105014354D01*
X44171544Y-104866784D01*
X44103624Y-104702812D01*
X44069000Y-104528741D01*
X44069000Y-104351259D01*
X44103624Y-104177188D01*
X44171544Y-104013216D01*
X44270147Y-103865646D01*
X44395646Y-103740147D01*
X44543216Y-103641544D01*
X44707188Y-103573624D01*
X44856488Y-103543927D01*
X44881258Y-103539000D01*
X45058742Y-103539000D01*
X45083512Y-103543927D01*
G37*
G36*
X47623512Y-103543927D02*
G01*
X47772812Y-103573624D01*
X47936784Y-103641544D01*
X48084354Y-103740147D01*
X48209853Y-103865646D01*
X48308456Y-104013216D01*
X48376376Y-104177188D01*
X48411000Y-104351259D01*
X48411000Y-104528741D01*
X48376376Y-104702812D01*
X48308456Y-104866784D01*
X48209853Y-105014354D01*
X48084354Y-105139853D01*
X47936784Y-105238456D01*
X47772812Y-105306376D01*
X47623512Y-105336073D01*
X47598742Y-105341000D01*
X47421258Y-105341000D01*
X47396488Y-105336073D01*
X47247188Y-105306376D01*
X47083216Y-105238456D01*
X46935646Y-105139853D01*
X46810147Y-105014354D01*
X46711544Y-104866784D01*
X46643624Y-104702812D01*
X46609000Y-104528741D01*
X46609000Y-104351259D01*
X46643624Y-104177188D01*
X46711544Y-104013216D01*
X46810147Y-103865646D01*
X46935646Y-103740147D01*
X47083216Y-103641544D01*
X47247188Y-103573624D01*
X47396488Y-103543927D01*
X47421258Y-103539000D01*
X47598742Y-103539000D01*
X47623512Y-103543927D01*
G37*
G36*
X113343512Y-103543927D02*
G01*
X113492812Y-103573624D01*
X113656784Y-103641544D01*
X113804354Y-103740147D01*
X113929853Y-103865646D01*
X114028456Y-104013216D01*
X114096376Y-104177188D01*
X114131000Y-104351259D01*
X114131000Y-104528741D01*
X114096376Y-104702812D01*
X114028456Y-104866784D01*
X113929853Y-105014354D01*
X113804354Y-105139853D01*
X113656784Y-105238456D01*
X113492812Y-105306376D01*
X113343512Y-105336073D01*
X113318742Y-105341000D01*
X113141258Y-105341000D01*
X113116488Y-105336073D01*
X112967188Y-105306376D01*
X112803216Y-105238456D01*
X112655646Y-105139853D01*
X112530147Y-105014354D01*
X112431544Y-104866784D01*
X112363624Y-104702812D01*
X112329000Y-104528741D01*
X112329000Y-104351259D01*
X112363624Y-104177188D01*
X112431544Y-104013216D01*
X112530147Y-103865646D01*
X112655646Y-103740147D01*
X112803216Y-103641544D01*
X112967188Y-103573624D01*
X113116488Y-103543927D01*
X113141258Y-103539000D01*
X113318742Y-103539000D01*
X113343512Y-103543927D01*
G37*
G36*
X115883512Y-103543927D02*
G01*
X116032812Y-103573624D01*
X116196784Y-103641544D01*
X116344354Y-103740147D01*
X116469853Y-103865646D01*
X116568456Y-104013216D01*
X116636376Y-104177188D01*
X116671000Y-104351259D01*
X116671000Y-104528741D01*
X116636376Y-104702812D01*
X116568456Y-104866784D01*
X116469853Y-105014354D01*
X116344354Y-105139853D01*
X116196784Y-105238456D01*
X116032812Y-105306376D01*
X115883512Y-105336073D01*
X115858742Y-105341000D01*
X115681258Y-105341000D01*
X115656488Y-105336073D01*
X115507188Y-105306376D01*
X115343216Y-105238456D01*
X115195646Y-105139853D01*
X115070147Y-105014354D01*
X114971544Y-104866784D01*
X114903624Y-104702812D01*
X114869000Y-104528741D01*
X114869000Y-104351259D01*
X114903624Y-104177188D01*
X114971544Y-104013216D01*
X115070147Y-103865646D01*
X115195646Y-103740147D01*
X115343216Y-103641544D01*
X115507188Y-103573624D01*
X115656488Y-103543927D01*
X115681258Y-103539000D01*
X115858742Y-103539000D01*
X115883512Y-103543927D01*
G37*
G36*
X57623512Y-103543927D02*
G01*
X57772812Y-103573624D01*
X57936784Y-103641544D01*
X58084354Y-103740147D01*
X58209853Y-103865646D01*
X58308456Y-104013216D01*
X58376376Y-104177188D01*
X58411000Y-104351259D01*
X58411000Y-104528741D01*
X58376376Y-104702812D01*
X58308456Y-104866784D01*
X58209853Y-105014354D01*
X58084354Y-105139853D01*
X57936784Y-105238456D01*
X57772812Y-105306376D01*
X57623512Y-105336073D01*
X57598742Y-105341000D01*
X57421258Y-105341000D01*
X57396488Y-105336073D01*
X57247188Y-105306376D01*
X57083216Y-105238456D01*
X56935646Y-105139853D01*
X56810147Y-105014354D01*
X56711544Y-104866784D01*
X56643624Y-104702812D01*
X56609000Y-104528741D01*
X56609000Y-104351259D01*
X56643624Y-104177188D01*
X56711544Y-104013216D01*
X56810147Y-103865646D01*
X56935646Y-103740147D01*
X57083216Y-103641544D01*
X57247188Y-103573624D01*
X57396488Y-103543927D01*
X57421258Y-103539000D01*
X57598742Y-103539000D01*
X57623512Y-103543927D01*
G37*
G36*
X57623512Y-101003927D02*
G01*
X57772812Y-101033624D01*
X57936784Y-101101544D01*
X58084354Y-101200147D01*
X58209853Y-101325646D01*
X58308456Y-101473216D01*
X58376376Y-101637188D01*
X58411000Y-101811259D01*
X58411000Y-101988741D01*
X58376376Y-102162812D01*
X58308456Y-102326784D01*
X58209853Y-102474354D01*
X58084354Y-102599853D01*
X57936784Y-102698456D01*
X57772812Y-102766376D01*
X57623512Y-102796073D01*
X57598742Y-102801000D01*
X57421258Y-102801000D01*
X57396488Y-102796073D01*
X57247188Y-102766376D01*
X57083216Y-102698456D01*
X56935646Y-102599853D01*
X56810147Y-102474354D01*
X56711544Y-102326784D01*
X56643624Y-102162812D01*
X56609000Y-101988741D01*
X56609000Y-101811259D01*
X56643624Y-101637188D01*
X56711544Y-101473216D01*
X56810147Y-101325646D01*
X56935646Y-101200147D01*
X57083216Y-101101544D01*
X57247188Y-101033624D01*
X57396488Y-101003927D01*
X57421258Y-100999000D01*
X57598742Y-100999000D01*
X57623512Y-101003927D01*
G37*
G36*
X115883512Y-101003927D02*
G01*
X116032812Y-101033624D01*
X116196784Y-101101544D01*
X116344354Y-101200147D01*
X116469853Y-101325646D01*
X116568456Y-101473216D01*
X116636376Y-101637188D01*
X116671000Y-101811259D01*
X116671000Y-101988741D01*
X116636376Y-102162812D01*
X116568456Y-102326784D01*
X116469853Y-102474354D01*
X116344354Y-102599853D01*
X116196784Y-102698456D01*
X116032812Y-102766376D01*
X115883512Y-102796073D01*
X115858742Y-102801000D01*
X115681258Y-102801000D01*
X115656488Y-102796073D01*
X115507188Y-102766376D01*
X115343216Y-102698456D01*
X115195646Y-102599853D01*
X115070147Y-102474354D01*
X114971544Y-102326784D01*
X114903624Y-102162812D01*
X114869000Y-101988741D01*
X114869000Y-101811259D01*
X114903624Y-101637188D01*
X114971544Y-101473216D01*
X115070147Y-101325646D01*
X115195646Y-101200147D01*
X115343216Y-101101544D01*
X115507188Y-101033624D01*
X115656488Y-101003927D01*
X115681258Y-100999000D01*
X115858742Y-100999000D01*
X115883512Y-101003927D01*
G37*
G36*
X113343512Y-101003927D02*
G01*
X113492812Y-101033624D01*
X113656784Y-101101544D01*
X113804354Y-101200147D01*
X113929853Y-101325646D01*
X114028456Y-101473216D01*
X114096376Y-101637188D01*
X114131000Y-101811259D01*
X114131000Y-101988741D01*
X114096376Y-102162812D01*
X114028456Y-102326784D01*
X113929853Y-102474354D01*
X113804354Y-102599853D01*
X113656784Y-102698456D01*
X113492812Y-102766376D01*
X113343512Y-102796073D01*
X113318742Y-102801000D01*
X113141258Y-102801000D01*
X113116488Y-102796073D01*
X112967188Y-102766376D01*
X112803216Y-102698456D01*
X112655646Y-102599853D01*
X112530147Y-102474354D01*
X112431544Y-102326784D01*
X112363624Y-102162812D01*
X112329000Y-101988741D01*
X112329000Y-101811259D01*
X112363624Y-101637188D01*
X112431544Y-101473216D01*
X112530147Y-101325646D01*
X112655646Y-101200147D01*
X112803216Y-101101544D01*
X112967188Y-101033624D01*
X113116488Y-101003927D01*
X113141258Y-100999000D01*
X113318742Y-100999000D01*
X113343512Y-101003927D01*
G37*
G36*
X47623512Y-101003927D02*
G01*
X47772812Y-101033624D01*
X47936784Y-101101544D01*
X48084354Y-101200147D01*
X48209853Y-101325646D01*
X48308456Y-101473216D01*
X48376376Y-101637188D01*
X48411000Y-101811259D01*
X48411000Y-101988741D01*
X48376376Y-102162812D01*
X48308456Y-102326784D01*
X48209853Y-102474354D01*
X48084354Y-102599853D01*
X47936784Y-102698456D01*
X47772812Y-102766376D01*
X47623512Y-102796073D01*
X47598742Y-102801000D01*
X47421258Y-102801000D01*
X47396488Y-102796073D01*
X47247188Y-102766376D01*
X47083216Y-102698456D01*
X46935646Y-102599853D01*
X46810147Y-102474354D01*
X46711544Y-102326784D01*
X46643624Y-102162812D01*
X46609000Y-101988741D01*
X46609000Y-101811259D01*
X46643624Y-101637188D01*
X46711544Y-101473216D01*
X46810147Y-101325646D01*
X46935646Y-101200147D01*
X47083216Y-101101544D01*
X47247188Y-101033624D01*
X47396488Y-101003927D01*
X47421258Y-100999000D01*
X47598742Y-100999000D01*
X47623512Y-101003927D01*
G37*
G36*
X45083512Y-101003927D02*
G01*
X45232812Y-101033624D01*
X45396784Y-101101544D01*
X45544354Y-101200147D01*
X45669853Y-101325646D01*
X45768456Y-101473216D01*
X45836376Y-101637188D01*
X45871000Y-101811259D01*
X45871000Y-101988741D01*
X45836376Y-102162812D01*
X45768456Y-102326784D01*
X45669853Y-102474354D01*
X45544354Y-102599853D01*
X45396784Y-102698456D01*
X45232812Y-102766376D01*
X45083512Y-102796073D01*
X45058742Y-102801000D01*
X44881258Y-102801000D01*
X44856488Y-102796073D01*
X44707188Y-102766376D01*
X44543216Y-102698456D01*
X44395646Y-102599853D01*
X44270147Y-102474354D01*
X44171544Y-102326784D01*
X44103624Y-102162812D01*
X44069000Y-101988741D01*
X44069000Y-101811259D01*
X44103624Y-101637188D01*
X44171544Y-101473216D01*
X44270147Y-101325646D01*
X44395646Y-101200147D01*
X44543216Y-101101544D01*
X44707188Y-101033624D01*
X44856488Y-101003927D01*
X44881258Y-100999000D01*
X45058742Y-100999000D01*
X45083512Y-101003927D01*
G37*
G36*
X103343512Y-101003927D02*
G01*
X103492812Y-101033624D01*
X103656784Y-101101544D01*
X103804354Y-101200147D01*
X103929853Y-101325646D01*
X104028456Y-101473216D01*
X104096376Y-101637188D01*
X104131000Y-101811259D01*
X104131000Y-101988741D01*
X104096376Y-102162812D01*
X104028456Y-102326784D01*
X103929853Y-102474354D01*
X103804354Y-102599853D01*
X103656784Y-102698456D01*
X103492812Y-102766376D01*
X103343512Y-102796073D01*
X103318742Y-102801000D01*
X103141258Y-102801000D01*
X103116488Y-102796073D01*
X102967188Y-102766376D01*
X102803216Y-102698456D01*
X102655646Y-102599853D01*
X102530147Y-102474354D01*
X102431544Y-102326784D01*
X102363624Y-102162812D01*
X102329000Y-101988741D01*
X102329000Y-101811259D01*
X102363624Y-101637188D01*
X102431544Y-101473216D01*
X102530147Y-101325646D01*
X102655646Y-101200147D01*
X102803216Y-101101544D01*
X102967188Y-101033624D01*
X103116488Y-101003927D01*
X103141258Y-100999000D01*
X103318742Y-100999000D01*
X103343512Y-101003927D01*
G37*
G36*
X40463512Y-101003927D02*
G01*
X40612812Y-101033624D01*
X40776784Y-101101544D01*
X40924354Y-101200147D01*
X41049853Y-101325646D01*
X41148456Y-101473216D01*
X41216376Y-101637188D01*
X41251000Y-101811259D01*
X41251000Y-101988741D01*
X41216376Y-102162812D01*
X41148456Y-102326784D01*
X41049853Y-102474354D01*
X40924354Y-102599853D01*
X40776784Y-102698456D01*
X40612812Y-102766376D01*
X40463512Y-102796073D01*
X40438742Y-102801000D01*
X40261258Y-102801000D01*
X40236488Y-102796073D01*
X40087188Y-102766376D01*
X39923216Y-102698456D01*
X39775646Y-102599853D01*
X39650147Y-102474354D01*
X39551544Y-102326784D01*
X39483624Y-102162812D01*
X39449000Y-101988741D01*
X39449000Y-101811259D01*
X39483624Y-101637188D01*
X39551544Y-101473216D01*
X39650147Y-101325646D01*
X39775646Y-101200147D01*
X39923216Y-101101544D01*
X40087188Y-101033624D01*
X40236488Y-101003927D01*
X40261258Y-100999000D01*
X40438742Y-100999000D01*
X40463512Y-101003927D01*
G37*
G36*
X47623512Y-98463927D02*
G01*
X47772812Y-98493624D01*
X47936784Y-98561544D01*
X48084354Y-98660147D01*
X48209853Y-98785646D01*
X48308456Y-98933216D01*
X48376376Y-99097188D01*
X48411000Y-99271259D01*
X48411000Y-99448741D01*
X48376376Y-99622812D01*
X48308456Y-99786784D01*
X48209853Y-99934354D01*
X48084354Y-100059853D01*
X47936784Y-100158456D01*
X47772812Y-100226376D01*
X47623512Y-100256073D01*
X47598742Y-100261000D01*
X47421258Y-100261000D01*
X47396488Y-100256073D01*
X47247188Y-100226376D01*
X47083216Y-100158456D01*
X46935646Y-100059853D01*
X46810147Y-99934354D01*
X46711544Y-99786784D01*
X46643624Y-99622812D01*
X46609000Y-99448741D01*
X46609000Y-99271259D01*
X46643624Y-99097188D01*
X46711544Y-98933216D01*
X46810147Y-98785646D01*
X46935646Y-98660147D01*
X47083216Y-98561544D01*
X47247188Y-98493624D01*
X47396488Y-98463927D01*
X47421258Y-98459000D01*
X47598742Y-98459000D01*
X47623512Y-98463927D01*
G37*
G36*
X57623512Y-98463927D02*
G01*
X57772812Y-98493624D01*
X57936784Y-98561544D01*
X58084354Y-98660147D01*
X58209853Y-98785646D01*
X58308456Y-98933216D01*
X58376376Y-99097188D01*
X58411000Y-99271259D01*
X58411000Y-99448741D01*
X58376376Y-99622812D01*
X58308456Y-99786784D01*
X58209853Y-99934354D01*
X58084354Y-100059853D01*
X57936784Y-100158456D01*
X57772812Y-100226376D01*
X57623512Y-100256073D01*
X57598742Y-100261000D01*
X57421258Y-100261000D01*
X57396488Y-100256073D01*
X57247188Y-100226376D01*
X57083216Y-100158456D01*
X56935646Y-100059853D01*
X56810147Y-99934354D01*
X56711544Y-99786784D01*
X56643624Y-99622812D01*
X56609000Y-99448741D01*
X56609000Y-99271259D01*
X56643624Y-99097188D01*
X56711544Y-98933216D01*
X56810147Y-98785646D01*
X56935646Y-98660147D01*
X57083216Y-98561544D01*
X57247188Y-98493624D01*
X57396488Y-98463927D01*
X57421258Y-98459000D01*
X57598742Y-98459000D01*
X57623512Y-98463927D01*
G37*
G36*
X45083512Y-98463927D02*
G01*
X45232812Y-98493624D01*
X45396784Y-98561544D01*
X45544354Y-98660147D01*
X45669853Y-98785646D01*
X45768456Y-98933216D01*
X45836376Y-99097188D01*
X45871000Y-99271259D01*
X45871000Y-99448741D01*
X45836376Y-99622812D01*
X45768456Y-99786784D01*
X45669853Y-99934354D01*
X45544354Y-100059853D01*
X45396784Y-100158456D01*
X45232812Y-100226376D01*
X45083512Y-100256073D01*
X45058742Y-100261000D01*
X44881258Y-100261000D01*
X44856488Y-100256073D01*
X44707188Y-100226376D01*
X44543216Y-100158456D01*
X44395646Y-100059853D01*
X44270147Y-99934354D01*
X44171544Y-99786784D01*
X44103624Y-99622812D01*
X44069000Y-99448741D01*
X44069000Y-99271259D01*
X44103624Y-99097188D01*
X44171544Y-98933216D01*
X44270147Y-98785646D01*
X44395646Y-98660147D01*
X44543216Y-98561544D01*
X44707188Y-98493624D01*
X44856488Y-98463927D01*
X44881258Y-98459000D01*
X45058742Y-98459000D01*
X45083512Y-98463927D01*
G37*
G36*
X103343512Y-98463927D02*
G01*
X103492812Y-98493624D01*
X103656784Y-98561544D01*
X103804354Y-98660147D01*
X103929853Y-98785646D01*
X104028456Y-98933216D01*
X104096376Y-99097188D01*
X104131000Y-99271259D01*
X104131000Y-99448741D01*
X104096376Y-99622812D01*
X104028456Y-99786784D01*
X103929853Y-99934354D01*
X103804354Y-100059853D01*
X103656784Y-100158456D01*
X103492812Y-100226376D01*
X103343512Y-100256073D01*
X103318742Y-100261000D01*
X103141258Y-100261000D01*
X103116488Y-100256073D01*
X102967188Y-100226376D01*
X102803216Y-100158456D01*
X102655646Y-100059853D01*
X102530147Y-99934354D01*
X102431544Y-99786784D01*
X102363624Y-99622812D01*
X102329000Y-99448741D01*
X102329000Y-99271259D01*
X102363624Y-99097188D01*
X102431544Y-98933216D01*
X102530147Y-98785646D01*
X102655646Y-98660147D01*
X102803216Y-98561544D01*
X102967188Y-98493624D01*
X103116488Y-98463927D01*
X103141258Y-98459000D01*
X103318742Y-98459000D01*
X103343512Y-98463927D01*
G37*
G36*
X115883512Y-98463927D02*
G01*
X116032812Y-98493624D01*
X116196784Y-98561544D01*
X116344354Y-98660147D01*
X116469853Y-98785646D01*
X116568456Y-98933216D01*
X116636376Y-99097188D01*
X116671000Y-99271259D01*
X116671000Y-99448741D01*
X116636376Y-99622812D01*
X116568456Y-99786784D01*
X116469853Y-99934354D01*
X116344354Y-100059853D01*
X116196784Y-100158456D01*
X116032812Y-100226376D01*
X115883512Y-100256073D01*
X115858742Y-100261000D01*
X115681258Y-100261000D01*
X115656488Y-100256073D01*
X115507188Y-100226376D01*
X115343216Y-100158456D01*
X115195646Y-100059853D01*
X115070147Y-99934354D01*
X114971544Y-99786784D01*
X114903624Y-99622812D01*
X114869000Y-99448741D01*
X114869000Y-99271259D01*
X114903624Y-99097188D01*
X114971544Y-98933216D01*
X115070147Y-98785646D01*
X115195646Y-98660147D01*
X115343216Y-98561544D01*
X115507188Y-98493624D01*
X115656488Y-98463927D01*
X115681258Y-98459000D01*
X115858742Y-98459000D01*
X115883512Y-98463927D01*
G37*
G36*
X40463512Y-98463927D02*
G01*
X40612812Y-98493624D01*
X40776784Y-98561544D01*
X40924354Y-98660147D01*
X41049853Y-98785646D01*
X41148456Y-98933216D01*
X41216376Y-99097188D01*
X41251000Y-99271259D01*
X41251000Y-99448741D01*
X41216376Y-99622812D01*
X41148456Y-99786784D01*
X41049853Y-99934354D01*
X40924354Y-100059853D01*
X40776784Y-100158456D01*
X40612812Y-100226376D01*
X40463512Y-100256073D01*
X40438742Y-100261000D01*
X40261258Y-100261000D01*
X40236488Y-100256073D01*
X40087188Y-100226376D01*
X39923216Y-100158456D01*
X39775646Y-100059853D01*
X39650147Y-99934354D01*
X39551544Y-99786784D01*
X39483624Y-99622812D01*
X39449000Y-99448741D01*
X39449000Y-99271259D01*
X39483624Y-99097188D01*
X39551544Y-98933216D01*
X39650147Y-98785646D01*
X39775646Y-98660147D01*
X39923216Y-98561544D01*
X40087188Y-98493624D01*
X40236488Y-98463927D01*
X40261258Y-98459000D01*
X40438742Y-98459000D01*
X40463512Y-98463927D01*
G37*
G36*
X113343512Y-98463927D02*
G01*
X113492812Y-98493624D01*
X113656784Y-98561544D01*
X113804354Y-98660147D01*
X113929853Y-98785646D01*
X114028456Y-98933216D01*
X114096376Y-99097188D01*
X114131000Y-99271259D01*
X114131000Y-99448741D01*
X114096376Y-99622812D01*
X114028456Y-99786784D01*
X113929853Y-99934354D01*
X113804354Y-100059853D01*
X113656784Y-100158456D01*
X113492812Y-100226376D01*
X113343512Y-100256073D01*
X113318742Y-100261000D01*
X113141258Y-100261000D01*
X113116488Y-100256073D01*
X112967188Y-100226376D01*
X112803216Y-100158456D01*
X112655646Y-100059853D01*
X112530147Y-99934354D01*
X112431544Y-99786784D01*
X112363624Y-99622812D01*
X112329000Y-99448741D01*
X112329000Y-99271259D01*
X112363624Y-99097188D01*
X112431544Y-98933216D01*
X112530147Y-98785646D01*
X112655646Y-98660147D01*
X112803216Y-98561544D01*
X112967188Y-98493624D01*
X113116488Y-98463927D01*
X113141258Y-98459000D01*
X113318742Y-98459000D01*
X113343512Y-98463927D01*
G37*
G36*
X45083512Y-95923927D02*
G01*
X45232812Y-95953624D01*
X45396784Y-96021544D01*
X45544354Y-96120147D01*
X45669853Y-96245646D01*
X45768456Y-96393216D01*
X45836376Y-96557188D01*
X45871000Y-96731259D01*
X45871000Y-96908741D01*
X45836376Y-97082812D01*
X45768456Y-97246784D01*
X45669853Y-97394354D01*
X45544354Y-97519853D01*
X45396784Y-97618456D01*
X45232812Y-97686376D01*
X45083512Y-97716073D01*
X45058742Y-97721000D01*
X44881258Y-97721000D01*
X44856488Y-97716073D01*
X44707188Y-97686376D01*
X44543216Y-97618456D01*
X44395646Y-97519853D01*
X44270147Y-97394354D01*
X44171544Y-97246784D01*
X44103624Y-97082812D01*
X44069000Y-96908741D01*
X44069000Y-96731259D01*
X44103624Y-96557188D01*
X44171544Y-96393216D01*
X44270147Y-96245646D01*
X44395646Y-96120147D01*
X44543216Y-96021544D01*
X44707188Y-95953624D01*
X44856488Y-95923927D01*
X44881258Y-95919000D01*
X45058742Y-95919000D01*
X45083512Y-95923927D01*
G37*
G36*
X57623512Y-95923927D02*
G01*
X57772812Y-95953624D01*
X57936784Y-96021544D01*
X58084354Y-96120147D01*
X58209853Y-96245646D01*
X58308456Y-96393216D01*
X58376376Y-96557188D01*
X58411000Y-96731259D01*
X58411000Y-96908741D01*
X58376376Y-97082812D01*
X58308456Y-97246784D01*
X58209853Y-97394354D01*
X58084354Y-97519853D01*
X57936784Y-97618456D01*
X57772812Y-97686376D01*
X57623512Y-97716073D01*
X57598742Y-97721000D01*
X57421258Y-97721000D01*
X57396488Y-97716073D01*
X57247188Y-97686376D01*
X57083216Y-97618456D01*
X56935646Y-97519853D01*
X56810147Y-97394354D01*
X56711544Y-97246784D01*
X56643624Y-97082812D01*
X56609000Y-96908741D01*
X56609000Y-96731259D01*
X56643624Y-96557188D01*
X56711544Y-96393216D01*
X56810147Y-96245646D01*
X56935646Y-96120147D01*
X57083216Y-96021544D01*
X57247188Y-95953624D01*
X57396488Y-95923927D01*
X57421258Y-95919000D01*
X57598742Y-95919000D01*
X57623512Y-95923927D01*
G37*
G36*
X103343512Y-95923927D02*
G01*
X103492812Y-95953624D01*
X103656784Y-96021544D01*
X103804354Y-96120147D01*
X103929853Y-96245646D01*
X104028456Y-96393216D01*
X104096376Y-96557188D01*
X104131000Y-96731259D01*
X104131000Y-96908741D01*
X104096376Y-97082812D01*
X104028456Y-97246784D01*
X103929853Y-97394354D01*
X103804354Y-97519853D01*
X103656784Y-97618456D01*
X103492812Y-97686376D01*
X103343512Y-97716073D01*
X103318742Y-97721000D01*
X103141258Y-97721000D01*
X103116488Y-97716073D01*
X102967188Y-97686376D01*
X102803216Y-97618456D01*
X102655646Y-97519853D01*
X102530147Y-97394354D01*
X102431544Y-97246784D01*
X102363624Y-97082812D01*
X102329000Y-96908741D01*
X102329000Y-96731259D01*
X102363624Y-96557188D01*
X102431544Y-96393216D01*
X102530147Y-96245646D01*
X102655646Y-96120147D01*
X102803216Y-96021544D01*
X102967188Y-95953624D01*
X103116488Y-95923927D01*
X103141258Y-95919000D01*
X103318742Y-95919000D01*
X103343512Y-95923927D01*
G37*
G36*
X115883512Y-95923927D02*
G01*
X116032812Y-95953624D01*
X116196784Y-96021544D01*
X116344354Y-96120147D01*
X116469853Y-96245646D01*
X116568456Y-96393216D01*
X116636376Y-96557188D01*
X116671000Y-96731259D01*
X116671000Y-96908741D01*
X116636376Y-97082812D01*
X116568456Y-97246784D01*
X116469853Y-97394354D01*
X116344354Y-97519853D01*
X116196784Y-97618456D01*
X116032812Y-97686376D01*
X115883512Y-97716073D01*
X115858742Y-97721000D01*
X115681258Y-97721000D01*
X115656488Y-97716073D01*
X115507188Y-97686376D01*
X115343216Y-97618456D01*
X115195646Y-97519853D01*
X115070147Y-97394354D01*
X114971544Y-97246784D01*
X114903624Y-97082812D01*
X114869000Y-96908741D01*
X114869000Y-96731259D01*
X114903624Y-96557188D01*
X114971544Y-96393216D01*
X115070147Y-96245646D01*
X115195646Y-96120147D01*
X115343216Y-96021544D01*
X115507188Y-95953624D01*
X115656488Y-95923927D01*
X115681258Y-95919000D01*
X115858742Y-95919000D01*
X115883512Y-95923927D01*
G37*
G36*
X113343512Y-95923927D02*
G01*
X113492812Y-95953624D01*
X113656784Y-96021544D01*
X113804354Y-96120147D01*
X113929853Y-96245646D01*
X114028456Y-96393216D01*
X114096376Y-96557188D01*
X114131000Y-96731259D01*
X114131000Y-96908741D01*
X114096376Y-97082812D01*
X114028456Y-97246784D01*
X113929853Y-97394354D01*
X113804354Y-97519853D01*
X113656784Y-97618456D01*
X113492812Y-97686376D01*
X113343512Y-97716073D01*
X113318742Y-97721000D01*
X113141258Y-97721000D01*
X113116488Y-97716073D01*
X112967188Y-97686376D01*
X112803216Y-97618456D01*
X112655646Y-97519853D01*
X112530147Y-97394354D01*
X112431544Y-97246784D01*
X112363624Y-97082812D01*
X112329000Y-96908741D01*
X112329000Y-96731259D01*
X112363624Y-96557188D01*
X112431544Y-96393216D01*
X112530147Y-96245646D01*
X112655646Y-96120147D01*
X112803216Y-96021544D01*
X112967188Y-95953624D01*
X113116488Y-95923927D01*
X113141258Y-95919000D01*
X113318742Y-95919000D01*
X113343512Y-95923927D01*
G37*
G36*
X47623512Y-95923927D02*
G01*
X47772812Y-95953624D01*
X47936784Y-96021544D01*
X48084354Y-96120147D01*
X48209853Y-96245646D01*
X48308456Y-96393216D01*
X48376376Y-96557188D01*
X48411000Y-96731259D01*
X48411000Y-96908741D01*
X48376376Y-97082812D01*
X48308456Y-97246784D01*
X48209853Y-97394354D01*
X48084354Y-97519853D01*
X47936784Y-97618456D01*
X47772812Y-97686376D01*
X47623512Y-97716073D01*
X47598742Y-97721000D01*
X47421258Y-97721000D01*
X47396488Y-97716073D01*
X47247188Y-97686376D01*
X47083216Y-97618456D01*
X46935646Y-97519853D01*
X46810147Y-97394354D01*
X46711544Y-97246784D01*
X46643624Y-97082812D01*
X46609000Y-96908741D01*
X46609000Y-96731259D01*
X46643624Y-96557188D01*
X46711544Y-96393216D01*
X46810147Y-96245646D01*
X46935646Y-96120147D01*
X47083216Y-96021544D01*
X47247188Y-95953624D01*
X47396488Y-95923927D01*
X47421258Y-95919000D01*
X47598742Y-95919000D01*
X47623512Y-95923927D01*
G37*
G36*
X57623512Y-93383927D02*
G01*
X57772812Y-93413624D01*
X57936784Y-93481544D01*
X58084354Y-93580147D01*
X58209853Y-93705646D01*
X58308456Y-93853216D01*
X58376376Y-94017188D01*
X58411000Y-94191259D01*
X58411000Y-94368741D01*
X58376376Y-94542812D01*
X58308456Y-94706784D01*
X58209853Y-94854354D01*
X58084354Y-94979853D01*
X57936784Y-95078456D01*
X57772812Y-95146376D01*
X57623512Y-95176073D01*
X57598742Y-95181000D01*
X57421258Y-95181000D01*
X57396488Y-95176073D01*
X57247188Y-95146376D01*
X57083216Y-95078456D01*
X56935646Y-94979853D01*
X56810147Y-94854354D01*
X56711544Y-94706784D01*
X56643624Y-94542812D01*
X56609000Y-94368741D01*
X56609000Y-94191259D01*
X56643624Y-94017188D01*
X56711544Y-93853216D01*
X56810147Y-93705646D01*
X56935646Y-93580147D01*
X57083216Y-93481544D01*
X57247188Y-93413624D01*
X57396488Y-93383927D01*
X57421258Y-93379000D01*
X57598742Y-93379000D01*
X57623512Y-93383927D01*
G37*
G36*
X47623512Y-93383927D02*
G01*
X47772812Y-93413624D01*
X47936784Y-93481544D01*
X48084354Y-93580147D01*
X48209853Y-93705646D01*
X48308456Y-93853216D01*
X48376376Y-94017188D01*
X48411000Y-94191259D01*
X48411000Y-94368741D01*
X48376376Y-94542812D01*
X48308456Y-94706784D01*
X48209853Y-94854354D01*
X48084354Y-94979853D01*
X47936784Y-95078456D01*
X47772812Y-95146376D01*
X47623512Y-95176073D01*
X47598742Y-95181000D01*
X47421258Y-95181000D01*
X47396488Y-95176073D01*
X47247188Y-95146376D01*
X47083216Y-95078456D01*
X46935646Y-94979853D01*
X46810147Y-94854354D01*
X46711544Y-94706784D01*
X46643624Y-94542812D01*
X46609000Y-94368741D01*
X46609000Y-94191259D01*
X46643624Y-94017188D01*
X46711544Y-93853216D01*
X46810147Y-93705646D01*
X46935646Y-93580147D01*
X47083216Y-93481544D01*
X47247188Y-93413624D01*
X47396488Y-93383927D01*
X47421258Y-93379000D01*
X47598742Y-93379000D01*
X47623512Y-93383927D01*
G37*
G36*
X45083512Y-93383927D02*
G01*
X45232812Y-93413624D01*
X45396784Y-93481544D01*
X45544354Y-93580147D01*
X45669853Y-93705646D01*
X45768456Y-93853216D01*
X45836376Y-94017188D01*
X45871000Y-94191259D01*
X45871000Y-94368741D01*
X45836376Y-94542812D01*
X45768456Y-94706784D01*
X45669853Y-94854354D01*
X45544354Y-94979853D01*
X45396784Y-95078456D01*
X45232812Y-95146376D01*
X45083512Y-95176073D01*
X45058742Y-95181000D01*
X44881258Y-95181000D01*
X44856488Y-95176073D01*
X44707188Y-95146376D01*
X44543216Y-95078456D01*
X44395646Y-94979853D01*
X44270147Y-94854354D01*
X44171544Y-94706784D01*
X44103624Y-94542812D01*
X44069000Y-94368741D01*
X44069000Y-94191259D01*
X44103624Y-94017188D01*
X44171544Y-93853216D01*
X44270147Y-93705646D01*
X44395646Y-93580147D01*
X44543216Y-93481544D01*
X44707188Y-93413624D01*
X44856488Y-93383927D01*
X44881258Y-93379000D01*
X45058742Y-93379000D01*
X45083512Y-93383927D01*
G37*
G36*
X115883512Y-93383927D02*
G01*
X116032812Y-93413624D01*
X116196784Y-93481544D01*
X116344354Y-93580147D01*
X116469853Y-93705646D01*
X116568456Y-93853216D01*
X116636376Y-94017188D01*
X116671000Y-94191259D01*
X116671000Y-94368741D01*
X116636376Y-94542812D01*
X116568456Y-94706784D01*
X116469853Y-94854354D01*
X116344354Y-94979853D01*
X116196784Y-95078456D01*
X116032812Y-95146376D01*
X115883512Y-95176073D01*
X115858742Y-95181000D01*
X115681258Y-95181000D01*
X115656488Y-95176073D01*
X115507188Y-95146376D01*
X115343216Y-95078456D01*
X115195646Y-94979853D01*
X115070147Y-94854354D01*
X114971544Y-94706784D01*
X114903624Y-94542812D01*
X114869000Y-94368741D01*
X114869000Y-94191259D01*
X114903624Y-94017188D01*
X114971544Y-93853216D01*
X115070147Y-93705646D01*
X115195646Y-93580147D01*
X115343216Y-93481544D01*
X115507188Y-93413624D01*
X115656488Y-93383927D01*
X115681258Y-93379000D01*
X115858742Y-93379000D01*
X115883512Y-93383927D01*
G37*
G36*
X113343512Y-93383927D02*
G01*
X113492812Y-93413624D01*
X113656784Y-93481544D01*
X113804354Y-93580147D01*
X113929853Y-93705646D01*
X114028456Y-93853216D01*
X114096376Y-94017188D01*
X114131000Y-94191259D01*
X114131000Y-94368741D01*
X114096376Y-94542812D01*
X114028456Y-94706784D01*
X113929853Y-94854354D01*
X113804354Y-94979853D01*
X113656784Y-95078456D01*
X113492812Y-95146376D01*
X113343512Y-95176073D01*
X113318742Y-95181000D01*
X113141258Y-95181000D01*
X113116488Y-95176073D01*
X112967188Y-95146376D01*
X112803216Y-95078456D01*
X112655646Y-94979853D01*
X112530147Y-94854354D01*
X112431544Y-94706784D01*
X112363624Y-94542812D01*
X112329000Y-94368741D01*
X112329000Y-94191259D01*
X112363624Y-94017188D01*
X112431544Y-93853216D01*
X112530147Y-93705646D01*
X112655646Y-93580147D01*
X112803216Y-93481544D01*
X112967188Y-93413624D01*
X113116488Y-93383927D01*
X113141258Y-93379000D01*
X113318742Y-93379000D01*
X113343512Y-93383927D01*
G37*
G36*
X103343512Y-93383927D02*
G01*
X103492812Y-93413624D01*
X103656784Y-93481544D01*
X103804354Y-93580147D01*
X103929853Y-93705646D01*
X104028456Y-93853216D01*
X104096376Y-94017188D01*
X104131000Y-94191259D01*
X104131000Y-94368741D01*
X104096376Y-94542812D01*
X104028456Y-94706784D01*
X103929853Y-94854354D01*
X103804354Y-94979853D01*
X103656784Y-95078456D01*
X103492812Y-95146376D01*
X103343512Y-95176073D01*
X103318742Y-95181000D01*
X103141258Y-95181000D01*
X103116488Y-95176073D01*
X102967188Y-95146376D01*
X102803216Y-95078456D01*
X102655646Y-94979853D01*
X102530147Y-94854354D01*
X102431544Y-94706784D01*
X102363624Y-94542812D01*
X102329000Y-94368741D01*
X102329000Y-94191259D01*
X102363624Y-94017188D01*
X102431544Y-93853216D01*
X102530147Y-93705646D01*
X102655646Y-93580147D01*
X102803216Y-93481544D01*
X102967188Y-93413624D01*
X103116488Y-93383927D01*
X103141258Y-93379000D01*
X103318742Y-93379000D01*
X103343512Y-93383927D01*
G37*
G36*
X39966236Y-85357169D02*
G01*
X40284173Y-85453615D01*
X40577173Y-85610227D01*
X40834000Y-85821000D01*
X41044773Y-86077827D01*
X41201385Y-86370827D01*
X41297831Y-86688764D01*
X41331000Y-87025540D01*
X41331000Y-92474460D01*
X41297831Y-92811236D01*
X41201385Y-93129173D01*
X41044773Y-93422173D01*
X40834000Y-93679000D01*
X40577173Y-93889773D01*
X40284173Y-94046385D01*
X39966236Y-94142831D01*
X39629460Y-94176000D01*
X31630540Y-94176000D01*
X31293764Y-94142831D01*
X30975827Y-94046385D01*
X30682827Y-93889773D01*
X30426000Y-93679000D01*
X30215227Y-93422173D01*
X30058615Y-93129173D01*
X29962169Y-92811236D01*
X29929000Y-92474460D01*
X29929000Y-87025540D01*
X29962169Y-86688764D01*
X30058615Y-86370827D01*
X30215227Y-86077827D01*
X30426000Y-85821000D01*
X30682827Y-85610227D01*
X30975827Y-85453615D01*
X31293764Y-85357169D01*
X31630540Y-85324000D01*
X39629460Y-85324000D01*
X39966236Y-85357169D01*
G37*
G36*
X95586236Y-85357169D02*
G01*
X95904173Y-85453615D01*
X96197173Y-85610227D01*
X96454000Y-85821000D01*
X96664773Y-86077827D01*
X96821385Y-86370827D01*
X96917831Y-86688764D01*
X96951000Y-87025540D01*
X96951000Y-92474460D01*
X96917831Y-92811236D01*
X96821385Y-93129173D01*
X96664773Y-93422173D01*
X96454000Y-93679000D01*
X96197173Y-93889773D01*
X95904173Y-94046385D01*
X95586236Y-94142831D01*
X95249460Y-94176000D01*
X87250540Y-94176000D01*
X86913764Y-94142831D01*
X86595827Y-94046385D01*
X86302827Y-93889773D01*
X86046000Y-93679000D01*
X85835227Y-93422173D01*
X85678615Y-93129173D01*
X85582169Y-92811236D01*
X85549000Y-92474460D01*
X85549000Y-87025540D01*
X85582169Y-86688764D01*
X85678615Y-86370827D01*
X85835227Y-86077827D01*
X86046000Y-85821000D01*
X86302827Y-85610227D01*
X86595827Y-85453615D01*
X86913764Y-85357169D01*
X87250540Y-85324000D01*
X95249460Y-85324000D01*
X95586236Y-85357169D01*
G37*
G36*
X47623512Y-90843927D02*
G01*
X47772812Y-90873624D01*
X47936784Y-90941544D01*
X48084354Y-91040147D01*
X48209853Y-91165646D01*
X48308456Y-91313216D01*
X48376376Y-91477188D01*
X48411000Y-91651259D01*
X48411000Y-91828741D01*
X48376376Y-92002812D01*
X48308456Y-92166784D01*
X48209853Y-92314354D01*
X48084354Y-92439853D01*
X47936784Y-92538456D01*
X47772812Y-92606376D01*
X47623512Y-92636073D01*
X47598742Y-92641000D01*
X47421258Y-92641000D01*
X47396488Y-92636073D01*
X47247188Y-92606376D01*
X47083216Y-92538456D01*
X46935646Y-92439853D01*
X46810147Y-92314354D01*
X46711544Y-92166784D01*
X46643624Y-92002812D01*
X46609000Y-91828741D01*
X46609000Y-91651259D01*
X46643624Y-91477188D01*
X46711544Y-91313216D01*
X46810147Y-91165646D01*
X46935646Y-91040147D01*
X47083216Y-90941544D01*
X47247188Y-90873624D01*
X47396488Y-90843927D01*
X47421258Y-90839000D01*
X47598742Y-90839000D01*
X47623512Y-90843927D01*
G37*
G36*
X45083512Y-90843927D02*
G01*
X45232812Y-90873624D01*
X45396784Y-90941544D01*
X45544354Y-91040147D01*
X45669853Y-91165646D01*
X45768456Y-91313216D01*
X45836376Y-91477188D01*
X45871000Y-91651259D01*
X45871000Y-91828741D01*
X45836376Y-92002812D01*
X45768456Y-92166784D01*
X45669853Y-92314354D01*
X45544354Y-92439853D01*
X45396784Y-92538456D01*
X45232812Y-92606376D01*
X45083512Y-92636073D01*
X45058742Y-92641000D01*
X44881258Y-92641000D01*
X44856488Y-92636073D01*
X44707188Y-92606376D01*
X44543216Y-92538456D01*
X44395646Y-92439853D01*
X44270147Y-92314354D01*
X44171544Y-92166784D01*
X44103624Y-92002812D01*
X44069000Y-91828741D01*
X44069000Y-91651259D01*
X44103624Y-91477188D01*
X44171544Y-91313216D01*
X44270147Y-91165646D01*
X44395646Y-91040147D01*
X44543216Y-90941544D01*
X44707188Y-90873624D01*
X44856488Y-90843927D01*
X44881258Y-90839000D01*
X45058742Y-90839000D01*
X45083512Y-90843927D01*
G37*
G36*
X115883512Y-90843927D02*
G01*
X116032812Y-90873624D01*
X116196784Y-90941544D01*
X116344354Y-91040147D01*
X116469853Y-91165646D01*
X116568456Y-91313216D01*
X116636376Y-91477188D01*
X116671000Y-91651259D01*
X116671000Y-91828741D01*
X116636376Y-92002812D01*
X116568456Y-92166784D01*
X116469853Y-92314354D01*
X116344354Y-92439853D01*
X116196784Y-92538456D01*
X116032812Y-92606376D01*
X115883512Y-92636073D01*
X115858742Y-92641000D01*
X115681258Y-92641000D01*
X115656488Y-92636073D01*
X115507188Y-92606376D01*
X115343216Y-92538456D01*
X115195646Y-92439853D01*
X115070147Y-92314354D01*
X114971544Y-92166784D01*
X114903624Y-92002812D01*
X114869000Y-91828741D01*
X114869000Y-91651259D01*
X114903624Y-91477188D01*
X114971544Y-91313216D01*
X115070147Y-91165646D01*
X115195646Y-91040147D01*
X115343216Y-90941544D01*
X115507188Y-90873624D01*
X115656488Y-90843927D01*
X115681258Y-90839000D01*
X115858742Y-90839000D01*
X115883512Y-90843927D01*
G37*
G36*
X57623512Y-90843927D02*
G01*
X57772812Y-90873624D01*
X57936784Y-90941544D01*
X58084354Y-91040147D01*
X58209853Y-91165646D01*
X58308456Y-91313216D01*
X58376376Y-91477188D01*
X58411000Y-91651259D01*
X58411000Y-91828741D01*
X58376376Y-92002812D01*
X58308456Y-92166784D01*
X58209853Y-92314354D01*
X58084354Y-92439853D01*
X57936784Y-92538456D01*
X57772812Y-92606376D01*
X57623512Y-92636073D01*
X57598742Y-92641000D01*
X57421258Y-92641000D01*
X57396488Y-92636073D01*
X57247188Y-92606376D01*
X57083216Y-92538456D01*
X56935646Y-92439853D01*
X56810147Y-92314354D01*
X56711544Y-92166784D01*
X56643624Y-92002812D01*
X56609000Y-91828741D01*
X56609000Y-91651259D01*
X56643624Y-91477188D01*
X56711544Y-91313216D01*
X56810147Y-91165646D01*
X56935646Y-91040147D01*
X57083216Y-90941544D01*
X57247188Y-90873624D01*
X57396488Y-90843927D01*
X57421258Y-90839000D01*
X57598742Y-90839000D01*
X57623512Y-90843927D01*
G37*
G36*
X103343512Y-90843927D02*
G01*
X103492812Y-90873624D01*
X103656784Y-90941544D01*
X103804354Y-91040147D01*
X103929853Y-91165646D01*
X104028456Y-91313216D01*
X104096376Y-91477188D01*
X104131000Y-91651259D01*
X104131000Y-91828741D01*
X104096376Y-92002812D01*
X104028456Y-92166784D01*
X103929853Y-92314354D01*
X103804354Y-92439853D01*
X103656784Y-92538456D01*
X103492812Y-92606376D01*
X103343512Y-92636073D01*
X103318742Y-92641000D01*
X103141258Y-92641000D01*
X103116488Y-92636073D01*
X102967188Y-92606376D01*
X102803216Y-92538456D01*
X102655646Y-92439853D01*
X102530147Y-92314354D01*
X102431544Y-92166784D01*
X102363624Y-92002812D01*
X102329000Y-91828741D01*
X102329000Y-91651259D01*
X102363624Y-91477188D01*
X102431544Y-91313216D01*
X102530147Y-91165646D01*
X102655646Y-91040147D01*
X102803216Y-90941544D01*
X102967188Y-90873624D01*
X103116488Y-90843927D01*
X103141258Y-90839000D01*
X103318742Y-90839000D01*
X103343512Y-90843927D01*
G37*
G36*
X113343512Y-90843927D02*
G01*
X113492812Y-90873624D01*
X113656784Y-90941544D01*
X113804354Y-91040147D01*
X113929853Y-91165646D01*
X114028456Y-91313216D01*
X114096376Y-91477188D01*
X114131000Y-91651259D01*
X114131000Y-91828741D01*
X114096376Y-92002812D01*
X114028456Y-92166784D01*
X113929853Y-92314354D01*
X113804354Y-92439853D01*
X113656784Y-92538456D01*
X113492812Y-92606376D01*
X113343512Y-92636073D01*
X113318742Y-92641000D01*
X113141258Y-92641000D01*
X113116488Y-92636073D01*
X112967188Y-92606376D01*
X112803216Y-92538456D01*
X112655646Y-92439853D01*
X112530147Y-92314354D01*
X112431544Y-92166784D01*
X112363624Y-92002812D01*
X112329000Y-91828741D01*
X112329000Y-91651259D01*
X112363624Y-91477188D01*
X112431544Y-91313216D01*
X112530147Y-91165646D01*
X112655646Y-91040147D01*
X112803216Y-90941544D01*
X112967188Y-90873624D01*
X113116488Y-90843927D01*
X113141258Y-90839000D01*
X113318742Y-90839000D01*
X113343512Y-90843927D01*
G37*
G36*
X45083512Y-88303927D02*
G01*
X45232812Y-88333624D01*
X45396784Y-88401544D01*
X45544354Y-88500147D01*
X45669853Y-88625646D01*
X45768456Y-88773216D01*
X45836376Y-88937188D01*
X45871000Y-89111259D01*
X45871000Y-89288741D01*
X45836376Y-89462812D01*
X45768456Y-89626784D01*
X45669853Y-89774354D01*
X45544354Y-89899853D01*
X45396784Y-89998456D01*
X45232812Y-90066376D01*
X45083512Y-90096073D01*
X45058742Y-90101000D01*
X44881258Y-90101000D01*
X44856488Y-90096073D01*
X44707188Y-90066376D01*
X44543216Y-89998456D01*
X44395646Y-89899853D01*
X44270147Y-89774354D01*
X44171544Y-89626784D01*
X44103624Y-89462812D01*
X44069000Y-89288741D01*
X44069000Y-89111259D01*
X44103624Y-88937188D01*
X44171544Y-88773216D01*
X44270147Y-88625646D01*
X44395646Y-88500147D01*
X44543216Y-88401544D01*
X44707188Y-88333624D01*
X44856488Y-88303927D01*
X44881258Y-88299000D01*
X45058742Y-88299000D01*
X45083512Y-88303927D01*
G37*
G36*
X103343512Y-88303927D02*
G01*
X103492812Y-88333624D01*
X103656784Y-88401544D01*
X103804354Y-88500147D01*
X103929853Y-88625646D01*
X104028456Y-88773216D01*
X104096376Y-88937188D01*
X104131000Y-89111259D01*
X104131000Y-89288741D01*
X104096376Y-89462812D01*
X104028456Y-89626784D01*
X103929853Y-89774354D01*
X103804354Y-89899853D01*
X103656784Y-89998456D01*
X103492812Y-90066376D01*
X103343512Y-90096073D01*
X103318742Y-90101000D01*
X103141258Y-90101000D01*
X103116488Y-90096073D01*
X102967188Y-90066376D01*
X102803216Y-89998456D01*
X102655646Y-89899853D01*
X102530147Y-89774354D01*
X102431544Y-89626784D01*
X102363624Y-89462812D01*
X102329000Y-89288741D01*
X102329000Y-89111259D01*
X102363624Y-88937188D01*
X102431544Y-88773216D01*
X102530147Y-88625646D01*
X102655646Y-88500147D01*
X102803216Y-88401544D01*
X102967188Y-88333624D01*
X103116488Y-88303927D01*
X103141258Y-88299000D01*
X103318742Y-88299000D01*
X103343512Y-88303927D01*
G37*
G36*
X47623512Y-88303927D02*
G01*
X47772812Y-88333624D01*
X47936784Y-88401544D01*
X48084354Y-88500147D01*
X48209853Y-88625646D01*
X48308456Y-88773216D01*
X48376376Y-88937188D01*
X48411000Y-89111259D01*
X48411000Y-89288741D01*
X48376376Y-89462812D01*
X48308456Y-89626784D01*
X48209853Y-89774354D01*
X48084354Y-89899853D01*
X47936784Y-89998456D01*
X47772812Y-90066376D01*
X47623512Y-90096073D01*
X47598742Y-90101000D01*
X47421258Y-90101000D01*
X47396488Y-90096073D01*
X47247188Y-90066376D01*
X47083216Y-89998456D01*
X46935646Y-89899853D01*
X46810147Y-89774354D01*
X46711544Y-89626784D01*
X46643624Y-89462812D01*
X46609000Y-89288741D01*
X46609000Y-89111259D01*
X46643624Y-88937188D01*
X46711544Y-88773216D01*
X46810147Y-88625646D01*
X46935646Y-88500147D01*
X47083216Y-88401544D01*
X47247188Y-88333624D01*
X47396488Y-88303927D01*
X47421258Y-88299000D01*
X47598742Y-88299000D01*
X47623512Y-88303927D01*
G37*
G36*
X115883512Y-88303927D02*
G01*
X116032812Y-88333624D01*
X116196784Y-88401544D01*
X116344354Y-88500147D01*
X116469853Y-88625646D01*
X116568456Y-88773216D01*
X116636376Y-88937188D01*
X116671000Y-89111259D01*
X116671000Y-89288741D01*
X116636376Y-89462812D01*
X116568456Y-89626784D01*
X116469853Y-89774354D01*
X116344354Y-89899853D01*
X116196784Y-89998456D01*
X116032812Y-90066376D01*
X115883512Y-90096073D01*
X115858742Y-90101000D01*
X115681258Y-90101000D01*
X115656488Y-90096073D01*
X115507188Y-90066376D01*
X115343216Y-89998456D01*
X115195646Y-89899853D01*
X115070147Y-89774354D01*
X114971544Y-89626784D01*
X114903624Y-89462812D01*
X114869000Y-89288741D01*
X114869000Y-89111259D01*
X114903624Y-88937188D01*
X114971544Y-88773216D01*
X115070147Y-88625646D01*
X115195646Y-88500147D01*
X115343216Y-88401544D01*
X115507188Y-88333624D01*
X115656488Y-88303927D01*
X115681258Y-88299000D01*
X115858742Y-88299000D01*
X115883512Y-88303927D01*
G37*
G36*
X57623512Y-88303927D02*
G01*
X57772812Y-88333624D01*
X57936784Y-88401544D01*
X58084354Y-88500147D01*
X58209853Y-88625646D01*
X58308456Y-88773216D01*
X58376376Y-88937188D01*
X58411000Y-89111259D01*
X58411000Y-89288741D01*
X58376376Y-89462812D01*
X58308456Y-89626784D01*
X58209853Y-89774354D01*
X58084354Y-89899853D01*
X57936784Y-89998456D01*
X57772812Y-90066376D01*
X57623512Y-90096073D01*
X57598742Y-90101000D01*
X57421258Y-90101000D01*
X57396488Y-90096073D01*
X57247188Y-90066376D01*
X57083216Y-89998456D01*
X56935646Y-89899853D01*
X56810147Y-89774354D01*
X56711544Y-89626784D01*
X56643624Y-89462812D01*
X56609000Y-89288741D01*
X56609000Y-89111259D01*
X56643624Y-88937188D01*
X56711544Y-88773216D01*
X56810147Y-88625646D01*
X56935646Y-88500147D01*
X57083216Y-88401544D01*
X57247188Y-88333624D01*
X57396488Y-88303927D01*
X57421258Y-88299000D01*
X57598742Y-88299000D01*
X57623512Y-88303927D01*
G37*
G36*
X113343512Y-88303927D02*
G01*
X113492812Y-88333624D01*
X113656784Y-88401544D01*
X113804354Y-88500147D01*
X113929853Y-88625646D01*
X114028456Y-88773216D01*
X114096376Y-88937188D01*
X114131000Y-89111259D01*
X114131000Y-89288741D01*
X114096376Y-89462812D01*
X114028456Y-89626784D01*
X113929853Y-89774354D01*
X113804354Y-89899853D01*
X113656784Y-89998456D01*
X113492812Y-90066376D01*
X113343512Y-90096073D01*
X113318742Y-90101000D01*
X113141258Y-90101000D01*
X113116488Y-90096073D01*
X112967188Y-90066376D01*
X112803216Y-89998456D01*
X112655646Y-89899853D01*
X112530147Y-89774354D01*
X112431544Y-89626784D01*
X112363624Y-89462812D01*
X112329000Y-89288741D01*
X112329000Y-89111259D01*
X112363624Y-88937188D01*
X112431544Y-88773216D01*
X112530147Y-88625646D01*
X112655646Y-88500147D01*
X112803216Y-88401544D01*
X112967188Y-88333624D01*
X113116488Y-88303927D01*
X113141258Y-88299000D01*
X113318742Y-88299000D01*
X113343512Y-88303927D01*
G37*
G36*
X45083512Y-85763927D02*
G01*
X45232812Y-85793624D01*
X45396784Y-85861544D01*
X45544354Y-85960147D01*
X45669853Y-86085646D01*
X45768456Y-86233216D01*
X45836376Y-86397188D01*
X45871000Y-86571259D01*
X45871000Y-86748741D01*
X45836376Y-86922812D01*
X45768456Y-87086784D01*
X45669853Y-87234354D01*
X45544354Y-87359853D01*
X45396784Y-87458456D01*
X45232812Y-87526376D01*
X45083512Y-87556073D01*
X45058742Y-87561000D01*
X44881258Y-87561000D01*
X44856488Y-87556073D01*
X44707188Y-87526376D01*
X44543216Y-87458456D01*
X44395646Y-87359853D01*
X44270147Y-87234354D01*
X44171544Y-87086784D01*
X44103624Y-86922812D01*
X44069000Y-86748741D01*
X44069000Y-86571259D01*
X44103624Y-86397188D01*
X44171544Y-86233216D01*
X44270147Y-86085646D01*
X44395646Y-85960147D01*
X44543216Y-85861544D01*
X44707188Y-85793624D01*
X44856488Y-85763927D01*
X44881258Y-85759000D01*
X45058742Y-85759000D01*
X45083512Y-85763927D01*
G37*
G36*
X47623512Y-85763927D02*
G01*
X47772812Y-85793624D01*
X47936784Y-85861544D01*
X48084354Y-85960147D01*
X48209853Y-86085646D01*
X48308456Y-86233216D01*
X48376376Y-86397188D01*
X48411000Y-86571259D01*
X48411000Y-86748741D01*
X48376376Y-86922812D01*
X48308456Y-87086784D01*
X48209853Y-87234354D01*
X48084354Y-87359853D01*
X47936784Y-87458456D01*
X47772812Y-87526376D01*
X47623512Y-87556073D01*
X47598742Y-87561000D01*
X47421258Y-87561000D01*
X47396488Y-87556073D01*
X47247188Y-87526376D01*
X47083216Y-87458456D01*
X46935646Y-87359853D01*
X46810147Y-87234354D01*
X46711544Y-87086784D01*
X46643624Y-86922812D01*
X46609000Y-86748741D01*
X46609000Y-86571259D01*
X46643624Y-86397188D01*
X46711544Y-86233216D01*
X46810147Y-86085646D01*
X46935646Y-85960147D01*
X47083216Y-85861544D01*
X47247188Y-85793624D01*
X47396488Y-85763927D01*
X47421258Y-85759000D01*
X47598742Y-85759000D01*
X47623512Y-85763927D01*
G37*
G36*
X113343512Y-85763927D02*
G01*
X113492812Y-85793624D01*
X113656784Y-85861544D01*
X113804354Y-85960147D01*
X113929853Y-86085646D01*
X114028456Y-86233216D01*
X114096376Y-86397188D01*
X114131000Y-86571259D01*
X114131000Y-86748741D01*
X114096376Y-86922812D01*
X114028456Y-87086784D01*
X113929853Y-87234354D01*
X113804354Y-87359853D01*
X113656784Y-87458456D01*
X113492812Y-87526376D01*
X113343512Y-87556073D01*
X113318742Y-87561000D01*
X113141258Y-87561000D01*
X113116488Y-87556073D01*
X112967188Y-87526376D01*
X112803216Y-87458456D01*
X112655646Y-87359853D01*
X112530147Y-87234354D01*
X112431544Y-87086784D01*
X112363624Y-86922812D01*
X112329000Y-86748741D01*
X112329000Y-86571259D01*
X112363624Y-86397188D01*
X112431544Y-86233216D01*
X112530147Y-86085646D01*
X112655646Y-85960147D01*
X112803216Y-85861544D01*
X112967188Y-85793624D01*
X113116488Y-85763927D01*
X113141258Y-85759000D01*
X113318742Y-85759000D01*
X113343512Y-85763927D01*
G37*
G36*
X57623512Y-85763927D02*
G01*
X57772812Y-85793624D01*
X57936784Y-85861544D01*
X58084354Y-85960147D01*
X58209853Y-86085646D01*
X58308456Y-86233216D01*
X58376376Y-86397188D01*
X58411000Y-86571259D01*
X58411000Y-86748741D01*
X58376376Y-86922812D01*
X58308456Y-87086784D01*
X58209853Y-87234354D01*
X58084354Y-87359853D01*
X57936784Y-87458456D01*
X57772812Y-87526376D01*
X57623512Y-87556073D01*
X57598742Y-87561000D01*
X57421258Y-87561000D01*
X57396488Y-87556073D01*
X57247188Y-87526376D01*
X57083216Y-87458456D01*
X56935646Y-87359853D01*
X56810147Y-87234354D01*
X56711544Y-87086784D01*
X56643624Y-86922812D01*
X56609000Y-86748741D01*
X56609000Y-86571259D01*
X56643624Y-86397188D01*
X56711544Y-86233216D01*
X56810147Y-86085646D01*
X56935646Y-85960147D01*
X57083216Y-85861544D01*
X57247188Y-85793624D01*
X57396488Y-85763927D01*
X57421258Y-85759000D01*
X57598742Y-85759000D01*
X57623512Y-85763927D01*
G37*
G36*
X115883512Y-85763927D02*
G01*
X116032812Y-85793624D01*
X116196784Y-85861544D01*
X116344354Y-85960147D01*
X116469853Y-86085646D01*
X116568456Y-86233216D01*
X116636376Y-86397188D01*
X116671000Y-86571259D01*
X116671000Y-86748741D01*
X116636376Y-86922812D01*
X116568456Y-87086784D01*
X116469853Y-87234354D01*
X116344354Y-87359853D01*
X116196784Y-87458456D01*
X116032812Y-87526376D01*
X115883512Y-87556073D01*
X115858742Y-87561000D01*
X115681258Y-87561000D01*
X115656488Y-87556073D01*
X115507188Y-87526376D01*
X115343216Y-87458456D01*
X115195646Y-87359853D01*
X115070147Y-87234354D01*
X114971544Y-87086784D01*
X114903624Y-86922812D01*
X114869000Y-86748741D01*
X114869000Y-86571259D01*
X114903624Y-86397188D01*
X114971544Y-86233216D01*
X115070147Y-86085646D01*
X115195646Y-85960147D01*
X115343216Y-85861544D01*
X115507188Y-85793624D01*
X115656488Y-85763927D01*
X115681258Y-85759000D01*
X115858742Y-85759000D01*
X115883512Y-85763927D01*
G37*
G36*
X103343512Y-85763927D02*
G01*
X103492812Y-85793624D01*
X103656784Y-85861544D01*
X103804354Y-85960147D01*
X103929853Y-86085646D01*
X104028456Y-86233216D01*
X104096376Y-86397188D01*
X104131000Y-86571259D01*
X104131000Y-86748741D01*
X104096376Y-86922812D01*
X104028456Y-87086784D01*
X103929853Y-87234354D01*
X103804354Y-87359853D01*
X103656784Y-87458456D01*
X103492812Y-87526376D01*
X103343512Y-87556073D01*
X103318742Y-87561000D01*
X103141258Y-87561000D01*
X103116488Y-87556073D01*
X102967188Y-87526376D01*
X102803216Y-87458456D01*
X102655646Y-87359853D01*
X102530147Y-87234354D01*
X102431544Y-87086784D01*
X102363624Y-86922812D01*
X102329000Y-86748741D01*
X102329000Y-86571259D01*
X102363624Y-86397188D01*
X102431544Y-86233216D01*
X102530147Y-86085646D01*
X102655646Y-85960147D01*
X102803216Y-85861544D01*
X102967188Y-85793624D01*
X103116488Y-85763927D01*
X103141258Y-85759000D01*
X103318742Y-85759000D01*
X103343512Y-85763927D01*
G37*
G36*
X103343512Y-83223927D02*
G01*
X103492812Y-83253624D01*
X103656784Y-83321544D01*
X103804354Y-83420147D01*
X103929853Y-83545646D01*
X104028456Y-83693216D01*
X104096376Y-83857188D01*
X104131000Y-84031259D01*
X104131000Y-84208741D01*
X104096376Y-84382812D01*
X104028456Y-84546784D01*
X103929853Y-84694354D01*
X103804354Y-84819853D01*
X103656784Y-84918456D01*
X103492812Y-84986376D01*
X103343512Y-85016073D01*
X103318742Y-85021000D01*
X103141258Y-85021000D01*
X103116488Y-85016073D01*
X102967188Y-84986376D01*
X102803216Y-84918456D01*
X102655646Y-84819853D01*
X102530147Y-84694354D01*
X102431544Y-84546784D01*
X102363624Y-84382812D01*
X102329000Y-84208741D01*
X102329000Y-84031259D01*
X102363624Y-83857188D01*
X102431544Y-83693216D01*
X102530147Y-83545646D01*
X102655646Y-83420147D01*
X102803216Y-83321544D01*
X102967188Y-83253624D01*
X103116488Y-83223927D01*
X103141258Y-83219000D01*
X103318742Y-83219000D01*
X103343512Y-83223927D01*
G37*
G36*
X115883512Y-83223927D02*
G01*
X116032812Y-83253624D01*
X116196784Y-83321544D01*
X116344354Y-83420147D01*
X116469853Y-83545646D01*
X116568456Y-83693216D01*
X116636376Y-83857188D01*
X116671000Y-84031259D01*
X116671000Y-84208741D01*
X116636376Y-84382812D01*
X116568456Y-84546784D01*
X116469853Y-84694354D01*
X116344354Y-84819853D01*
X116196784Y-84918456D01*
X116032812Y-84986376D01*
X115883512Y-85016073D01*
X115858742Y-85021000D01*
X115681258Y-85021000D01*
X115656488Y-85016073D01*
X115507188Y-84986376D01*
X115343216Y-84918456D01*
X115195646Y-84819853D01*
X115070147Y-84694354D01*
X114971544Y-84546784D01*
X114903624Y-84382812D01*
X114869000Y-84208741D01*
X114869000Y-84031259D01*
X114903624Y-83857188D01*
X114971544Y-83693216D01*
X115070147Y-83545646D01*
X115195646Y-83420147D01*
X115343216Y-83321544D01*
X115507188Y-83253624D01*
X115656488Y-83223927D01*
X115681258Y-83219000D01*
X115858742Y-83219000D01*
X115883512Y-83223927D01*
G37*
G36*
X113343512Y-83223927D02*
G01*
X113492812Y-83253624D01*
X113656784Y-83321544D01*
X113804354Y-83420147D01*
X113929853Y-83545646D01*
X114028456Y-83693216D01*
X114096376Y-83857188D01*
X114131000Y-84031259D01*
X114131000Y-84208741D01*
X114096376Y-84382812D01*
X114028456Y-84546784D01*
X113929853Y-84694354D01*
X113804354Y-84819853D01*
X113656784Y-84918456D01*
X113492812Y-84986376D01*
X113343512Y-85016073D01*
X113318742Y-85021000D01*
X113141258Y-85021000D01*
X113116488Y-85016073D01*
X112967188Y-84986376D01*
X112803216Y-84918456D01*
X112655646Y-84819853D01*
X112530147Y-84694354D01*
X112431544Y-84546784D01*
X112363624Y-84382812D01*
X112329000Y-84208741D01*
X112329000Y-84031259D01*
X112363624Y-83857188D01*
X112431544Y-83693216D01*
X112530147Y-83545646D01*
X112655646Y-83420147D01*
X112803216Y-83321544D01*
X112967188Y-83253624D01*
X113116488Y-83223927D01*
X113141258Y-83219000D01*
X113318742Y-83219000D01*
X113343512Y-83223927D01*
G37*
G36*
X57623512Y-83223927D02*
G01*
X57772812Y-83253624D01*
X57936784Y-83321544D01*
X58084354Y-83420147D01*
X58209853Y-83545646D01*
X58308456Y-83693216D01*
X58376376Y-83857188D01*
X58411000Y-84031259D01*
X58411000Y-84208741D01*
X58376376Y-84382812D01*
X58308456Y-84546784D01*
X58209853Y-84694354D01*
X58084354Y-84819853D01*
X57936784Y-84918456D01*
X57772812Y-84986376D01*
X57623512Y-85016073D01*
X57598742Y-85021000D01*
X57421258Y-85021000D01*
X57396488Y-85016073D01*
X57247188Y-84986376D01*
X57083216Y-84918456D01*
X56935646Y-84819853D01*
X56810147Y-84694354D01*
X56711544Y-84546784D01*
X56643624Y-84382812D01*
X56609000Y-84208741D01*
X56609000Y-84031259D01*
X56643624Y-83857188D01*
X56711544Y-83693216D01*
X56810147Y-83545646D01*
X56935646Y-83420147D01*
X57083216Y-83321544D01*
X57247188Y-83253624D01*
X57396488Y-83223927D01*
X57421258Y-83219000D01*
X57598742Y-83219000D01*
X57623512Y-83223927D01*
G37*
G36*
X47623512Y-83223927D02*
G01*
X47772812Y-83253624D01*
X47936784Y-83321544D01*
X48084354Y-83420147D01*
X48209853Y-83545646D01*
X48308456Y-83693216D01*
X48376376Y-83857188D01*
X48411000Y-84031259D01*
X48411000Y-84208741D01*
X48376376Y-84382812D01*
X48308456Y-84546784D01*
X48209853Y-84694354D01*
X48084354Y-84819853D01*
X47936784Y-84918456D01*
X47772812Y-84986376D01*
X47623512Y-85016073D01*
X47598742Y-85021000D01*
X47421258Y-85021000D01*
X47396488Y-85016073D01*
X47247188Y-84986376D01*
X47083216Y-84918456D01*
X46935646Y-84819853D01*
X46810147Y-84694354D01*
X46711544Y-84546784D01*
X46643624Y-84382812D01*
X46609000Y-84208741D01*
X46609000Y-84031259D01*
X46643624Y-83857188D01*
X46711544Y-83693216D01*
X46810147Y-83545646D01*
X46935646Y-83420147D01*
X47083216Y-83321544D01*
X47247188Y-83253624D01*
X47396488Y-83223927D01*
X47421258Y-83219000D01*
X47598742Y-83219000D01*
X47623512Y-83223927D01*
G37*
G36*
X45083512Y-83223927D02*
G01*
X45232812Y-83253624D01*
X45396784Y-83321544D01*
X45544354Y-83420147D01*
X45669853Y-83545646D01*
X45768456Y-83693216D01*
X45836376Y-83857188D01*
X45871000Y-84031259D01*
X45871000Y-84208741D01*
X45836376Y-84382812D01*
X45768456Y-84546784D01*
X45669853Y-84694354D01*
X45544354Y-84819853D01*
X45396784Y-84918456D01*
X45232812Y-84986376D01*
X45083512Y-85016073D01*
X45058742Y-85021000D01*
X44881258Y-85021000D01*
X44856488Y-85016073D01*
X44707188Y-84986376D01*
X44543216Y-84918456D01*
X44395646Y-84819853D01*
X44270147Y-84694354D01*
X44171544Y-84546784D01*
X44103624Y-84382812D01*
X44069000Y-84208741D01*
X44069000Y-84031259D01*
X44103624Y-83857188D01*
X44171544Y-83693216D01*
X44270147Y-83545646D01*
X44395646Y-83420147D01*
X44543216Y-83321544D01*
X44707188Y-83253624D01*
X44856488Y-83223927D01*
X44881258Y-83219000D01*
X45058742Y-83219000D01*
X45083512Y-83223927D01*
G37*
G36*
X115883512Y-80683927D02*
G01*
X116032812Y-80713624D01*
X116196784Y-80781544D01*
X116344354Y-80880147D01*
X116469853Y-81005646D01*
X116568456Y-81153216D01*
X116636376Y-81317188D01*
X116671000Y-81491259D01*
X116671000Y-81668741D01*
X116636376Y-81842812D01*
X116568456Y-82006784D01*
X116469853Y-82154354D01*
X116344354Y-82279853D01*
X116196784Y-82378456D01*
X116032812Y-82446376D01*
X115883512Y-82476073D01*
X115858742Y-82481000D01*
X115681258Y-82481000D01*
X115656488Y-82476073D01*
X115507188Y-82446376D01*
X115343216Y-82378456D01*
X115195646Y-82279853D01*
X115070147Y-82154354D01*
X114971544Y-82006784D01*
X114903624Y-81842812D01*
X114869000Y-81668741D01*
X114869000Y-81491259D01*
X114903624Y-81317188D01*
X114971544Y-81153216D01*
X115070147Y-81005646D01*
X115195646Y-80880147D01*
X115343216Y-80781544D01*
X115507188Y-80713624D01*
X115656488Y-80683927D01*
X115681258Y-80679000D01*
X115858742Y-80679000D01*
X115883512Y-80683927D01*
G37*
G36*
X113343512Y-80683927D02*
G01*
X113492812Y-80713624D01*
X113656784Y-80781544D01*
X113804354Y-80880147D01*
X113929853Y-81005646D01*
X114028456Y-81153216D01*
X114096376Y-81317188D01*
X114131000Y-81491259D01*
X114131000Y-81668741D01*
X114096376Y-81842812D01*
X114028456Y-82006784D01*
X113929853Y-82154354D01*
X113804354Y-82279853D01*
X113656784Y-82378456D01*
X113492812Y-82446376D01*
X113343512Y-82476073D01*
X113318742Y-82481000D01*
X113141258Y-82481000D01*
X113116488Y-82476073D01*
X112967188Y-82446376D01*
X112803216Y-82378456D01*
X112655646Y-82279853D01*
X112530147Y-82154354D01*
X112431544Y-82006784D01*
X112363624Y-81842812D01*
X112329000Y-81668741D01*
X112329000Y-81491259D01*
X112363624Y-81317188D01*
X112431544Y-81153216D01*
X112530147Y-81005646D01*
X112655646Y-80880147D01*
X112803216Y-80781544D01*
X112967188Y-80713624D01*
X113116488Y-80683927D01*
X113141258Y-80679000D01*
X113318742Y-80679000D01*
X113343512Y-80683927D01*
G37*
G36*
X45083512Y-80683927D02*
G01*
X45232812Y-80713624D01*
X45396784Y-80781544D01*
X45544354Y-80880147D01*
X45669853Y-81005646D01*
X45768456Y-81153216D01*
X45836376Y-81317188D01*
X45871000Y-81491259D01*
X45871000Y-81668741D01*
X45836376Y-81842812D01*
X45768456Y-82006784D01*
X45669853Y-82154354D01*
X45544354Y-82279853D01*
X45396784Y-82378456D01*
X45232812Y-82446376D01*
X45083512Y-82476073D01*
X45058742Y-82481000D01*
X44881258Y-82481000D01*
X44856488Y-82476073D01*
X44707188Y-82446376D01*
X44543216Y-82378456D01*
X44395646Y-82279853D01*
X44270147Y-82154354D01*
X44171544Y-82006784D01*
X44103624Y-81842812D01*
X44069000Y-81668741D01*
X44069000Y-81491259D01*
X44103624Y-81317188D01*
X44171544Y-81153216D01*
X44270147Y-81005646D01*
X44395646Y-80880147D01*
X44543216Y-80781544D01*
X44707188Y-80713624D01*
X44856488Y-80683927D01*
X44881258Y-80679000D01*
X45058742Y-80679000D01*
X45083512Y-80683927D01*
G37*
G36*
X47623512Y-80683927D02*
G01*
X47772812Y-80713624D01*
X47936784Y-80781544D01*
X48084354Y-80880147D01*
X48209853Y-81005646D01*
X48308456Y-81153216D01*
X48376376Y-81317188D01*
X48411000Y-81491259D01*
X48411000Y-81668741D01*
X48376376Y-81842812D01*
X48308456Y-82006784D01*
X48209853Y-82154354D01*
X48084354Y-82279853D01*
X47936784Y-82378456D01*
X47772812Y-82446376D01*
X47623512Y-82476073D01*
X47598742Y-82481000D01*
X47421258Y-82481000D01*
X47396488Y-82476073D01*
X47247188Y-82446376D01*
X47083216Y-82378456D01*
X46935646Y-82279853D01*
X46810147Y-82154354D01*
X46711544Y-82006784D01*
X46643624Y-81842812D01*
X46609000Y-81668741D01*
X46609000Y-81491259D01*
X46643624Y-81317188D01*
X46711544Y-81153216D01*
X46810147Y-81005646D01*
X46935646Y-80880147D01*
X47083216Y-80781544D01*
X47247188Y-80713624D01*
X47396488Y-80683927D01*
X47421258Y-80679000D01*
X47598742Y-80679000D01*
X47623512Y-80683927D01*
G37*
G36*
X103343512Y-80683927D02*
G01*
X103492812Y-80713624D01*
X103656784Y-80781544D01*
X103804354Y-80880147D01*
X103929853Y-81005646D01*
X104028456Y-81153216D01*
X104096376Y-81317188D01*
X104131000Y-81491259D01*
X104131000Y-81668741D01*
X104096376Y-81842812D01*
X104028456Y-82006784D01*
X103929853Y-82154354D01*
X103804354Y-82279853D01*
X103656784Y-82378456D01*
X103492812Y-82446376D01*
X103343512Y-82476073D01*
X103318742Y-82481000D01*
X103141258Y-82481000D01*
X103116488Y-82476073D01*
X102967188Y-82446376D01*
X102803216Y-82378456D01*
X102655646Y-82279853D01*
X102530147Y-82154354D01*
X102431544Y-82006784D01*
X102363624Y-81842812D01*
X102329000Y-81668741D01*
X102329000Y-81491259D01*
X102363624Y-81317188D01*
X102431544Y-81153216D01*
X102530147Y-81005646D01*
X102655646Y-80880147D01*
X102803216Y-80781544D01*
X102967188Y-80713624D01*
X103116488Y-80683927D01*
X103141258Y-80679000D01*
X103318742Y-80679000D01*
X103343512Y-80683927D01*
G37*
G36*
X57623512Y-80683927D02*
G01*
X57772812Y-80713624D01*
X57936784Y-80781544D01*
X58084354Y-80880147D01*
X58209853Y-81005646D01*
X58308456Y-81153216D01*
X58376376Y-81317188D01*
X58411000Y-81491259D01*
X58411000Y-81668741D01*
X58376376Y-81842812D01*
X58308456Y-82006784D01*
X58209853Y-82154354D01*
X58084354Y-82279853D01*
X57936784Y-82378456D01*
X57772812Y-82446376D01*
X57623512Y-82476073D01*
X57598742Y-82481000D01*
X57421258Y-82481000D01*
X57396488Y-82476073D01*
X57247188Y-82446376D01*
X57083216Y-82378456D01*
X56935646Y-82279853D01*
X56810147Y-82154354D01*
X56711544Y-82006784D01*
X56643624Y-81842812D01*
X56609000Y-81668741D01*
X56609000Y-81491259D01*
X56643624Y-81317188D01*
X56711544Y-81153216D01*
X56810147Y-81005646D01*
X56935646Y-80880147D01*
X57083216Y-80781544D01*
X57247188Y-80713624D01*
X57396488Y-80683927D01*
X57421258Y-80679000D01*
X57598742Y-80679000D01*
X57623512Y-80683927D01*
G37*
G36*
X45083512Y-78143927D02*
G01*
X45232812Y-78173624D01*
X45396784Y-78241544D01*
X45544354Y-78340147D01*
X45669853Y-78465646D01*
X45768456Y-78613216D01*
X45836376Y-78777188D01*
X45871000Y-78951259D01*
X45871000Y-79128741D01*
X45836376Y-79302812D01*
X45768456Y-79466784D01*
X45669853Y-79614354D01*
X45544354Y-79739853D01*
X45396784Y-79838456D01*
X45232812Y-79906376D01*
X45083512Y-79936073D01*
X45058742Y-79941000D01*
X44881258Y-79941000D01*
X44856488Y-79936073D01*
X44707188Y-79906376D01*
X44543216Y-79838456D01*
X44395646Y-79739853D01*
X44270147Y-79614354D01*
X44171544Y-79466784D01*
X44103624Y-79302812D01*
X44069000Y-79128741D01*
X44069000Y-78951259D01*
X44103624Y-78777188D01*
X44171544Y-78613216D01*
X44270147Y-78465646D01*
X44395646Y-78340147D01*
X44543216Y-78241544D01*
X44707188Y-78173624D01*
X44856488Y-78143927D01*
X44881258Y-78139000D01*
X45058742Y-78139000D01*
X45083512Y-78143927D01*
G37*
G36*
X47623512Y-78143927D02*
G01*
X47772812Y-78173624D01*
X47936784Y-78241544D01*
X48084354Y-78340147D01*
X48209853Y-78465646D01*
X48308456Y-78613216D01*
X48376376Y-78777188D01*
X48411000Y-78951259D01*
X48411000Y-79128741D01*
X48376376Y-79302812D01*
X48308456Y-79466784D01*
X48209853Y-79614354D01*
X48084354Y-79739853D01*
X47936784Y-79838456D01*
X47772812Y-79906376D01*
X47623512Y-79936073D01*
X47598742Y-79941000D01*
X47421258Y-79941000D01*
X47396488Y-79936073D01*
X47247188Y-79906376D01*
X47083216Y-79838456D01*
X46935646Y-79739853D01*
X46810147Y-79614354D01*
X46711544Y-79466784D01*
X46643624Y-79302812D01*
X46609000Y-79128741D01*
X46609000Y-78951259D01*
X46643624Y-78777188D01*
X46711544Y-78613216D01*
X46810147Y-78465646D01*
X46935646Y-78340147D01*
X47083216Y-78241544D01*
X47247188Y-78173624D01*
X47396488Y-78143927D01*
X47421258Y-78139000D01*
X47598742Y-78139000D01*
X47623512Y-78143927D01*
G37*
G36*
X103343512Y-78143927D02*
G01*
X103492812Y-78173624D01*
X103656784Y-78241544D01*
X103804354Y-78340147D01*
X103929853Y-78465646D01*
X104028456Y-78613216D01*
X104096376Y-78777188D01*
X104131000Y-78951259D01*
X104131000Y-79128741D01*
X104096376Y-79302812D01*
X104028456Y-79466784D01*
X103929853Y-79614354D01*
X103804354Y-79739853D01*
X103656784Y-79838456D01*
X103492812Y-79906376D01*
X103343512Y-79936073D01*
X103318742Y-79941000D01*
X103141258Y-79941000D01*
X103116488Y-79936073D01*
X102967188Y-79906376D01*
X102803216Y-79838456D01*
X102655646Y-79739853D01*
X102530147Y-79614354D01*
X102431544Y-79466784D01*
X102363624Y-79302812D01*
X102329000Y-79128741D01*
X102329000Y-78951259D01*
X102363624Y-78777188D01*
X102431544Y-78613216D01*
X102530147Y-78465646D01*
X102655646Y-78340147D01*
X102803216Y-78241544D01*
X102967188Y-78173624D01*
X103116488Y-78143927D01*
X103141258Y-78139000D01*
X103318742Y-78139000D01*
X103343512Y-78143927D01*
G37*
G36*
X113343512Y-78143927D02*
G01*
X113492812Y-78173624D01*
X113656784Y-78241544D01*
X113804354Y-78340147D01*
X113929853Y-78465646D01*
X114028456Y-78613216D01*
X114096376Y-78777188D01*
X114131000Y-78951259D01*
X114131000Y-79128741D01*
X114096376Y-79302812D01*
X114028456Y-79466784D01*
X113929853Y-79614354D01*
X113804354Y-79739853D01*
X113656784Y-79838456D01*
X113492812Y-79906376D01*
X113343512Y-79936073D01*
X113318742Y-79941000D01*
X113141258Y-79941000D01*
X113116488Y-79936073D01*
X112967188Y-79906376D01*
X112803216Y-79838456D01*
X112655646Y-79739853D01*
X112530147Y-79614354D01*
X112431544Y-79466784D01*
X112363624Y-79302812D01*
X112329000Y-79128741D01*
X112329000Y-78951259D01*
X112363624Y-78777188D01*
X112431544Y-78613216D01*
X112530147Y-78465646D01*
X112655646Y-78340147D01*
X112803216Y-78241544D01*
X112967188Y-78173624D01*
X113116488Y-78143927D01*
X113141258Y-78139000D01*
X113318742Y-78139000D01*
X113343512Y-78143927D01*
G37*
G36*
X57623512Y-78143927D02*
G01*
X57772812Y-78173624D01*
X57936784Y-78241544D01*
X58084354Y-78340147D01*
X58209853Y-78465646D01*
X58308456Y-78613216D01*
X58376376Y-78777188D01*
X58411000Y-78951259D01*
X58411000Y-79128741D01*
X58376376Y-79302812D01*
X58308456Y-79466784D01*
X58209853Y-79614354D01*
X58084354Y-79739853D01*
X57936784Y-79838456D01*
X57772812Y-79906376D01*
X57623512Y-79936073D01*
X57598742Y-79941000D01*
X57421258Y-79941000D01*
X57396488Y-79936073D01*
X57247188Y-79906376D01*
X57083216Y-79838456D01*
X56935646Y-79739853D01*
X56810147Y-79614354D01*
X56711544Y-79466784D01*
X56643624Y-79302812D01*
X56609000Y-79128741D01*
X56609000Y-78951259D01*
X56643624Y-78777188D01*
X56711544Y-78613216D01*
X56810147Y-78465646D01*
X56935646Y-78340147D01*
X57083216Y-78241544D01*
X57247188Y-78173624D01*
X57396488Y-78143927D01*
X57421258Y-78139000D01*
X57598742Y-78139000D01*
X57623512Y-78143927D01*
G37*
G36*
X115883512Y-78143927D02*
G01*
X116032812Y-78173624D01*
X116196784Y-78241544D01*
X116344354Y-78340147D01*
X116469853Y-78465646D01*
X116568456Y-78613216D01*
X116636376Y-78777188D01*
X116671000Y-78951259D01*
X116671000Y-79128741D01*
X116636376Y-79302812D01*
X116568456Y-79466784D01*
X116469853Y-79614354D01*
X116344354Y-79739853D01*
X116196784Y-79838456D01*
X116032812Y-79906376D01*
X115883512Y-79936073D01*
X115858742Y-79941000D01*
X115681258Y-79941000D01*
X115656488Y-79936073D01*
X115507188Y-79906376D01*
X115343216Y-79838456D01*
X115195646Y-79739853D01*
X115070147Y-79614354D01*
X114971544Y-79466784D01*
X114903624Y-79302812D01*
X114869000Y-79128741D01*
X114869000Y-78951259D01*
X114903624Y-78777188D01*
X114971544Y-78613216D01*
X115070147Y-78465646D01*
X115195646Y-78340147D01*
X115343216Y-78241544D01*
X115507188Y-78173624D01*
X115656488Y-78143927D01*
X115681258Y-78139000D01*
X115858742Y-78139000D01*
X115883512Y-78143927D01*
G37*
G36*
X57623512Y-75603927D02*
G01*
X57772812Y-75633624D01*
X57936784Y-75701544D01*
X58084354Y-75800147D01*
X58209853Y-75925646D01*
X58308456Y-76073216D01*
X58376376Y-76237188D01*
X58411000Y-76411259D01*
X58411000Y-76588741D01*
X58376376Y-76762812D01*
X58308456Y-76926784D01*
X58209853Y-77074354D01*
X58084354Y-77199853D01*
X57936784Y-77298456D01*
X57772812Y-77366376D01*
X57623512Y-77396073D01*
X57598742Y-77401000D01*
X57421258Y-77401000D01*
X57396488Y-77396073D01*
X57247188Y-77366376D01*
X57083216Y-77298456D01*
X56935646Y-77199853D01*
X56810147Y-77074354D01*
X56711544Y-76926784D01*
X56643624Y-76762812D01*
X56609000Y-76588741D01*
X56609000Y-76411259D01*
X56643624Y-76237188D01*
X56711544Y-76073216D01*
X56810147Y-75925646D01*
X56935646Y-75800147D01*
X57083216Y-75701544D01*
X57247188Y-75633624D01*
X57396488Y-75603927D01*
X57421258Y-75599000D01*
X57598742Y-75599000D01*
X57623512Y-75603927D01*
G37*
G36*
X115883512Y-75603927D02*
G01*
X116032812Y-75633624D01*
X116196784Y-75701544D01*
X116344354Y-75800147D01*
X116469853Y-75925646D01*
X116568456Y-76073216D01*
X116636376Y-76237188D01*
X116671000Y-76411259D01*
X116671000Y-76588741D01*
X116636376Y-76762812D01*
X116568456Y-76926784D01*
X116469853Y-77074354D01*
X116344354Y-77199853D01*
X116196784Y-77298456D01*
X116032812Y-77366376D01*
X115883512Y-77396073D01*
X115858742Y-77401000D01*
X115681258Y-77401000D01*
X115656488Y-77396073D01*
X115507188Y-77366376D01*
X115343216Y-77298456D01*
X115195646Y-77199853D01*
X115070147Y-77074354D01*
X114971544Y-76926784D01*
X114903624Y-76762812D01*
X114869000Y-76588741D01*
X114869000Y-76411259D01*
X114903624Y-76237188D01*
X114971544Y-76073216D01*
X115070147Y-75925646D01*
X115195646Y-75800147D01*
X115343216Y-75701544D01*
X115507188Y-75633624D01*
X115656488Y-75603927D01*
X115681258Y-75599000D01*
X115858742Y-75599000D01*
X115883512Y-75603927D01*
G37*
G36*
X113343512Y-75603927D02*
G01*
X113492812Y-75633624D01*
X113656784Y-75701544D01*
X113804354Y-75800147D01*
X113929853Y-75925646D01*
X114028456Y-76073216D01*
X114096376Y-76237188D01*
X114131000Y-76411259D01*
X114131000Y-76588741D01*
X114096376Y-76762812D01*
X114028456Y-76926784D01*
X113929853Y-77074354D01*
X113804354Y-77199853D01*
X113656784Y-77298456D01*
X113492812Y-77366376D01*
X113343512Y-77396073D01*
X113318742Y-77401000D01*
X113141258Y-77401000D01*
X113116488Y-77396073D01*
X112967188Y-77366376D01*
X112803216Y-77298456D01*
X112655646Y-77199853D01*
X112530147Y-77074354D01*
X112431544Y-76926784D01*
X112363624Y-76762812D01*
X112329000Y-76588741D01*
X112329000Y-76411259D01*
X112363624Y-76237188D01*
X112431544Y-76073216D01*
X112530147Y-75925646D01*
X112655646Y-75800147D01*
X112803216Y-75701544D01*
X112967188Y-75633624D01*
X113116488Y-75603927D01*
X113141258Y-75599000D01*
X113318742Y-75599000D01*
X113343512Y-75603927D01*
G37*
G36*
X47623512Y-75603927D02*
G01*
X47772812Y-75633624D01*
X47936784Y-75701544D01*
X48084354Y-75800147D01*
X48209853Y-75925646D01*
X48308456Y-76073216D01*
X48376376Y-76237188D01*
X48411000Y-76411259D01*
X48411000Y-76588741D01*
X48376376Y-76762812D01*
X48308456Y-76926784D01*
X48209853Y-77074354D01*
X48084354Y-77199853D01*
X47936784Y-77298456D01*
X47772812Y-77366376D01*
X47623512Y-77396073D01*
X47598742Y-77401000D01*
X47421258Y-77401000D01*
X47396488Y-77396073D01*
X47247188Y-77366376D01*
X47083216Y-77298456D01*
X46935646Y-77199853D01*
X46810147Y-77074354D01*
X46711544Y-76926784D01*
X46643624Y-76762812D01*
X46609000Y-76588741D01*
X46609000Y-76411259D01*
X46643624Y-76237188D01*
X46711544Y-76073216D01*
X46810147Y-75925646D01*
X46935646Y-75800147D01*
X47083216Y-75701544D01*
X47247188Y-75633624D01*
X47396488Y-75603927D01*
X47421258Y-75599000D01*
X47598742Y-75599000D01*
X47623512Y-75603927D01*
G37*
G36*
X103343512Y-75603927D02*
G01*
X103492812Y-75633624D01*
X103656784Y-75701544D01*
X103804354Y-75800147D01*
X103929853Y-75925646D01*
X104028456Y-76073216D01*
X104096376Y-76237188D01*
X104131000Y-76411259D01*
X104131000Y-76588741D01*
X104096376Y-76762812D01*
X104028456Y-76926784D01*
X103929853Y-77074354D01*
X103804354Y-77199853D01*
X103656784Y-77298456D01*
X103492812Y-77366376D01*
X103343512Y-77396073D01*
X103318742Y-77401000D01*
X103141258Y-77401000D01*
X103116488Y-77396073D01*
X102967188Y-77366376D01*
X102803216Y-77298456D01*
X102655646Y-77199853D01*
X102530147Y-77074354D01*
X102431544Y-76926784D01*
X102363624Y-76762812D01*
X102329000Y-76588741D01*
X102329000Y-76411259D01*
X102363624Y-76237188D01*
X102431544Y-76073216D01*
X102530147Y-75925646D01*
X102655646Y-75800147D01*
X102803216Y-75701544D01*
X102967188Y-75633624D01*
X103116488Y-75603927D01*
X103141258Y-75599000D01*
X103318742Y-75599000D01*
X103343512Y-75603927D01*
G37*
G36*
X45083512Y-75603927D02*
G01*
X45232812Y-75633624D01*
X45396784Y-75701544D01*
X45544354Y-75800147D01*
X45669853Y-75925646D01*
X45768456Y-76073216D01*
X45836376Y-76237188D01*
X45871000Y-76411259D01*
X45871000Y-76588741D01*
X45836376Y-76762812D01*
X45768456Y-76926784D01*
X45669853Y-77074354D01*
X45544354Y-77199853D01*
X45396784Y-77298456D01*
X45232812Y-77366376D01*
X45083512Y-77396073D01*
X45058742Y-77401000D01*
X44881258Y-77401000D01*
X44856488Y-77396073D01*
X44707188Y-77366376D01*
X44543216Y-77298456D01*
X44395646Y-77199853D01*
X44270147Y-77074354D01*
X44171544Y-76926784D01*
X44103624Y-76762812D01*
X44069000Y-76588741D01*
X44069000Y-76411259D01*
X44103624Y-76237188D01*
X44171544Y-76073216D01*
X44270147Y-75925646D01*
X44395646Y-75800147D01*
X44543216Y-75701544D01*
X44707188Y-75633624D01*
X44856488Y-75603927D01*
X44881258Y-75599000D01*
X45058742Y-75599000D01*
X45083512Y-75603927D01*
G37*
G36*
X39966236Y-66357169D02*
G01*
X40284173Y-66453615D01*
X40577173Y-66610227D01*
X40834000Y-66821000D01*
X41044773Y-67077827D01*
X41201385Y-67370827D01*
X41297831Y-67688764D01*
X41331000Y-68025540D01*
X41331000Y-73474460D01*
X41297831Y-73811236D01*
X41201385Y-74129173D01*
X41044773Y-74422173D01*
X40834000Y-74679000D01*
X40577173Y-74889773D01*
X40284173Y-75046385D01*
X39966236Y-75142831D01*
X39629460Y-75176000D01*
X31630540Y-75176000D01*
X31293764Y-75142831D01*
X30975827Y-75046385D01*
X30682827Y-74889773D01*
X30426000Y-74679000D01*
X30215227Y-74422173D01*
X30058615Y-74129173D01*
X29962169Y-73811236D01*
X29929000Y-73474460D01*
X29929000Y-68025540D01*
X29962169Y-67688764D01*
X30058615Y-67370827D01*
X30215227Y-67077827D01*
X30426000Y-66821000D01*
X30682827Y-66610227D01*
X30975827Y-66453615D01*
X31293764Y-66357169D01*
X31630540Y-66324000D01*
X39629460Y-66324000D01*
X39966236Y-66357169D01*
G37*
G36*
X95586236Y-66357169D02*
G01*
X95904173Y-66453615D01*
X96197173Y-66610227D01*
X96454000Y-66821000D01*
X96664773Y-67077827D01*
X96821385Y-67370827D01*
X96917831Y-67688764D01*
X96951000Y-68025540D01*
X96951000Y-73474460D01*
X96917831Y-73811236D01*
X96821385Y-74129173D01*
X96664773Y-74422173D01*
X96454000Y-74679000D01*
X96197173Y-74889773D01*
X95904173Y-75046385D01*
X95586236Y-75142831D01*
X95249460Y-75176000D01*
X87250540Y-75176000D01*
X86913764Y-75142831D01*
X86595827Y-75046385D01*
X86302827Y-74889773D01*
X86046000Y-74679000D01*
X85835227Y-74422173D01*
X85678615Y-74129173D01*
X85582169Y-73811236D01*
X85549000Y-73474460D01*
X85549000Y-68025540D01*
X85582169Y-67688764D01*
X85678615Y-67370827D01*
X85835227Y-67077827D01*
X86046000Y-66821000D01*
X86302827Y-66610227D01*
X86595827Y-66453615D01*
X86913764Y-66357169D01*
X87250540Y-66324000D01*
X95249460Y-66324000D01*
X95586236Y-66357169D01*
G37*
G36*
X47623512Y-73063927D02*
G01*
X47772812Y-73093624D01*
X47936784Y-73161544D01*
X48084354Y-73260147D01*
X48209853Y-73385646D01*
X48308456Y-73533216D01*
X48376376Y-73697188D01*
X48411000Y-73871259D01*
X48411000Y-74048741D01*
X48376376Y-74222812D01*
X48308456Y-74386784D01*
X48209853Y-74534354D01*
X48084354Y-74659853D01*
X47936784Y-74758456D01*
X47772812Y-74826376D01*
X47623512Y-74856073D01*
X47598742Y-74861000D01*
X47421258Y-74861000D01*
X47396488Y-74856073D01*
X47247188Y-74826376D01*
X47083216Y-74758456D01*
X46935646Y-74659853D01*
X46810147Y-74534354D01*
X46711544Y-74386784D01*
X46643624Y-74222812D01*
X46609000Y-74048741D01*
X46609000Y-73871259D01*
X46643624Y-73697188D01*
X46711544Y-73533216D01*
X46810147Y-73385646D01*
X46935646Y-73260147D01*
X47083216Y-73161544D01*
X47247188Y-73093624D01*
X47396488Y-73063927D01*
X47421258Y-73059000D01*
X47598742Y-73059000D01*
X47623512Y-73063927D01*
G37*
G36*
X57623512Y-73063927D02*
G01*
X57772812Y-73093624D01*
X57936784Y-73161544D01*
X58084354Y-73260147D01*
X58209853Y-73385646D01*
X58308456Y-73533216D01*
X58376376Y-73697188D01*
X58411000Y-73871259D01*
X58411000Y-74048741D01*
X58376376Y-74222812D01*
X58308456Y-74386784D01*
X58209853Y-74534354D01*
X58084354Y-74659853D01*
X57936784Y-74758456D01*
X57772812Y-74826376D01*
X57623512Y-74856073D01*
X57598742Y-74861000D01*
X57421258Y-74861000D01*
X57396488Y-74856073D01*
X57247188Y-74826376D01*
X57083216Y-74758456D01*
X56935646Y-74659853D01*
X56810147Y-74534354D01*
X56711544Y-74386784D01*
X56643624Y-74222812D01*
X56609000Y-74048741D01*
X56609000Y-73871259D01*
X56643624Y-73697188D01*
X56711544Y-73533216D01*
X56810147Y-73385646D01*
X56935646Y-73260147D01*
X57083216Y-73161544D01*
X57247188Y-73093624D01*
X57396488Y-73063927D01*
X57421258Y-73059000D01*
X57598742Y-73059000D01*
X57623512Y-73063927D01*
G37*
G36*
X103343512Y-73063927D02*
G01*
X103492812Y-73093624D01*
X103656784Y-73161544D01*
X103804354Y-73260147D01*
X103929853Y-73385646D01*
X104028456Y-73533216D01*
X104096376Y-73697188D01*
X104131000Y-73871259D01*
X104131000Y-74048741D01*
X104096376Y-74222812D01*
X104028456Y-74386784D01*
X103929853Y-74534354D01*
X103804354Y-74659853D01*
X103656784Y-74758456D01*
X103492812Y-74826376D01*
X103343512Y-74856073D01*
X103318742Y-74861000D01*
X103141258Y-74861000D01*
X103116488Y-74856073D01*
X102967188Y-74826376D01*
X102803216Y-74758456D01*
X102655646Y-74659853D01*
X102530147Y-74534354D01*
X102431544Y-74386784D01*
X102363624Y-74222812D01*
X102329000Y-74048741D01*
X102329000Y-73871259D01*
X102363624Y-73697188D01*
X102431544Y-73533216D01*
X102530147Y-73385646D01*
X102655646Y-73260147D01*
X102803216Y-73161544D01*
X102967188Y-73093624D01*
X103116488Y-73063927D01*
X103141258Y-73059000D01*
X103318742Y-73059000D01*
X103343512Y-73063927D01*
G37*
G36*
X115883512Y-73063927D02*
G01*
X116032812Y-73093624D01*
X116196784Y-73161544D01*
X116344354Y-73260147D01*
X116469853Y-73385646D01*
X116568456Y-73533216D01*
X116636376Y-73697188D01*
X116671000Y-73871259D01*
X116671000Y-74048741D01*
X116636376Y-74222812D01*
X116568456Y-74386784D01*
X116469853Y-74534354D01*
X116344354Y-74659853D01*
X116196784Y-74758456D01*
X116032812Y-74826376D01*
X115883512Y-74856073D01*
X115858742Y-74861000D01*
X115681258Y-74861000D01*
X115656488Y-74856073D01*
X115507188Y-74826376D01*
X115343216Y-74758456D01*
X115195646Y-74659853D01*
X115070147Y-74534354D01*
X114971544Y-74386784D01*
X114903624Y-74222812D01*
X114869000Y-74048741D01*
X114869000Y-73871259D01*
X114903624Y-73697188D01*
X114971544Y-73533216D01*
X115070147Y-73385646D01*
X115195646Y-73260147D01*
X115343216Y-73161544D01*
X115507188Y-73093624D01*
X115656488Y-73063927D01*
X115681258Y-73059000D01*
X115858742Y-73059000D01*
X115883512Y-73063927D01*
G37*
G36*
X113343512Y-73063927D02*
G01*
X113492812Y-73093624D01*
X113656784Y-73161544D01*
X113804354Y-73260147D01*
X113929853Y-73385646D01*
X114028456Y-73533216D01*
X114096376Y-73697188D01*
X114131000Y-73871259D01*
X114131000Y-74048741D01*
X114096376Y-74222812D01*
X114028456Y-74386784D01*
X113929853Y-74534354D01*
X113804354Y-74659853D01*
X113656784Y-74758456D01*
X113492812Y-74826376D01*
X113343512Y-74856073D01*
X113318742Y-74861000D01*
X113141258Y-74861000D01*
X113116488Y-74856073D01*
X112967188Y-74826376D01*
X112803216Y-74758456D01*
X112655646Y-74659853D01*
X112530147Y-74534354D01*
X112431544Y-74386784D01*
X112363624Y-74222812D01*
X112329000Y-74048741D01*
X112329000Y-73871259D01*
X112363624Y-73697188D01*
X112431544Y-73533216D01*
X112530147Y-73385646D01*
X112655646Y-73260147D01*
X112803216Y-73161544D01*
X112967188Y-73093624D01*
X113116488Y-73063927D01*
X113141258Y-73059000D01*
X113318742Y-73059000D01*
X113343512Y-73063927D01*
G37*
G36*
X45083512Y-73063927D02*
G01*
X45232812Y-73093624D01*
X45396784Y-73161544D01*
X45544354Y-73260147D01*
X45669853Y-73385646D01*
X45768456Y-73533216D01*
X45836376Y-73697188D01*
X45871000Y-73871259D01*
X45871000Y-74048741D01*
X45836376Y-74222812D01*
X45768456Y-74386784D01*
X45669853Y-74534354D01*
X45544354Y-74659853D01*
X45396784Y-74758456D01*
X45232812Y-74826376D01*
X45083512Y-74856073D01*
X45058742Y-74861000D01*
X44881258Y-74861000D01*
X44856488Y-74856073D01*
X44707188Y-74826376D01*
X44543216Y-74758456D01*
X44395646Y-74659853D01*
X44270147Y-74534354D01*
X44171544Y-74386784D01*
X44103624Y-74222812D01*
X44069000Y-74048741D01*
X44069000Y-73871259D01*
X44103624Y-73697188D01*
X44171544Y-73533216D01*
X44270147Y-73385646D01*
X44395646Y-73260147D01*
X44543216Y-73161544D01*
X44707188Y-73093624D01*
X44856488Y-73063927D01*
X44881258Y-73059000D01*
X45058742Y-73059000D01*
X45083512Y-73063927D01*
G37*
G36*
X113343512Y-70523927D02*
G01*
X113492812Y-70553624D01*
X113656784Y-70621544D01*
X113804354Y-70720147D01*
X113929853Y-70845646D01*
X114028456Y-70993216D01*
X114096376Y-71157188D01*
X114131000Y-71331259D01*
X114131000Y-71508741D01*
X114096376Y-71682812D01*
X114028456Y-71846784D01*
X113929853Y-71994354D01*
X113804354Y-72119853D01*
X113656784Y-72218456D01*
X113492812Y-72286376D01*
X113343512Y-72316073D01*
X113318742Y-72321000D01*
X113141258Y-72321000D01*
X113116488Y-72316073D01*
X112967188Y-72286376D01*
X112803216Y-72218456D01*
X112655646Y-72119853D01*
X112530147Y-71994354D01*
X112431544Y-71846784D01*
X112363624Y-71682812D01*
X112329000Y-71508741D01*
X112329000Y-71331259D01*
X112363624Y-71157188D01*
X112431544Y-70993216D01*
X112530147Y-70845646D01*
X112655646Y-70720147D01*
X112803216Y-70621544D01*
X112967188Y-70553624D01*
X113116488Y-70523927D01*
X113141258Y-70519000D01*
X113318742Y-70519000D01*
X113343512Y-70523927D01*
G37*
G36*
X103343512Y-70523927D02*
G01*
X103492812Y-70553624D01*
X103656784Y-70621544D01*
X103804354Y-70720147D01*
X103929853Y-70845646D01*
X104028456Y-70993216D01*
X104096376Y-71157188D01*
X104131000Y-71331259D01*
X104131000Y-71508741D01*
X104096376Y-71682812D01*
X104028456Y-71846784D01*
X103929853Y-71994354D01*
X103804354Y-72119853D01*
X103656784Y-72218456D01*
X103492812Y-72286376D01*
X103343512Y-72316073D01*
X103318742Y-72321000D01*
X103141258Y-72321000D01*
X103116488Y-72316073D01*
X102967188Y-72286376D01*
X102803216Y-72218456D01*
X102655646Y-72119853D01*
X102530147Y-71994354D01*
X102431544Y-71846784D01*
X102363624Y-71682812D01*
X102329000Y-71508741D01*
X102329000Y-71331259D01*
X102363624Y-71157188D01*
X102431544Y-70993216D01*
X102530147Y-70845646D01*
X102655646Y-70720147D01*
X102803216Y-70621544D01*
X102967188Y-70553624D01*
X103116488Y-70523927D01*
X103141258Y-70519000D01*
X103318742Y-70519000D01*
X103343512Y-70523927D01*
G37*
G36*
X45083512Y-70523927D02*
G01*
X45232812Y-70553624D01*
X45396784Y-70621544D01*
X45544354Y-70720147D01*
X45669853Y-70845646D01*
X45768456Y-70993216D01*
X45836376Y-71157188D01*
X45871000Y-71331259D01*
X45871000Y-71508741D01*
X45836376Y-71682812D01*
X45768456Y-71846784D01*
X45669853Y-71994354D01*
X45544354Y-72119853D01*
X45396784Y-72218456D01*
X45232812Y-72286376D01*
X45083512Y-72316073D01*
X45058742Y-72321000D01*
X44881258Y-72321000D01*
X44856488Y-72316073D01*
X44707188Y-72286376D01*
X44543216Y-72218456D01*
X44395646Y-72119853D01*
X44270147Y-71994354D01*
X44171544Y-71846784D01*
X44103624Y-71682812D01*
X44069000Y-71508741D01*
X44069000Y-71331259D01*
X44103624Y-71157188D01*
X44171544Y-70993216D01*
X44270147Y-70845646D01*
X44395646Y-70720147D01*
X44543216Y-70621544D01*
X44707188Y-70553624D01*
X44856488Y-70523927D01*
X44881258Y-70519000D01*
X45058742Y-70519000D01*
X45083512Y-70523927D01*
G37*
G36*
X47623512Y-70523927D02*
G01*
X47772812Y-70553624D01*
X47936784Y-70621544D01*
X48084354Y-70720147D01*
X48209853Y-70845646D01*
X48308456Y-70993216D01*
X48376376Y-71157188D01*
X48411000Y-71331259D01*
X48411000Y-71508741D01*
X48376376Y-71682812D01*
X48308456Y-71846784D01*
X48209853Y-71994354D01*
X48084354Y-72119853D01*
X47936784Y-72218456D01*
X47772812Y-72286376D01*
X47623512Y-72316073D01*
X47598742Y-72321000D01*
X47421258Y-72321000D01*
X47396488Y-72316073D01*
X47247188Y-72286376D01*
X47083216Y-72218456D01*
X46935646Y-72119853D01*
X46810147Y-71994354D01*
X46711544Y-71846784D01*
X46643624Y-71682812D01*
X46609000Y-71508741D01*
X46609000Y-71331259D01*
X46643624Y-71157188D01*
X46711544Y-70993216D01*
X46810147Y-70845646D01*
X46935646Y-70720147D01*
X47083216Y-70621544D01*
X47247188Y-70553624D01*
X47396488Y-70523927D01*
X47421258Y-70519000D01*
X47598742Y-70519000D01*
X47623512Y-70523927D01*
G37*
G36*
X115883512Y-70523927D02*
G01*
X116032812Y-70553624D01*
X116196784Y-70621544D01*
X116344354Y-70720147D01*
X116469853Y-70845646D01*
X116568456Y-70993216D01*
X116636376Y-71157188D01*
X116671000Y-71331259D01*
X116671000Y-71508741D01*
X116636376Y-71682812D01*
X116568456Y-71846784D01*
X116469853Y-71994354D01*
X116344354Y-72119853D01*
X116196784Y-72218456D01*
X116032812Y-72286376D01*
X115883512Y-72316073D01*
X115858742Y-72321000D01*
X115681258Y-72321000D01*
X115656488Y-72316073D01*
X115507188Y-72286376D01*
X115343216Y-72218456D01*
X115195646Y-72119853D01*
X115070147Y-71994354D01*
X114971544Y-71846784D01*
X114903624Y-71682812D01*
X114869000Y-71508741D01*
X114869000Y-71331259D01*
X114903624Y-71157188D01*
X114971544Y-70993216D01*
X115070147Y-70845646D01*
X115195646Y-70720147D01*
X115343216Y-70621544D01*
X115507188Y-70553624D01*
X115656488Y-70523927D01*
X115681258Y-70519000D01*
X115858742Y-70519000D01*
X115883512Y-70523927D01*
G37*
G36*
X57623512Y-70523927D02*
G01*
X57772812Y-70553624D01*
X57936784Y-70621544D01*
X58084354Y-70720147D01*
X58209853Y-70845646D01*
X58308456Y-70993216D01*
X58376376Y-71157188D01*
X58411000Y-71331259D01*
X58411000Y-71508741D01*
X58376376Y-71682812D01*
X58308456Y-71846784D01*
X58209853Y-71994354D01*
X58084354Y-72119853D01*
X57936784Y-72218456D01*
X57772812Y-72286376D01*
X57623512Y-72316073D01*
X57598742Y-72321000D01*
X57421258Y-72321000D01*
X57396488Y-72316073D01*
X57247188Y-72286376D01*
X57083216Y-72218456D01*
X56935646Y-72119853D01*
X56810147Y-71994354D01*
X56711544Y-71846784D01*
X56643624Y-71682812D01*
X56609000Y-71508741D01*
X56609000Y-71331259D01*
X56643624Y-71157188D01*
X56711544Y-70993216D01*
X56810147Y-70845646D01*
X56935646Y-70720147D01*
X57083216Y-70621544D01*
X57247188Y-70553624D01*
X57396488Y-70523927D01*
X57421258Y-70519000D01*
X57598742Y-70519000D01*
X57623512Y-70523927D01*
G37*
G36*
X45083512Y-67983927D02*
G01*
X45232812Y-68013624D01*
X45396784Y-68081544D01*
X45544354Y-68180147D01*
X45669853Y-68305646D01*
X45768456Y-68453216D01*
X45836376Y-68617188D01*
X45871000Y-68791259D01*
X45871000Y-68968741D01*
X45836376Y-69142812D01*
X45768456Y-69306784D01*
X45669853Y-69454354D01*
X45544354Y-69579853D01*
X45396784Y-69678456D01*
X45232812Y-69746376D01*
X45083512Y-69776073D01*
X45058742Y-69781000D01*
X44881258Y-69781000D01*
X44856488Y-69776073D01*
X44707188Y-69746376D01*
X44543216Y-69678456D01*
X44395646Y-69579853D01*
X44270147Y-69454354D01*
X44171544Y-69306784D01*
X44103624Y-69142812D01*
X44069000Y-68968741D01*
X44069000Y-68791259D01*
X44103624Y-68617188D01*
X44171544Y-68453216D01*
X44270147Y-68305646D01*
X44395646Y-68180147D01*
X44543216Y-68081544D01*
X44707188Y-68013624D01*
X44856488Y-67983927D01*
X44881258Y-67979000D01*
X45058742Y-67979000D01*
X45083512Y-67983927D01*
G37*
G36*
X47623512Y-67983927D02*
G01*
X47772812Y-68013624D01*
X47936784Y-68081544D01*
X48084354Y-68180147D01*
X48209853Y-68305646D01*
X48308456Y-68453216D01*
X48376376Y-68617188D01*
X48411000Y-68791259D01*
X48411000Y-68968741D01*
X48376376Y-69142812D01*
X48308456Y-69306784D01*
X48209853Y-69454354D01*
X48084354Y-69579853D01*
X47936784Y-69678456D01*
X47772812Y-69746376D01*
X47623512Y-69776073D01*
X47598742Y-69781000D01*
X47421258Y-69781000D01*
X47396488Y-69776073D01*
X47247188Y-69746376D01*
X47083216Y-69678456D01*
X46935646Y-69579853D01*
X46810147Y-69454354D01*
X46711544Y-69306784D01*
X46643624Y-69142812D01*
X46609000Y-68968741D01*
X46609000Y-68791259D01*
X46643624Y-68617188D01*
X46711544Y-68453216D01*
X46810147Y-68305646D01*
X46935646Y-68180147D01*
X47083216Y-68081544D01*
X47247188Y-68013624D01*
X47396488Y-67983927D01*
X47421258Y-67979000D01*
X47598742Y-67979000D01*
X47623512Y-67983927D01*
G37*
G36*
X113343512Y-67983927D02*
G01*
X113492812Y-68013624D01*
X113656784Y-68081544D01*
X113804354Y-68180147D01*
X113929853Y-68305646D01*
X114028456Y-68453216D01*
X114096376Y-68617188D01*
X114131000Y-68791259D01*
X114131000Y-68968741D01*
X114096376Y-69142812D01*
X114028456Y-69306784D01*
X113929853Y-69454354D01*
X113804354Y-69579853D01*
X113656784Y-69678456D01*
X113492812Y-69746376D01*
X113343512Y-69776073D01*
X113318742Y-69781000D01*
X113141258Y-69781000D01*
X113116488Y-69776073D01*
X112967188Y-69746376D01*
X112803216Y-69678456D01*
X112655646Y-69579853D01*
X112530147Y-69454354D01*
X112431544Y-69306784D01*
X112363624Y-69142812D01*
X112329000Y-68968741D01*
X112329000Y-68791259D01*
X112363624Y-68617188D01*
X112431544Y-68453216D01*
X112530147Y-68305646D01*
X112655646Y-68180147D01*
X112803216Y-68081544D01*
X112967188Y-68013624D01*
X113116488Y-67983927D01*
X113141258Y-67979000D01*
X113318742Y-67979000D01*
X113343512Y-67983927D01*
G37*
G36*
X115883512Y-67983927D02*
G01*
X116032812Y-68013624D01*
X116196784Y-68081544D01*
X116344354Y-68180147D01*
X116469853Y-68305646D01*
X116568456Y-68453216D01*
X116636376Y-68617188D01*
X116671000Y-68791259D01*
X116671000Y-68968741D01*
X116636376Y-69142812D01*
X116568456Y-69306784D01*
X116469853Y-69454354D01*
X116344354Y-69579853D01*
X116196784Y-69678456D01*
X116032812Y-69746376D01*
X115883512Y-69776073D01*
X115858742Y-69781000D01*
X115681258Y-69781000D01*
X115656488Y-69776073D01*
X115507188Y-69746376D01*
X115343216Y-69678456D01*
X115195646Y-69579853D01*
X115070147Y-69454354D01*
X114971544Y-69306784D01*
X114903624Y-69142812D01*
X114869000Y-68968741D01*
X114869000Y-68791259D01*
X114903624Y-68617188D01*
X114971544Y-68453216D01*
X115070147Y-68305646D01*
X115195646Y-68180147D01*
X115343216Y-68081544D01*
X115507188Y-68013624D01*
X115656488Y-67983927D01*
X115681258Y-67979000D01*
X115858742Y-67979000D01*
X115883512Y-67983927D01*
G37*
G36*
X103343512Y-67983927D02*
G01*
X103492812Y-68013624D01*
X103656784Y-68081544D01*
X103804354Y-68180147D01*
X103929853Y-68305646D01*
X104028456Y-68453216D01*
X104096376Y-68617188D01*
X104131000Y-68791259D01*
X104131000Y-68968741D01*
X104096376Y-69142812D01*
X104028456Y-69306784D01*
X103929853Y-69454354D01*
X103804354Y-69579853D01*
X103656784Y-69678456D01*
X103492812Y-69746376D01*
X103343512Y-69776073D01*
X103318742Y-69781000D01*
X103141258Y-69781000D01*
X103116488Y-69776073D01*
X102967188Y-69746376D01*
X102803216Y-69678456D01*
X102655646Y-69579853D01*
X102530147Y-69454354D01*
X102431544Y-69306784D01*
X102363624Y-69142812D01*
X102329000Y-68968741D01*
X102329000Y-68791259D01*
X102363624Y-68617188D01*
X102431544Y-68453216D01*
X102530147Y-68305646D01*
X102655646Y-68180147D01*
X102803216Y-68081544D01*
X102967188Y-68013624D01*
X103116488Y-67983927D01*
X103141258Y-67979000D01*
X103318742Y-67979000D01*
X103343512Y-67983927D01*
G37*
G36*
X57623512Y-67983927D02*
G01*
X57772812Y-68013624D01*
X57936784Y-68081544D01*
X58084354Y-68180147D01*
X58209853Y-68305646D01*
X58308456Y-68453216D01*
X58376376Y-68617188D01*
X58411000Y-68791259D01*
X58411000Y-68968741D01*
X58376376Y-69142812D01*
X58308456Y-69306784D01*
X58209853Y-69454354D01*
X58084354Y-69579853D01*
X57936784Y-69678456D01*
X57772812Y-69746376D01*
X57623512Y-69776073D01*
X57598742Y-69781000D01*
X57421258Y-69781000D01*
X57396488Y-69776073D01*
X57247188Y-69746376D01*
X57083216Y-69678456D01*
X56935646Y-69579853D01*
X56810147Y-69454354D01*
X56711544Y-69306784D01*
X56643624Y-69142812D01*
X56609000Y-68968741D01*
X56609000Y-68791259D01*
X56643624Y-68617188D01*
X56711544Y-68453216D01*
X56810147Y-68305646D01*
X56935646Y-68180147D01*
X57083216Y-68081544D01*
X57247188Y-68013624D01*
X57396488Y-67983927D01*
X57421258Y-67979000D01*
X57598742Y-67979000D01*
X57623512Y-67983927D01*
G37*
G36*
X47623512Y-65443927D02*
G01*
X47772812Y-65473624D01*
X47936784Y-65541544D01*
X48084354Y-65640147D01*
X48209853Y-65765646D01*
X48308456Y-65913216D01*
X48376376Y-66077188D01*
X48411000Y-66251259D01*
X48411000Y-66428741D01*
X48376376Y-66602812D01*
X48308456Y-66766784D01*
X48209853Y-66914354D01*
X48084354Y-67039853D01*
X47936784Y-67138456D01*
X47772812Y-67206376D01*
X47623512Y-67236073D01*
X47598742Y-67241000D01*
X47421258Y-67241000D01*
X47396488Y-67236073D01*
X47247188Y-67206376D01*
X47083216Y-67138456D01*
X46935646Y-67039853D01*
X46810147Y-66914354D01*
X46711544Y-66766784D01*
X46643624Y-66602812D01*
X46609000Y-66428741D01*
X46609000Y-66251259D01*
X46643624Y-66077188D01*
X46711544Y-65913216D01*
X46810147Y-65765646D01*
X46935646Y-65640147D01*
X47083216Y-65541544D01*
X47247188Y-65473624D01*
X47396488Y-65443927D01*
X47421258Y-65439000D01*
X47598742Y-65439000D01*
X47623512Y-65443927D01*
G37*
G36*
X45083512Y-65443927D02*
G01*
X45232812Y-65473624D01*
X45396784Y-65541544D01*
X45544354Y-65640147D01*
X45669853Y-65765646D01*
X45768456Y-65913216D01*
X45836376Y-66077188D01*
X45871000Y-66251259D01*
X45871000Y-66428741D01*
X45836376Y-66602812D01*
X45768456Y-66766784D01*
X45669853Y-66914354D01*
X45544354Y-67039853D01*
X45396784Y-67138456D01*
X45232812Y-67206376D01*
X45083512Y-67236073D01*
X45058742Y-67241000D01*
X44881258Y-67241000D01*
X44856488Y-67236073D01*
X44707188Y-67206376D01*
X44543216Y-67138456D01*
X44395646Y-67039853D01*
X44270147Y-66914354D01*
X44171544Y-66766784D01*
X44103624Y-66602812D01*
X44069000Y-66428741D01*
X44069000Y-66251259D01*
X44103624Y-66077188D01*
X44171544Y-65913216D01*
X44270147Y-65765646D01*
X44395646Y-65640147D01*
X44543216Y-65541544D01*
X44707188Y-65473624D01*
X44856488Y-65443927D01*
X44881258Y-65439000D01*
X45058742Y-65439000D01*
X45083512Y-65443927D01*
G37*
G36*
X115883512Y-65443927D02*
G01*
X116032812Y-65473624D01*
X116196784Y-65541544D01*
X116344354Y-65640147D01*
X116469853Y-65765646D01*
X116568456Y-65913216D01*
X116636376Y-66077188D01*
X116671000Y-66251259D01*
X116671000Y-66428741D01*
X116636376Y-66602812D01*
X116568456Y-66766784D01*
X116469853Y-66914354D01*
X116344354Y-67039853D01*
X116196784Y-67138456D01*
X116032812Y-67206376D01*
X115883512Y-67236073D01*
X115858742Y-67241000D01*
X115681258Y-67241000D01*
X115656488Y-67236073D01*
X115507188Y-67206376D01*
X115343216Y-67138456D01*
X115195646Y-67039853D01*
X115070147Y-66914354D01*
X114971544Y-66766784D01*
X114903624Y-66602812D01*
X114869000Y-66428741D01*
X114869000Y-66251259D01*
X114903624Y-66077188D01*
X114971544Y-65913216D01*
X115070147Y-65765646D01*
X115195646Y-65640147D01*
X115343216Y-65541544D01*
X115507188Y-65473624D01*
X115656488Y-65443927D01*
X115681258Y-65439000D01*
X115858742Y-65439000D01*
X115883512Y-65443927D01*
G37*
G36*
X113343512Y-65443927D02*
G01*
X113492812Y-65473624D01*
X113656784Y-65541544D01*
X113804354Y-65640147D01*
X113929853Y-65765646D01*
X114028456Y-65913216D01*
X114096376Y-66077188D01*
X114131000Y-66251259D01*
X114131000Y-66428741D01*
X114096376Y-66602812D01*
X114028456Y-66766784D01*
X113929853Y-66914354D01*
X113804354Y-67039853D01*
X113656784Y-67138456D01*
X113492812Y-67206376D01*
X113343512Y-67236073D01*
X113318742Y-67241000D01*
X113141258Y-67241000D01*
X113116488Y-67236073D01*
X112967188Y-67206376D01*
X112803216Y-67138456D01*
X112655646Y-67039853D01*
X112530147Y-66914354D01*
X112431544Y-66766784D01*
X112363624Y-66602812D01*
X112329000Y-66428741D01*
X112329000Y-66251259D01*
X112363624Y-66077188D01*
X112431544Y-65913216D01*
X112530147Y-65765646D01*
X112655646Y-65640147D01*
X112803216Y-65541544D01*
X112967188Y-65473624D01*
X113116488Y-65443927D01*
X113141258Y-65439000D01*
X113318742Y-65439000D01*
X113343512Y-65443927D01*
G37*
G36*
X103343512Y-65443927D02*
G01*
X103492812Y-65473624D01*
X103656784Y-65541544D01*
X103804354Y-65640147D01*
X103929853Y-65765646D01*
X104028456Y-65913216D01*
X104096376Y-66077188D01*
X104131000Y-66251259D01*
X104131000Y-66428741D01*
X104096376Y-66602812D01*
X104028456Y-66766784D01*
X103929853Y-66914354D01*
X103804354Y-67039853D01*
X103656784Y-67138456D01*
X103492812Y-67206376D01*
X103343512Y-67236073D01*
X103318742Y-67241000D01*
X103141258Y-67241000D01*
X103116488Y-67236073D01*
X102967188Y-67206376D01*
X102803216Y-67138456D01*
X102655646Y-67039853D01*
X102530147Y-66914354D01*
X102431544Y-66766784D01*
X102363624Y-66602812D01*
X102329000Y-66428741D01*
X102329000Y-66251259D01*
X102363624Y-66077188D01*
X102431544Y-65913216D01*
X102530147Y-65765646D01*
X102655646Y-65640147D01*
X102803216Y-65541544D01*
X102967188Y-65473624D01*
X103116488Y-65443927D01*
X103141258Y-65439000D01*
X103318742Y-65439000D01*
X103343512Y-65443927D01*
G37*
G36*
X57623512Y-65443927D02*
G01*
X57772812Y-65473624D01*
X57936784Y-65541544D01*
X58084354Y-65640147D01*
X58209853Y-65765646D01*
X58308456Y-65913216D01*
X58376376Y-66077188D01*
X58411000Y-66251259D01*
X58411000Y-66428741D01*
X58376376Y-66602812D01*
X58308456Y-66766784D01*
X58209853Y-66914354D01*
X58084354Y-67039853D01*
X57936784Y-67138456D01*
X57772812Y-67206376D01*
X57623512Y-67236073D01*
X57598742Y-67241000D01*
X57421258Y-67241000D01*
X57396488Y-67236073D01*
X57247188Y-67206376D01*
X57083216Y-67138456D01*
X56935646Y-67039853D01*
X56810147Y-66914354D01*
X56711544Y-66766784D01*
X56643624Y-66602812D01*
X56609000Y-66428741D01*
X56609000Y-66251259D01*
X56643624Y-66077188D01*
X56711544Y-65913216D01*
X56810147Y-65765646D01*
X56935646Y-65640147D01*
X57083216Y-65541544D01*
X57247188Y-65473624D01*
X57396488Y-65443927D01*
X57421258Y-65439000D01*
X57598742Y-65439000D01*
X57623512Y-65443927D01*
G37*
G36*
X45083512Y-62903927D02*
G01*
X45232812Y-62933624D01*
X45396784Y-63001544D01*
X45544354Y-63100147D01*
X45669853Y-63225646D01*
X45768456Y-63373216D01*
X45836376Y-63537188D01*
X45871000Y-63711259D01*
X45871000Y-63888741D01*
X45836376Y-64062812D01*
X45768456Y-64226784D01*
X45669853Y-64374354D01*
X45544354Y-64499853D01*
X45396784Y-64598456D01*
X45232812Y-64666376D01*
X45083512Y-64696073D01*
X45058742Y-64701000D01*
X44881258Y-64701000D01*
X44856488Y-64696073D01*
X44707188Y-64666376D01*
X44543216Y-64598456D01*
X44395646Y-64499853D01*
X44270147Y-64374354D01*
X44171544Y-64226784D01*
X44103624Y-64062812D01*
X44069000Y-63888741D01*
X44069000Y-63711259D01*
X44103624Y-63537188D01*
X44171544Y-63373216D01*
X44270147Y-63225646D01*
X44395646Y-63100147D01*
X44543216Y-63001544D01*
X44707188Y-62933624D01*
X44856488Y-62903927D01*
X44881258Y-62899000D01*
X45058742Y-62899000D01*
X45083512Y-62903927D01*
G37*
G36*
X115883512Y-62903927D02*
G01*
X116032812Y-62933624D01*
X116196784Y-63001544D01*
X116344354Y-63100147D01*
X116469853Y-63225646D01*
X116568456Y-63373216D01*
X116636376Y-63537188D01*
X116671000Y-63711259D01*
X116671000Y-63888741D01*
X116636376Y-64062812D01*
X116568456Y-64226784D01*
X116469853Y-64374354D01*
X116344354Y-64499853D01*
X116196784Y-64598456D01*
X116032812Y-64666376D01*
X115883512Y-64696073D01*
X115858742Y-64701000D01*
X115681258Y-64701000D01*
X115656488Y-64696073D01*
X115507188Y-64666376D01*
X115343216Y-64598456D01*
X115195646Y-64499853D01*
X115070147Y-64374354D01*
X114971544Y-64226784D01*
X114903624Y-64062812D01*
X114869000Y-63888741D01*
X114869000Y-63711259D01*
X114903624Y-63537188D01*
X114971544Y-63373216D01*
X115070147Y-63225646D01*
X115195646Y-63100147D01*
X115343216Y-63001544D01*
X115507188Y-62933624D01*
X115656488Y-62903927D01*
X115681258Y-62899000D01*
X115858742Y-62899000D01*
X115883512Y-62903927D01*
G37*
G36*
X103343512Y-62903927D02*
G01*
X103492812Y-62933624D01*
X103656784Y-63001544D01*
X103804354Y-63100147D01*
X103929853Y-63225646D01*
X104028456Y-63373216D01*
X104096376Y-63537188D01*
X104131000Y-63711259D01*
X104131000Y-63888741D01*
X104096376Y-64062812D01*
X104028456Y-64226784D01*
X103929853Y-64374354D01*
X103804354Y-64499853D01*
X103656784Y-64598456D01*
X103492812Y-64666376D01*
X103343512Y-64696073D01*
X103318742Y-64701000D01*
X103141258Y-64701000D01*
X103116488Y-64696073D01*
X102967188Y-64666376D01*
X102803216Y-64598456D01*
X102655646Y-64499853D01*
X102530147Y-64374354D01*
X102431544Y-64226784D01*
X102363624Y-64062812D01*
X102329000Y-63888741D01*
X102329000Y-63711259D01*
X102363624Y-63537188D01*
X102431544Y-63373216D01*
X102530147Y-63225646D01*
X102655646Y-63100147D01*
X102803216Y-63001544D01*
X102967188Y-62933624D01*
X103116488Y-62903927D01*
X103141258Y-62899000D01*
X103318742Y-62899000D01*
X103343512Y-62903927D01*
G37*
G36*
X113343512Y-62903927D02*
G01*
X113492812Y-62933624D01*
X113656784Y-63001544D01*
X113804354Y-63100147D01*
X113929853Y-63225646D01*
X114028456Y-63373216D01*
X114096376Y-63537188D01*
X114131000Y-63711259D01*
X114131000Y-63888741D01*
X114096376Y-64062812D01*
X114028456Y-64226784D01*
X113929853Y-64374354D01*
X113804354Y-64499853D01*
X113656784Y-64598456D01*
X113492812Y-64666376D01*
X113343512Y-64696073D01*
X113318742Y-64701000D01*
X113141258Y-64701000D01*
X113116488Y-64696073D01*
X112967188Y-64666376D01*
X112803216Y-64598456D01*
X112655646Y-64499853D01*
X112530147Y-64374354D01*
X112431544Y-64226784D01*
X112363624Y-64062812D01*
X112329000Y-63888741D01*
X112329000Y-63711259D01*
X112363624Y-63537188D01*
X112431544Y-63373216D01*
X112530147Y-63225646D01*
X112655646Y-63100147D01*
X112803216Y-63001544D01*
X112967188Y-62933624D01*
X113116488Y-62903927D01*
X113141258Y-62899000D01*
X113318742Y-62899000D01*
X113343512Y-62903927D01*
G37*
G36*
X57623512Y-62903927D02*
G01*
X57772812Y-62933624D01*
X57936784Y-63001544D01*
X58084354Y-63100147D01*
X58209853Y-63225646D01*
X58308456Y-63373216D01*
X58376376Y-63537188D01*
X58411000Y-63711259D01*
X58411000Y-63888741D01*
X58376376Y-64062812D01*
X58308456Y-64226784D01*
X58209853Y-64374354D01*
X58084354Y-64499853D01*
X57936784Y-64598456D01*
X57772812Y-64666376D01*
X57623512Y-64696073D01*
X57598742Y-64701000D01*
X57421258Y-64701000D01*
X57396488Y-64696073D01*
X57247188Y-64666376D01*
X57083216Y-64598456D01*
X56935646Y-64499853D01*
X56810147Y-64374354D01*
X56711544Y-64226784D01*
X56643624Y-64062812D01*
X56609000Y-63888741D01*
X56609000Y-63711259D01*
X56643624Y-63537188D01*
X56711544Y-63373216D01*
X56810147Y-63225646D01*
X56935646Y-63100147D01*
X57083216Y-63001544D01*
X57247188Y-62933624D01*
X57396488Y-62903927D01*
X57421258Y-62899000D01*
X57598742Y-62899000D01*
X57623512Y-62903927D01*
G37*
G36*
X47623512Y-62903927D02*
G01*
X47772812Y-62933624D01*
X47936784Y-63001544D01*
X48084354Y-63100147D01*
X48209853Y-63225646D01*
X48308456Y-63373216D01*
X48376376Y-63537188D01*
X48411000Y-63711259D01*
X48411000Y-63888741D01*
X48376376Y-64062812D01*
X48308456Y-64226784D01*
X48209853Y-64374354D01*
X48084354Y-64499853D01*
X47936784Y-64598456D01*
X47772812Y-64666376D01*
X47623512Y-64696073D01*
X47598742Y-64701000D01*
X47421258Y-64701000D01*
X47396488Y-64696073D01*
X47247188Y-64666376D01*
X47083216Y-64598456D01*
X46935646Y-64499853D01*
X46810147Y-64374354D01*
X46711544Y-64226784D01*
X46643624Y-64062812D01*
X46609000Y-63888741D01*
X46609000Y-63711259D01*
X46643624Y-63537188D01*
X46711544Y-63373216D01*
X46810147Y-63225646D01*
X46935646Y-63100147D01*
X47083216Y-63001544D01*
X47247188Y-62933624D01*
X47396488Y-62903927D01*
X47421258Y-62899000D01*
X47598742Y-62899000D01*
X47623512Y-62903927D01*
G37*
G36*
X31493512Y-61643927D02*
G01*
X31642812Y-61673624D01*
X31806784Y-61741544D01*
X31954354Y-61840147D01*
X32079853Y-61965646D01*
X32178456Y-62113216D01*
X32246376Y-62277188D01*
X32281000Y-62451259D01*
X32281000Y-62628741D01*
X32246376Y-62802812D01*
X32178456Y-62966784D01*
X32079853Y-63114354D01*
X31954354Y-63239853D01*
X31806784Y-63338456D01*
X31642812Y-63406376D01*
X31493512Y-63436073D01*
X31468742Y-63441000D01*
X31291258Y-63441000D01*
X31266488Y-63436073D01*
X31117188Y-63406376D01*
X30953216Y-63338456D01*
X30805646Y-63239853D01*
X30680147Y-63114354D01*
X30581544Y-62966784D01*
X30513624Y-62802812D01*
X30479000Y-62628741D01*
X30479000Y-62451259D01*
X30513624Y-62277188D01*
X30581544Y-62113216D01*
X30680147Y-61965646D01*
X30805646Y-61840147D01*
X30953216Y-61741544D01*
X31117188Y-61673624D01*
X31266488Y-61643927D01*
X31291258Y-61639000D01*
X31468742Y-61639000D01*
X31493512Y-61643927D01*
G37*
G36*
X39113512Y-61643927D02*
G01*
X39262812Y-61673624D01*
X39426784Y-61741544D01*
X39574354Y-61840147D01*
X39699853Y-61965646D01*
X39798456Y-62113216D01*
X39866376Y-62277188D01*
X39901000Y-62451259D01*
X39901000Y-62628741D01*
X39866376Y-62802812D01*
X39798456Y-62966784D01*
X39699853Y-63114354D01*
X39574354Y-63239853D01*
X39426784Y-63338456D01*
X39262812Y-63406376D01*
X39113512Y-63436073D01*
X39088742Y-63441000D01*
X38911258Y-63441000D01*
X38886488Y-63436073D01*
X38737188Y-63406376D01*
X38573216Y-63338456D01*
X38425646Y-63239853D01*
X38300147Y-63114354D01*
X38201544Y-62966784D01*
X38133624Y-62802812D01*
X38099000Y-62628741D01*
X38099000Y-62451259D01*
X38133624Y-62277188D01*
X38201544Y-62113216D01*
X38300147Y-61965646D01*
X38425646Y-61840147D01*
X38573216Y-61741544D01*
X38737188Y-61673624D01*
X38886488Y-61643927D01*
X38911258Y-61639000D01*
X39088742Y-61639000D01*
X39113512Y-61643927D01*
G37*
G36*
X36573512Y-61643927D02*
G01*
X36722812Y-61673624D01*
X36886784Y-61741544D01*
X37034354Y-61840147D01*
X37159853Y-61965646D01*
X37258456Y-62113216D01*
X37326376Y-62277188D01*
X37361000Y-62451259D01*
X37361000Y-62628741D01*
X37326376Y-62802812D01*
X37258456Y-62966784D01*
X37159853Y-63114354D01*
X37034354Y-63239853D01*
X36886784Y-63338456D01*
X36722812Y-63406376D01*
X36573512Y-63436073D01*
X36548742Y-63441000D01*
X36371258Y-63441000D01*
X36346488Y-63436073D01*
X36197188Y-63406376D01*
X36033216Y-63338456D01*
X35885646Y-63239853D01*
X35760147Y-63114354D01*
X35661544Y-62966784D01*
X35593624Y-62802812D01*
X35559000Y-62628741D01*
X35559000Y-62451259D01*
X35593624Y-62277188D01*
X35661544Y-62113216D01*
X35760147Y-61965646D01*
X35885646Y-61840147D01*
X36033216Y-61741544D01*
X36197188Y-61673624D01*
X36346488Y-61643927D01*
X36371258Y-61639000D01*
X36548742Y-61639000D01*
X36573512Y-61643927D01*
G37*
G36*
X34033512Y-61643927D02*
G01*
X34182812Y-61673624D01*
X34346784Y-61741544D01*
X34494354Y-61840147D01*
X34619853Y-61965646D01*
X34718456Y-62113216D01*
X34786376Y-62277188D01*
X34821000Y-62451259D01*
X34821000Y-62628741D01*
X34786376Y-62802812D01*
X34718456Y-62966784D01*
X34619853Y-63114354D01*
X34494354Y-63239853D01*
X34346784Y-63338456D01*
X34182812Y-63406376D01*
X34033512Y-63436073D01*
X34008742Y-63441000D01*
X33831258Y-63441000D01*
X33806488Y-63436073D01*
X33657188Y-63406376D01*
X33493216Y-63338456D01*
X33345646Y-63239853D01*
X33220147Y-63114354D01*
X33121544Y-62966784D01*
X33053624Y-62802812D01*
X33019000Y-62628741D01*
X33019000Y-62451259D01*
X33053624Y-62277188D01*
X33121544Y-62113216D01*
X33220147Y-61965646D01*
X33345646Y-61840147D01*
X33493216Y-61741544D01*
X33657188Y-61673624D01*
X33806488Y-61643927D01*
X33831258Y-61639000D01*
X34008742Y-61639000D01*
X34033512Y-61643927D01*
G37*
G36*
X57623512Y-60363927D02*
G01*
X57772812Y-60393624D01*
X57936784Y-60461544D01*
X58084354Y-60560147D01*
X58209853Y-60685646D01*
X58308456Y-60833216D01*
X58376376Y-60997188D01*
X58411000Y-61171259D01*
X58411000Y-61348741D01*
X58376376Y-61522812D01*
X58308456Y-61686784D01*
X58209853Y-61834354D01*
X58084354Y-61959853D01*
X57936784Y-62058456D01*
X57772812Y-62126376D01*
X57623512Y-62156073D01*
X57598742Y-62161000D01*
X57421258Y-62161000D01*
X57396488Y-62156073D01*
X57247188Y-62126376D01*
X57083216Y-62058456D01*
X56935646Y-61959853D01*
X56810147Y-61834354D01*
X56711544Y-61686784D01*
X56643624Y-61522812D01*
X56609000Y-61348741D01*
X56609000Y-61171259D01*
X56643624Y-60997188D01*
X56711544Y-60833216D01*
X56810147Y-60685646D01*
X56935646Y-60560147D01*
X57083216Y-60461544D01*
X57247188Y-60393624D01*
X57396488Y-60363927D01*
X57421258Y-60359000D01*
X57598742Y-60359000D01*
X57623512Y-60363927D01*
G37*
G36*
X115883512Y-60363927D02*
G01*
X116032812Y-60393624D01*
X116196784Y-60461544D01*
X116344354Y-60560147D01*
X116469853Y-60685646D01*
X116568456Y-60833216D01*
X116636376Y-60997188D01*
X116671000Y-61171259D01*
X116671000Y-61348741D01*
X116636376Y-61522812D01*
X116568456Y-61686784D01*
X116469853Y-61834354D01*
X116344354Y-61959853D01*
X116196784Y-62058456D01*
X116032812Y-62126376D01*
X115883512Y-62156073D01*
X115858742Y-62161000D01*
X115681258Y-62161000D01*
X115656488Y-62156073D01*
X115507188Y-62126376D01*
X115343216Y-62058456D01*
X115195646Y-61959853D01*
X115070147Y-61834354D01*
X114971544Y-61686784D01*
X114903624Y-61522812D01*
X114869000Y-61348741D01*
X114869000Y-61171259D01*
X114903624Y-60997188D01*
X114971544Y-60833216D01*
X115070147Y-60685646D01*
X115195646Y-60560147D01*
X115343216Y-60461544D01*
X115507188Y-60393624D01*
X115656488Y-60363927D01*
X115681258Y-60359000D01*
X115858742Y-60359000D01*
X115883512Y-60363927D01*
G37*
G36*
X45083512Y-60363927D02*
G01*
X45232812Y-60393624D01*
X45396784Y-60461544D01*
X45544354Y-60560147D01*
X45669853Y-60685646D01*
X45768456Y-60833216D01*
X45836376Y-60997188D01*
X45871000Y-61171259D01*
X45871000Y-61348741D01*
X45836376Y-61522812D01*
X45768456Y-61686784D01*
X45669853Y-61834354D01*
X45544354Y-61959853D01*
X45396784Y-62058456D01*
X45232812Y-62126376D01*
X45083512Y-62156073D01*
X45058742Y-62161000D01*
X44881258Y-62161000D01*
X44856488Y-62156073D01*
X44707188Y-62126376D01*
X44543216Y-62058456D01*
X44395646Y-61959853D01*
X44270147Y-61834354D01*
X44171544Y-61686784D01*
X44103624Y-61522812D01*
X44069000Y-61348741D01*
X44069000Y-61171259D01*
X44103624Y-60997188D01*
X44171544Y-60833216D01*
X44270147Y-60685646D01*
X44395646Y-60560147D01*
X44543216Y-60461544D01*
X44707188Y-60393624D01*
X44856488Y-60363927D01*
X44881258Y-60359000D01*
X45058742Y-60359000D01*
X45083512Y-60363927D01*
G37*
G36*
X47623512Y-60363927D02*
G01*
X47772812Y-60393624D01*
X47936784Y-60461544D01*
X48084354Y-60560147D01*
X48209853Y-60685646D01*
X48308456Y-60833216D01*
X48376376Y-60997188D01*
X48411000Y-61171259D01*
X48411000Y-61348741D01*
X48376376Y-61522812D01*
X48308456Y-61686784D01*
X48209853Y-61834354D01*
X48084354Y-61959853D01*
X47936784Y-62058456D01*
X47772812Y-62126376D01*
X47623512Y-62156073D01*
X47598742Y-62161000D01*
X47421258Y-62161000D01*
X47396488Y-62156073D01*
X47247188Y-62126376D01*
X47083216Y-62058456D01*
X46935646Y-61959853D01*
X46810147Y-61834354D01*
X46711544Y-61686784D01*
X46643624Y-61522812D01*
X46609000Y-61348741D01*
X46609000Y-61171259D01*
X46643624Y-60997188D01*
X46711544Y-60833216D01*
X46810147Y-60685646D01*
X46935646Y-60560147D01*
X47083216Y-60461544D01*
X47247188Y-60393624D01*
X47396488Y-60363927D01*
X47421258Y-60359000D01*
X47598742Y-60359000D01*
X47623512Y-60363927D01*
G37*
G36*
X103343512Y-60363927D02*
G01*
X103492812Y-60393624D01*
X103656784Y-60461544D01*
X103804354Y-60560147D01*
X103929853Y-60685646D01*
X104028456Y-60833216D01*
X104096376Y-60997188D01*
X104131000Y-61171259D01*
X104131000Y-61348741D01*
X104096376Y-61522812D01*
X104028456Y-61686784D01*
X103929853Y-61834354D01*
X103804354Y-61959853D01*
X103656784Y-62058456D01*
X103492812Y-62126376D01*
X103343512Y-62156073D01*
X103318742Y-62161000D01*
X103141258Y-62161000D01*
X103116488Y-62156073D01*
X102967188Y-62126376D01*
X102803216Y-62058456D01*
X102655646Y-61959853D01*
X102530147Y-61834354D01*
X102431544Y-61686784D01*
X102363624Y-61522812D01*
X102329000Y-61348741D01*
X102329000Y-61171259D01*
X102363624Y-60997188D01*
X102431544Y-60833216D01*
X102530147Y-60685646D01*
X102655646Y-60560147D01*
X102803216Y-60461544D01*
X102967188Y-60393624D01*
X103116488Y-60363927D01*
X103141258Y-60359000D01*
X103318742Y-60359000D01*
X103343512Y-60363927D01*
G37*
G36*
X113343512Y-60363927D02*
G01*
X113492812Y-60393624D01*
X113656784Y-60461544D01*
X113804354Y-60560147D01*
X113929853Y-60685646D01*
X114028456Y-60833216D01*
X114096376Y-60997188D01*
X114131000Y-61171259D01*
X114131000Y-61348741D01*
X114096376Y-61522812D01*
X114028456Y-61686784D01*
X113929853Y-61834354D01*
X113804354Y-61959853D01*
X113656784Y-62058456D01*
X113492812Y-62126376D01*
X113343512Y-62156073D01*
X113318742Y-62161000D01*
X113141258Y-62161000D01*
X113116488Y-62156073D01*
X112967188Y-62126376D01*
X112803216Y-62058456D01*
X112655646Y-61959853D01*
X112530147Y-61834354D01*
X112431544Y-61686784D01*
X112363624Y-61522812D01*
X112329000Y-61348741D01*
X112329000Y-61171259D01*
X112363624Y-60997188D01*
X112431544Y-60833216D01*
X112530147Y-60685646D01*
X112655646Y-60560147D01*
X112803216Y-60461544D01*
X112967188Y-60393624D01*
X113116488Y-60363927D01*
X113141258Y-60359000D01*
X113318742Y-60359000D01*
X113343512Y-60363927D01*
G37*
G36*
X39901000Y-60901000D02*
G01*
X38099000Y-60901000D01*
X38099000Y-59099000D01*
X39901000Y-59099000D01*
X39901000Y-60901000D01*
G37*
G36*
X34033512Y-59103927D02*
G01*
X34182812Y-59133624D01*
X34346784Y-59201544D01*
X34494354Y-59300147D01*
X34619853Y-59425646D01*
X34718456Y-59573216D01*
X34786376Y-59737188D01*
X34821000Y-59911259D01*
X34821000Y-60088741D01*
X34786376Y-60262812D01*
X34718456Y-60426784D01*
X34619853Y-60574354D01*
X34494354Y-60699853D01*
X34346784Y-60798456D01*
X34182812Y-60866376D01*
X34033512Y-60896073D01*
X34008742Y-60901000D01*
X33831258Y-60901000D01*
X33806488Y-60896073D01*
X33657188Y-60866376D01*
X33493216Y-60798456D01*
X33345646Y-60699853D01*
X33220147Y-60574354D01*
X33121544Y-60426784D01*
X33053624Y-60262812D01*
X33019000Y-60088741D01*
X33019000Y-59911259D01*
X33053624Y-59737188D01*
X33121544Y-59573216D01*
X33220147Y-59425646D01*
X33345646Y-59300147D01*
X33493216Y-59201544D01*
X33657188Y-59133624D01*
X33806488Y-59103927D01*
X33831258Y-59099000D01*
X34008742Y-59099000D01*
X34033512Y-59103927D01*
G37*
G36*
X31493512Y-59103927D02*
G01*
X31642812Y-59133624D01*
X31806784Y-59201544D01*
X31954354Y-59300147D01*
X32079853Y-59425646D01*
X32178456Y-59573216D01*
X32246376Y-59737188D01*
X32281000Y-59911259D01*
X32281000Y-60088741D01*
X32246376Y-60262812D01*
X32178456Y-60426784D01*
X32079853Y-60574354D01*
X31954354Y-60699853D01*
X31806784Y-60798456D01*
X31642812Y-60866376D01*
X31493512Y-60896073D01*
X31468742Y-60901000D01*
X31291258Y-60901000D01*
X31266488Y-60896073D01*
X31117188Y-60866376D01*
X30953216Y-60798456D01*
X30805646Y-60699853D01*
X30680147Y-60574354D01*
X30581544Y-60426784D01*
X30513624Y-60262812D01*
X30479000Y-60088741D01*
X30479000Y-59911259D01*
X30513624Y-59737188D01*
X30581544Y-59573216D01*
X30680147Y-59425646D01*
X30805646Y-59300147D01*
X30953216Y-59201544D01*
X31117188Y-59133624D01*
X31266488Y-59103927D01*
X31291258Y-59099000D01*
X31468742Y-59099000D01*
X31493512Y-59103927D01*
G37*
G36*
X36573512Y-59103927D02*
G01*
X36722812Y-59133624D01*
X36886784Y-59201544D01*
X37034354Y-59300147D01*
X37159853Y-59425646D01*
X37258456Y-59573216D01*
X37326376Y-59737188D01*
X37361000Y-59911259D01*
X37361000Y-60088741D01*
X37326376Y-60262812D01*
X37258456Y-60426784D01*
X37159853Y-60574354D01*
X37034354Y-60699853D01*
X36886784Y-60798456D01*
X36722812Y-60866376D01*
X36573512Y-60896073D01*
X36548742Y-60901000D01*
X36371258Y-60901000D01*
X36346488Y-60896073D01*
X36197188Y-60866376D01*
X36033216Y-60798456D01*
X35885646Y-60699853D01*
X35760147Y-60574354D01*
X35661544Y-60426784D01*
X35593624Y-60262812D01*
X35559000Y-60088741D01*
X35559000Y-59911259D01*
X35593624Y-59737188D01*
X35661544Y-59573216D01*
X35760147Y-59425646D01*
X35885646Y-59300147D01*
X36033216Y-59201544D01*
X36197188Y-59133624D01*
X36346488Y-59103927D01*
X36371258Y-59099000D01*
X36548742Y-59099000D01*
X36573512Y-59103927D01*
G37*
G36*
X103343512Y-57823927D02*
G01*
X103492812Y-57853624D01*
X103656784Y-57921544D01*
X103804354Y-58020147D01*
X103929853Y-58145646D01*
X104028456Y-58293216D01*
X104096376Y-58457188D01*
X104131000Y-58631259D01*
X104131000Y-58808741D01*
X104096376Y-58982812D01*
X104028456Y-59146784D01*
X103929853Y-59294354D01*
X103804354Y-59419853D01*
X103656784Y-59518456D01*
X103492812Y-59586376D01*
X103343512Y-59616073D01*
X103318742Y-59621000D01*
X103141258Y-59621000D01*
X103116488Y-59616073D01*
X102967188Y-59586376D01*
X102803216Y-59518456D01*
X102655646Y-59419853D01*
X102530147Y-59294354D01*
X102431544Y-59146784D01*
X102363624Y-58982812D01*
X102329000Y-58808741D01*
X102329000Y-58631259D01*
X102363624Y-58457188D01*
X102431544Y-58293216D01*
X102530147Y-58145646D01*
X102655646Y-58020147D01*
X102803216Y-57921544D01*
X102967188Y-57853624D01*
X103116488Y-57823927D01*
X103141258Y-57819000D01*
X103318742Y-57819000D01*
X103343512Y-57823927D01*
G37*
G36*
X57623512Y-57823927D02*
G01*
X57772812Y-57853624D01*
X57936784Y-57921544D01*
X58084354Y-58020147D01*
X58209853Y-58145646D01*
X58308456Y-58293216D01*
X58376376Y-58457188D01*
X58411000Y-58631259D01*
X58411000Y-58808741D01*
X58376376Y-58982812D01*
X58308456Y-59146784D01*
X58209853Y-59294354D01*
X58084354Y-59419853D01*
X57936784Y-59518456D01*
X57772812Y-59586376D01*
X57623512Y-59616073D01*
X57598742Y-59621000D01*
X57421258Y-59621000D01*
X57396488Y-59616073D01*
X57247188Y-59586376D01*
X57083216Y-59518456D01*
X56935646Y-59419853D01*
X56810147Y-59294354D01*
X56711544Y-59146784D01*
X56643624Y-58982812D01*
X56609000Y-58808741D01*
X56609000Y-58631259D01*
X56643624Y-58457188D01*
X56711544Y-58293216D01*
X56810147Y-58145646D01*
X56935646Y-58020147D01*
X57083216Y-57921544D01*
X57247188Y-57853624D01*
X57396488Y-57823927D01*
X57421258Y-57819000D01*
X57598742Y-57819000D01*
X57623512Y-57823927D01*
G37*
G36*
X45083512Y-57823927D02*
G01*
X45232812Y-57853624D01*
X45396784Y-57921544D01*
X45544354Y-58020147D01*
X45669853Y-58145646D01*
X45768456Y-58293216D01*
X45836376Y-58457188D01*
X45871000Y-58631259D01*
X45871000Y-58808741D01*
X45836376Y-58982812D01*
X45768456Y-59146784D01*
X45669853Y-59294354D01*
X45544354Y-59419853D01*
X45396784Y-59518456D01*
X45232812Y-59586376D01*
X45083512Y-59616073D01*
X45058742Y-59621000D01*
X44881258Y-59621000D01*
X44856488Y-59616073D01*
X44707188Y-59586376D01*
X44543216Y-59518456D01*
X44395646Y-59419853D01*
X44270147Y-59294354D01*
X44171544Y-59146784D01*
X44103624Y-58982812D01*
X44069000Y-58808741D01*
X44069000Y-58631259D01*
X44103624Y-58457188D01*
X44171544Y-58293216D01*
X44270147Y-58145646D01*
X44395646Y-58020147D01*
X44543216Y-57921544D01*
X44707188Y-57853624D01*
X44856488Y-57823927D01*
X44881258Y-57819000D01*
X45058742Y-57819000D01*
X45083512Y-57823927D01*
G37*
G36*
X47623512Y-57823927D02*
G01*
X47772812Y-57853624D01*
X47936784Y-57921544D01*
X48084354Y-58020147D01*
X48209853Y-58145646D01*
X48308456Y-58293216D01*
X48376376Y-58457188D01*
X48411000Y-58631259D01*
X48411000Y-58808741D01*
X48376376Y-58982812D01*
X48308456Y-59146784D01*
X48209853Y-59294354D01*
X48084354Y-59419853D01*
X47936784Y-59518456D01*
X47772812Y-59586376D01*
X47623512Y-59616073D01*
X47598742Y-59621000D01*
X47421258Y-59621000D01*
X47396488Y-59616073D01*
X47247188Y-59586376D01*
X47083216Y-59518456D01*
X46935646Y-59419853D01*
X46810147Y-59294354D01*
X46711544Y-59146784D01*
X46643624Y-58982812D01*
X46609000Y-58808741D01*
X46609000Y-58631259D01*
X46643624Y-58457188D01*
X46711544Y-58293216D01*
X46810147Y-58145646D01*
X46935646Y-58020147D01*
X47083216Y-57921544D01*
X47247188Y-57853624D01*
X47396488Y-57823927D01*
X47421258Y-57819000D01*
X47598742Y-57819000D01*
X47623512Y-57823927D01*
G37*
G36*
X115883512Y-57823927D02*
G01*
X116032812Y-57853624D01*
X116196784Y-57921544D01*
X116344354Y-58020147D01*
X116469853Y-58145646D01*
X116568456Y-58293216D01*
X116636376Y-58457188D01*
X116671000Y-58631259D01*
X116671000Y-58808741D01*
X116636376Y-58982812D01*
X116568456Y-59146784D01*
X116469853Y-59294354D01*
X116344354Y-59419853D01*
X116196784Y-59518456D01*
X116032812Y-59586376D01*
X115883512Y-59616073D01*
X115858742Y-59621000D01*
X115681258Y-59621000D01*
X115656488Y-59616073D01*
X115507188Y-59586376D01*
X115343216Y-59518456D01*
X115195646Y-59419853D01*
X115070147Y-59294354D01*
X114971544Y-59146784D01*
X114903624Y-58982812D01*
X114869000Y-58808741D01*
X114869000Y-58631259D01*
X114903624Y-58457188D01*
X114971544Y-58293216D01*
X115070147Y-58145646D01*
X115195646Y-58020147D01*
X115343216Y-57921544D01*
X115507188Y-57853624D01*
X115656488Y-57823927D01*
X115681258Y-57819000D01*
X115858742Y-57819000D01*
X115883512Y-57823927D01*
G37*
G36*
X113343512Y-57823927D02*
G01*
X113492812Y-57853624D01*
X113656784Y-57921544D01*
X113804354Y-58020147D01*
X113929853Y-58145646D01*
X114028456Y-58293216D01*
X114096376Y-58457188D01*
X114131000Y-58631259D01*
X114131000Y-58808741D01*
X114096376Y-58982812D01*
X114028456Y-59146784D01*
X113929853Y-59294354D01*
X113804354Y-59419853D01*
X113656784Y-59518456D01*
X113492812Y-59586376D01*
X113343512Y-59616073D01*
X113318742Y-59621000D01*
X113141258Y-59621000D01*
X113116488Y-59616073D01*
X112967188Y-59586376D01*
X112803216Y-59518456D01*
X112655646Y-59419853D01*
X112530147Y-59294354D01*
X112431544Y-59146784D01*
X112363624Y-58982812D01*
X112329000Y-58808741D01*
X112329000Y-58631259D01*
X112363624Y-58457188D01*
X112431544Y-58293216D01*
X112530147Y-58145646D01*
X112655646Y-58020147D01*
X112803216Y-57921544D01*
X112967188Y-57853624D01*
X113116488Y-57823927D01*
X113141258Y-57819000D01*
X113318742Y-57819000D01*
X113343512Y-57823927D01*
G37*
G36*
X47623512Y-55283927D02*
G01*
X47772812Y-55313624D01*
X47936784Y-55381544D01*
X48084354Y-55480147D01*
X48209853Y-55605646D01*
X48308456Y-55753216D01*
X48376376Y-55917188D01*
X48411000Y-56091259D01*
X48411000Y-56268741D01*
X48376376Y-56442812D01*
X48308456Y-56606784D01*
X48209853Y-56754354D01*
X48084354Y-56879853D01*
X47936784Y-56978456D01*
X47772812Y-57046376D01*
X47623512Y-57076073D01*
X47598742Y-57081000D01*
X47421258Y-57081000D01*
X47396488Y-57076073D01*
X47247188Y-57046376D01*
X47083216Y-56978456D01*
X46935646Y-56879853D01*
X46810147Y-56754354D01*
X46711544Y-56606784D01*
X46643624Y-56442812D01*
X46609000Y-56268741D01*
X46609000Y-56091259D01*
X46643624Y-55917188D01*
X46711544Y-55753216D01*
X46810147Y-55605646D01*
X46935646Y-55480147D01*
X47083216Y-55381544D01*
X47247188Y-55313624D01*
X47396488Y-55283927D01*
X47421258Y-55279000D01*
X47598742Y-55279000D01*
X47623512Y-55283927D01*
G37*
G36*
X45083512Y-55283927D02*
G01*
X45232812Y-55313624D01*
X45396784Y-55381544D01*
X45544354Y-55480147D01*
X45669853Y-55605646D01*
X45768456Y-55753216D01*
X45836376Y-55917188D01*
X45871000Y-56091259D01*
X45871000Y-56268741D01*
X45836376Y-56442812D01*
X45768456Y-56606784D01*
X45669853Y-56754354D01*
X45544354Y-56879853D01*
X45396784Y-56978456D01*
X45232812Y-57046376D01*
X45083512Y-57076073D01*
X45058742Y-57081000D01*
X44881258Y-57081000D01*
X44856488Y-57076073D01*
X44707188Y-57046376D01*
X44543216Y-56978456D01*
X44395646Y-56879853D01*
X44270147Y-56754354D01*
X44171544Y-56606784D01*
X44103624Y-56442812D01*
X44069000Y-56268741D01*
X44069000Y-56091259D01*
X44103624Y-55917188D01*
X44171544Y-55753216D01*
X44270147Y-55605646D01*
X44395646Y-55480147D01*
X44543216Y-55381544D01*
X44707188Y-55313624D01*
X44856488Y-55283927D01*
X44881258Y-55279000D01*
X45058742Y-55279000D01*
X45083512Y-55283927D01*
G37*
G36*
X115883512Y-55283927D02*
G01*
X116032812Y-55313624D01*
X116196784Y-55381544D01*
X116344354Y-55480147D01*
X116469853Y-55605646D01*
X116568456Y-55753216D01*
X116636376Y-55917188D01*
X116671000Y-56091259D01*
X116671000Y-56268741D01*
X116636376Y-56442812D01*
X116568456Y-56606784D01*
X116469853Y-56754354D01*
X116344354Y-56879853D01*
X116196784Y-56978456D01*
X116032812Y-57046376D01*
X115883512Y-57076073D01*
X115858742Y-57081000D01*
X115681258Y-57081000D01*
X115656488Y-57076073D01*
X115507188Y-57046376D01*
X115343216Y-56978456D01*
X115195646Y-56879853D01*
X115070147Y-56754354D01*
X114971544Y-56606784D01*
X114903624Y-56442812D01*
X114869000Y-56268741D01*
X114869000Y-56091259D01*
X114903624Y-55917188D01*
X114971544Y-55753216D01*
X115070147Y-55605646D01*
X115195646Y-55480147D01*
X115343216Y-55381544D01*
X115507188Y-55313624D01*
X115656488Y-55283927D01*
X115681258Y-55279000D01*
X115858742Y-55279000D01*
X115883512Y-55283927D01*
G37*
G36*
X113343512Y-55283927D02*
G01*
X113492812Y-55313624D01*
X113656784Y-55381544D01*
X113804354Y-55480147D01*
X113929853Y-55605646D01*
X114028456Y-55753216D01*
X114096376Y-55917188D01*
X114131000Y-56091259D01*
X114131000Y-56268741D01*
X114096376Y-56442812D01*
X114028456Y-56606784D01*
X113929853Y-56754354D01*
X113804354Y-56879853D01*
X113656784Y-56978456D01*
X113492812Y-57046376D01*
X113343512Y-57076073D01*
X113318742Y-57081000D01*
X113141258Y-57081000D01*
X113116488Y-57076073D01*
X112967188Y-57046376D01*
X112803216Y-56978456D01*
X112655646Y-56879853D01*
X112530147Y-56754354D01*
X112431544Y-56606784D01*
X112363624Y-56442812D01*
X112329000Y-56268741D01*
X112329000Y-56091259D01*
X112363624Y-55917188D01*
X112431544Y-55753216D01*
X112530147Y-55605646D01*
X112655646Y-55480147D01*
X112803216Y-55381544D01*
X112967188Y-55313624D01*
X113116488Y-55283927D01*
X113141258Y-55279000D01*
X113318742Y-55279000D01*
X113343512Y-55283927D01*
G37*
G36*
X103343512Y-55283927D02*
G01*
X103492812Y-55313624D01*
X103656784Y-55381544D01*
X103804354Y-55480147D01*
X103929853Y-55605646D01*
X104028456Y-55753216D01*
X104096376Y-55917188D01*
X104131000Y-56091259D01*
X104131000Y-56268741D01*
X104096376Y-56442812D01*
X104028456Y-56606784D01*
X103929853Y-56754354D01*
X103804354Y-56879853D01*
X103656784Y-56978456D01*
X103492812Y-57046376D01*
X103343512Y-57076073D01*
X103318742Y-57081000D01*
X103141258Y-57081000D01*
X103116488Y-57076073D01*
X102967188Y-57046376D01*
X102803216Y-56978456D01*
X102655646Y-56879853D01*
X102530147Y-56754354D01*
X102431544Y-56606784D01*
X102363624Y-56442812D01*
X102329000Y-56268741D01*
X102329000Y-56091259D01*
X102363624Y-55917188D01*
X102431544Y-55753216D01*
X102530147Y-55605646D01*
X102655646Y-55480147D01*
X102803216Y-55381544D01*
X102967188Y-55313624D01*
X103116488Y-55283927D01*
X103141258Y-55279000D01*
X103318742Y-55279000D01*
X103343512Y-55283927D01*
G37*
G36*
X57623512Y-55283927D02*
G01*
X57772812Y-55313624D01*
X57936784Y-55381544D01*
X58084354Y-55480147D01*
X58209853Y-55605646D01*
X58308456Y-55753216D01*
X58376376Y-55917188D01*
X58411000Y-56091259D01*
X58411000Y-56268741D01*
X58376376Y-56442812D01*
X58308456Y-56606784D01*
X58209853Y-56754354D01*
X58084354Y-56879853D01*
X57936784Y-56978456D01*
X57772812Y-57046376D01*
X57623512Y-57076073D01*
X57598742Y-57081000D01*
X57421258Y-57081000D01*
X57396488Y-57076073D01*
X57247188Y-57046376D01*
X57083216Y-56978456D01*
X56935646Y-56879853D01*
X56810147Y-56754354D01*
X56711544Y-56606784D01*
X56643624Y-56442812D01*
X56609000Y-56268741D01*
X56609000Y-56091259D01*
X56643624Y-55917188D01*
X56711544Y-55753216D01*
X56810147Y-55605646D01*
X56935646Y-55480147D01*
X57083216Y-55381544D01*
X57247188Y-55313624D01*
X57396488Y-55283927D01*
X57421258Y-55279000D01*
X57598742Y-55279000D01*
X57623512Y-55283927D01*
G37*
G36*
X39966236Y-47357169D02*
G01*
X40284173Y-47453615D01*
X40577173Y-47610227D01*
X40834000Y-47821000D01*
X41044773Y-48077827D01*
X41201385Y-48370827D01*
X41297831Y-48688764D01*
X41331000Y-49025540D01*
X41331000Y-54474460D01*
X41297831Y-54811236D01*
X41201385Y-55129173D01*
X41044773Y-55422173D01*
X40834000Y-55679000D01*
X40577173Y-55889773D01*
X40284173Y-56046385D01*
X39966236Y-56142831D01*
X39629460Y-56176000D01*
X31630540Y-56176000D01*
X31293764Y-56142831D01*
X30975827Y-56046385D01*
X30682827Y-55889773D01*
X30426000Y-55679000D01*
X30215227Y-55422173D01*
X30058615Y-55129173D01*
X29962169Y-54811236D01*
X29929000Y-54474460D01*
X29929000Y-49025540D01*
X29962169Y-48688764D01*
X30058615Y-48370827D01*
X30215227Y-48077827D01*
X30426000Y-47821000D01*
X30682827Y-47610227D01*
X30975827Y-47453615D01*
X31293764Y-47357169D01*
X31630540Y-47324000D01*
X39629460Y-47324000D01*
X39966236Y-47357169D01*
G37*
G36*
X95586236Y-47357169D02*
G01*
X95904173Y-47453615D01*
X96197173Y-47610227D01*
X96454000Y-47821000D01*
X96664773Y-48077827D01*
X96821385Y-48370827D01*
X96917831Y-48688764D01*
X96951000Y-49025540D01*
X96951000Y-54474460D01*
X96917831Y-54811236D01*
X96821385Y-55129173D01*
X96664773Y-55422173D01*
X96454000Y-55679000D01*
X96197173Y-55889773D01*
X95904173Y-56046385D01*
X95586236Y-56142831D01*
X95249460Y-56176000D01*
X87250540Y-56176000D01*
X86913764Y-56142831D01*
X86595827Y-56046385D01*
X86302827Y-55889773D01*
X86046000Y-55679000D01*
X85835227Y-55422173D01*
X85678615Y-55129173D01*
X85582169Y-54811236D01*
X85549000Y-54474460D01*
X85549000Y-49025540D01*
X85582169Y-48688764D01*
X85678615Y-48370827D01*
X85835227Y-48077827D01*
X86046000Y-47821000D01*
X86302827Y-47610227D01*
X86595827Y-47453615D01*
X86913764Y-47357169D01*
X87250540Y-47324000D01*
X95249460Y-47324000D01*
X95586236Y-47357169D01*
G37*
G36*
X103343512Y-52743927D02*
G01*
X103492812Y-52773624D01*
X103656784Y-52841544D01*
X103804354Y-52940147D01*
X103929853Y-53065646D01*
X104028456Y-53213216D01*
X104096376Y-53377188D01*
X104131000Y-53551259D01*
X104131000Y-53728741D01*
X104096376Y-53902812D01*
X104028456Y-54066784D01*
X103929853Y-54214354D01*
X103804354Y-54339853D01*
X103656784Y-54438456D01*
X103492812Y-54506376D01*
X103343512Y-54536073D01*
X103318742Y-54541000D01*
X103141258Y-54541000D01*
X103116488Y-54536073D01*
X102967188Y-54506376D01*
X102803216Y-54438456D01*
X102655646Y-54339853D01*
X102530147Y-54214354D01*
X102431544Y-54066784D01*
X102363624Y-53902812D01*
X102329000Y-53728741D01*
X102329000Y-53551259D01*
X102363624Y-53377188D01*
X102431544Y-53213216D01*
X102530147Y-53065646D01*
X102655646Y-52940147D01*
X102803216Y-52841544D01*
X102967188Y-52773624D01*
X103116488Y-52743927D01*
X103141258Y-52739000D01*
X103318742Y-52739000D01*
X103343512Y-52743927D01*
G37*
G36*
X57623512Y-52743927D02*
G01*
X57772812Y-52773624D01*
X57936784Y-52841544D01*
X58084354Y-52940147D01*
X58209853Y-53065646D01*
X58308456Y-53213216D01*
X58376376Y-53377188D01*
X58411000Y-53551259D01*
X58411000Y-53728741D01*
X58376376Y-53902812D01*
X58308456Y-54066784D01*
X58209853Y-54214354D01*
X58084354Y-54339853D01*
X57936784Y-54438456D01*
X57772812Y-54506376D01*
X57623512Y-54536073D01*
X57598742Y-54541000D01*
X57421258Y-54541000D01*
X57396488Y-54536073D01*
X57247188Y-54506376D01*
X57083216Y-54438456D01*
X56935646Y-54339853D01*
X56810147Y-54214354D01*
X56711544Y-54066784D01*
X56643624Y-53902812D01*
X56609000Y-53728741D01*
X56609000Y-53551259D01*
X56643624Y-53377188D01*
X56711544Y-53213216D01*
X56810147Y-53065646D01*
X56935646Y-52940147D01*
X57083216Y-52841544D01*
X57247188Y-52773624D01*
X57396488Y-52743927D01*
X57421258Y-52739000D01*
X57598742Y-52739000D01*
X57623512Y-52743927D01*
G37*
G36*
X45083512Y-52743927D02*
G01*
X45232812Y-52773624D01*
X45396784Y-52841544D01*
X45544354Y-52940147D01*
X45669853Y-53065646D01*
X45768456Y-53213216D01*
X45836376Y-53377188D01*
X45871000Y-53551259D01*
X45871000Y-53728741D01*
X45836376Y-53902812D01*
X45768456Y-54066784D01*
X45669853Y-54214354D01*
X45544354Y-54339853D01*
X45396784Y-54438456D01*
X45232812Y-54506376D01*
X45083512Y-54536073D01*
X45058742Y-54541000D01*
X44881258Y-54541000D01*
X44856488Y-54536073D01*
X44707188Y-54506376D01*
X44543216Y-54438456D01*
X44395646Y-54339853D01*
X44270147Y-54214354D01*
X44171544Y-54066784D01*
X44103624Y-53902812D01*
X44069000Y-53728741D01*
X44069000Y-53551259D01*
X44103624Y-53377188D01*
X44171544Y-53213216D01*
X44270147Y-53065646D01*
X44395646Y-52940147D01*
X44543216Y-52841544D01*
X44707188Y-52773624D01*
X44856488Y-52743927D01*
X44881258Y-52739000D01*
X45058742Y-52739000D01*
X45083512Y-52743927D01*
G37*
G36*
X47623512Y-52743927D02*
G01*
X47772812Y-52773624D01*
X47936784Y-52841544D01*
X48084354Y-52940147D01*
X48209853Y-53065646D01*
X48308456Y-53213216D01*
X48376376Y-53377188D01*
X48411000Y-53551259D01*
X48411000Y-53728741D01*
X48376376Y-53902812D01*
X48308456Y-54066784D01*
X48209853Y-54214354D01*
X48084354Y-54339853D01*
X47936784Y-54438456D01*
X47772812Y-54506376D01*
X47623512Y-54536073D01*
X47598742Y-54541000D01*
X47421258Y-54541000D01*
X47396488Y-54536073D01*
X47247188Y-54506376D01*
X47083216Y-54438456D01*
X46935646Y-54339853D01*
X46810147Y-54214354D01*
X46711544Y-54066784D01*
X46643624Y-53902812D01*
X46609000Y-53728741D01*
X46609000Y-53551259D01*
X46643624Y-53377188D01*
X46711544Y-53213216D01*
X46810147Y-53065646D01*
X46935646Y-52940147D01*
X47083216Y-52841544D01*
X47247188Y-52773624D01*
X47396488Y-52743927D01*
X47421258Y-52739000D01*
X47598742Y-52739000D01*
X47623512Y-52743927D01*
G37*
G36*
X113343512Y-52743927D02*
G01*
X113492812Y-52773624D01*
X113656784Y-52841544D01*
X113804354Y-52940147D01*
X113929853Y-53065646D01*
X114028456Y-53213216D01*
X114096376Y-53377188D01*
X114131000Y-53551259D01*
X114131000Y-53728741D01*
X114096376Y-53902812D01*
X114028456Y-54066784D01*
X113929853Y-54214354D01*
X113804354Y-54339853D01*
X113656784Y-54438456D01*
X113492812Y-54506376D01*
X113343512Y-54536073D01*
X113318742Y-54541000D01*
X113141258Y-54541000D01*
X113116488Y-54536073D01*
X112967188Y-54506376D01*
X112803216Y-54438456D01*
X112655646Y-54339853D01*
X112530147Y-54214354D01*
X112431544Y-54066784D01*
X112363624Y-53902812D01*
X112329000Y-53728741D01*
X112329000Y-53551259D01*
X112363624Y-53377188D01*
X112431544Y-53213216D01*
X112530147Y-53065646D01*
X112655646Y-52940147D01*
X112803216Y-52841544D01*
X112967188Y-52773624D01*
X113116488Y-52743927D01*
X113141258Y-52739000D01*
X113318742Y-52739000D01*
X113343512Y-52743927D01*
G37*
G36*
X115883512Y-52743927D02*
G01*
X116032812Y-52773624D01*
X116196784Y-52841544D01*
X116344354Y-52940147D01*
X116469853Y-53065646D01*
X116568456Y-53213216D01*
X116636376Y-53377188D01*
X116671000Y-53551259D01*
X116671000Y-53728741D01*
X116636376Y-53902812D01*
X116568456Y-54066784D01*
X116469853Y-54214354D01*
X116344354Y-54339853D01*
X116196784Y-54438456D01*
X116032812Y-54506376D01*
X115883512Y-54536073D01*
X115858742Y-54541000D01*
X115681258Y-54541000D01*
X115656488Y-54536073D01*
X115507188Y-54506376D01*
X115343216Y-54438456D01*
X115195646Y-54339853D01*
X115070147Y-54214354D01*
X114971544Y-54066784D01*
X114903624Y-53902812D01*
X114869000Y-53728741D01*
X114869000Y-53551259D01*
X114903624Y-53377188D01*
X114971544Y-53213216D01*
X115070147Y-53065646D01*
X115195646Y-52940147D01*
X115343216Y-52841544D01*
X115507188Y-52773624D01*
X115656488Y-52743927D01*
X115681258Y-52739000D01*
X115858742Y-52739000D01*
X115883512Y-52743927D01*
G37*
G36*
X113343512Y-50203927D02*
G01*
X113492812Y-50233624D01*
X113656784Y-50301544D01*
X113804354Y-50400147D01*
X113929853Y-50525646D01*
X114028456Y-50673216D01*
X114096376Y-50837188D01*
X114131000Y-51011259D01*
X114131000Y-51188741D01*
X114096376Y-51362812D01*
X114028456Y-51526784D01*
X113929853Y-51674354D01*
X113804354Y-51799853D01*
X113656784Y-51898456D01*
X113492812Y-51966376D01*
X113343512Y-51996073D01*
X113318742Y-52001000D01*
X113141258Y-52001000D01*
X113116488Y-51996073D01*
X112967188Y-51966376D01*
X112803216Y-51898456D01*
X112655646Y-51799853D01*
X112530147Y-51674354D01*
X112431544Y-51526784D01*
X112363624Y-51362812D01*
X112329000Y-51188741D01*
X112329000Y-51011259D01*
X112363624Y-50837188D01*
X112431544Y-50673216D01*
X112530147Y-50525646D01*
X112655646Y-50400147D01*
X112803216Y-50301544D01*
X112967188Y-50233624D01*
X113116488Y-50203927D01*
X113141258Y-50199000D01*
X113318742Y-50199000D01*
X113343512Y-50203927D01*
G37*
G36*
X115883512Y-50203927D02*
G01*
X116032812Y-50233624D01*
X116196784Y-50301544D01*
X116344354Y-50400147D01*
X116469853Y-50525646D01*
X116568456Y-50673216D01*
X116636376Y-50837188D01*
X116671000Y-51011259D01*
X116671000Y-51188741D01*
X116636376Y-51362812D01*
X116568456Y-51526784D01*
X116469853Y-51674354D01*
X116344354Y-51799853D01*
X116196784Y-51898456D01*
X116032812Y-51966376D01*
X115883512Y-51996073D01*
X115858742Y-52001000D01*
X115681258Y-52001000D01*
X115656488Y-51996073D01*
X115507188Y-51966376D01*
X115343216Y-51898456D01*
X115195646Y-51799853D01*
X115070147Y-51674354D01*
X114971544Y-51526784D01*
X114903624Y-51362812D01*
X114869000Y-51188741D01*
X114869000Y-51011259D01*
X114903624Y-50837188D01*
X114971544Y-50673216D01*
X115070147Y-50525646D01*
X115195646Y-50400147D01*
X115343216Y-50301544D01*
X115507188Y-50233624D01*
X115656488Y-50203927D01*
X115681258Y-50199000D01*
X115858742Y-50199000D01*
X115883512Y-50203927D01*
G37*
G36*
X103343512Y-50203927D02*
G01*
X103492812Y-50233624D01*
X103656784Y-50301544D01*
X103804354Y-50400147D01*
X103929853Y-50525646D01*
X104028456Y-50673216D01*
X104096376Y-50837188D01*
X104131000Y-51011259D01*
X104131000Y-51188741D01*
X104096376Y-51362812D01*
X104028456Y-51526784D01*
X103929853Y-51674354D01*
X103804354Y-51799853D01*
X103656784Y-51898456D01*
X103492812Y-51966376D01*
X103343512Y-51996073D01*
X103318742Y-52001000D01*
X103141258Y-52001000D01*
X103116488Y-51996073D01*
X102967188Y-51966376D01*
X102803216Y-51898456D01*
X102655646Y-51799853D01*
X102530147Y-51674354D01*
X102431544Y-51526784D01*
X102363624Y-51362812D01*
X102329000Y-51188741D01*
X102329000Y-51011259D01*
X102363624Y-50837188D01*
X102431544Y-50673216D01*
X102530147Y-50525646D01*
X102655646Y-50400147D01*
X102803216Y-50301544D01*
X102967188Y-50233624D01*
X103116488Y-50203927D01*
X103141258Y-50199000D01*
X103318742Y-50199000D01*
X103343512Y-50203927D01*
G37*
G36*
X57623512Y-50203927D02*
G01*
X57772812Y-50233624D01*
X57936784Y-50301544D01*
X58084354Y-50400147D01*
X58209853Y-50525646D01*
X58308456Y-50673216D01*
X58376376Y-50837188D01*
X58411000Y-51011259D01*
X58411000Y-51188741D01*
X58376376Y-51362812D01*
X58308456Y-51526784D01*
X58209853Y-51674354D01*
X58084354Y-51799853D01*
X57936784Y-51898456D01*
X57772812Y-51966376D01*
X57623512Y-51996073D01*
X57598742Y-52001000D01*
X57421258Y-52001000D01*
X57396488Y-51996073D01*
X57247188Y-51966376D01*
X57083216Y-51898456D01*
X56935646Y-51799853D01*
X56810147Y-51674354D01*
X56711544Y-51526784D01*
X56643624Y-51362812D01*
X56609000Y-51188741D01*
X56609000Y-51011259D01*
X56643624Y-50837188D01*
X56711544Y-50673216D01*
X56810147Y-50525646D01*
X56935646Y-50400147D01*
X57083216Y-50301544D01*
X57247188Y-50233624D01*
X57396488Y-50203927D01*
X57421258Y-50199000D01*
X57598742Y-50199000D01*
X57623512Y-50203927D01*
G37*
G36*
X45083512Y-50203927D02*
G01*
X45232812Y-50233624D01*
X45396784Y-50301544D01*
X45544354Y-50400147D01*
X45669853Y-50525646D01*
X45768456Y-50673216D01*
X45836376Y-50837188D01*
X45871000Y-51011259D01*
X45871000Y-51188741D01*
X45836376Y-51362812D01*
X45768456Y-51526784D01*
X45669853Y-51674354D01*
X45544354Y-51799853D01*
X45396784Y-51898456D01*
X45232812Y-51966376D01*
X45083512Y-51996073D01*
X45058742Y-52001000D01*
X44881258Y-52001000D01*
X44856488Y-51996073D01*
X44707188Y-51966376D01*
X44543216Y-51898456D01*
X44395646Y-51799853D01*
X44270147Y-51674354D01*
X44171544Y-51526784D01*
X44103624Y-51362812D01*
X44069000Y-51188741D01*
X44069000Y-51011259D01*
X44103624Y-50837188D01*
X44171544Y-50673216D01*
X44270147Y-50525646D01*
X44395646Y-50400147D01*
X44543216Y-50301544D01*
X44707188Y-50233624D01*
X44856488Y-50203927D01*
X44881258Y-50199000D01*
X45058742Y-50199000D01*
X45083512Y-50203927D01*
G37*
G36*
X47623512Y-50203927D02*
G01*
X47772812Y-50233624D01*
X47936784Y-50301544D01*
X48084354Y-50400147D01*
X48209853Y-50525646D01*
X48308456Y-50673216D01*
X48376376Y-50837188D01*
X48411000Y-51011259D01*
X48411000Y-51188741D01*
X48376376Y-51362812D01*
X48308456Y-51526784D01*
X48209853Y-51674354D01*
X48084354Y-51799853D01*
X47936784Y-51898456D01*
X47772812Y-51966376D01*
X47623512Y-51996073D01*
X47598742Y-52001000D01*
X47421258Y-52001000D01*
X47396488Y-51996073D01*
X47247188Y-51966376D01*
X47083216Y-51898456D01*
X46935646Y-51799853D01*
X46810147Y-51674354D01*
X46711544Y-51526784D01*
X46643624Y-51362812D01*
X46609000Y-51188741D01*
X46609000Y-51011259D01*
X46643624Y-50837188D01*
X46711544Y-50673216D01*
X46810147Y-50525646D01*
X46935646Y-50400147D01*
X47083216Y-50301544D01*
X47247188Y-50233624D01*
X47396488Y-50203927D01*
X47421258Y-50199000D01*
X47598742Y-50199000D01*
X47623512Y-50203927D01*
G37*
G36*
X79743512Y-49333927D02*
G01*
X79892812Y-49363624D01*
X80056784Y-49431544D01*
X80204354Y-49530147D01*
X80329853Y-49655646D01*
X80428456Y-49803216D01*
X80496376Y-49967188D01*
X80531000Y-50141259D01*
X80531000Y-50318741D01*
X80496376Y-50492812D01*
X80428456Y-50656784D01*
X80329853Y-50804354D01*
X80204354Y-50929853D01*
X80056784Y-51028456D01*
X79892812Y-51096376D01*
X79743512Y-51126073D01*
X79718742Y-51131000D01*
X79541258Y-51131000D01*
X79516488Y-51126073D01*
X79367188Y-51096376D01*
X79203216Y-51028456D01*
X79055646Y-50929853D01*
X78930147Y-50804354D01*
X78831544Y-50656784D01*
X78763624Y-50492812D01*
X78729000Y-50318741D01*
X78729000Y-50141259D01*
X78763624Y-49967188D01*
X78831544Y-49803216D01*
X78930147Y-49655646D01*
X79055646Y-49530147D01*
X79203216Y-49431544D01*
X79367188Y-49363624D01*
X79516488Y-49333927D01*
X79541258Y-49329000D01*
X79718742Y-49329000D01*
X79743512Y-49333927D01*
G37*
G36*
X47623512Y-47663927D02*
G01*
X47772812Y-47693624D01*
X47936784Y-47761544D01*
X48084354Y-47860147D01*
X48209853Y-47985646D01*
X48308456Y-48133216D01*
X48376376Y-48297188D01*
X48411000Y-48471259D01*
X48411000Y-48648741D01*
X48376376Y-48822812D01*
X48308456Y-48986784D01*
X48209853Y-49134354D01*
X48084354Y-49259853D01*
X47936784Y-49358456D01*
X47772812Y-49426376D01*
X47623512Y-49456073D01*
X47598742Y-49461000D01*
X47421258Y-49461000D01*
X47396488Y-49456073D01*
X47247188Y-49426376D01*
X47083216Y-49358456D01*
X46935646Y-49259853D01*
X46810147Y-49134354D01*
X46711544Y-48986784D01*
X46643624Y-48822812D01*
X46609000Y-48648741D01*
X46609000Y-48471259D01*
X46643624Y-48297188D01*
X46711544Y-48133216D01*
X46810147Y-47985646D01*
X46935646Y-47860147D01*
X47083216Y-47761544D01*
X47247188Y-47693624D01*
X47396488Y-47663927D01*
X47421258Y-47659000D01*
X47598742Y-47659000D01*
X47623512Y-47663927D01*
G37*
G36*
X57623512Y-47663927D02*
G01*
X57772812Y-47693624D01*
X57936784Y-47761544D01*
X58084354Y-47860147D01*
X58209853Y-47985646D01*
X58308456Y-48133216D01*
X58376376Y-48297188D01*
X58411000Y-48471259D01*
X58411000Y-48648741D01*
X58376376Y-48822812D01*
X58308456Y-48986784D01*
X58209853Y-49134354D01*
X58084354Y-49259853D01*
X57936784Y-49358456D01*
X57772812Y-49426376D01*
X57623512Y-49456073D01*
X57598742Y-49461000D01*
X57421258Y-49461000D01*
X57396488Y-49456073D01*
X57247188Y-49426376D01*
X57083216Y-49358456D01*
X56935646Y-49259853D01*
X56810147Y-49134354D01*
X56711544Y-48986784D01*
X56643624Y-48822812D01*
X56609000Y-48648741D01*
X56609000Y-48471259D01*
X56643624Y-48297188D01*
X56711544Y-48133216D01*
X56810147Y-47985646D01*
X56935646Y-47860147D01*
X57083216Y-47761544D01*
X57247188Y-47693624D01*
X57396488Y-47663927D01*
X57421258Y-47659000D01*
X57598742Y-47659000D01*
X57623512Y-47663927D01*
G37*
G36*
X103343512Y-47663927D02*
G01*
X103492812Y-47693624D01*
X103656784Y-47761544D01*
X103804354Y-47860147D01*
X103929853Y-47985646D01*
X104028456Y-48133216D01*
X104096376Y-48297188D01*
X104131000Y-48471259D01*
X104131000Y-48648741D01*
X104096376Y-48822812D01*
X104028456Y-48986784D01*
X103929853Y-49134354D01*
X103804354Y-49259853D01*
X103656784Y-49358456D01*
X103492812Y-49426376D01*
X103343512Y-49456073D01*
X103318742Y-49461000D01*
X103141258Y-49461000D01*
X103116488Y-49456073D01*
X102967188Y-49426376D01*
X102803216Y-49358456D01*
X102655646Y-49259853D01*
X102530147Y-49134354D01*
X102431544Y-48986784D01*
X102363624Y-48822812D01*
X102329000Y-48648741D01*
X102329000Y-48471259D01*
X102363624Y-48297188D01*
X102431544Y-48133216D01*
X102530147Y-47985646D01*
X102655646Y-47860147D01*
X102803216Y-47761544D01*
X102967188Y-47693624D01*
X103116488Y-47663927D01*
X103141258Y-47659000D01*
X103318742Y-47659000D01*
X103343512Y-47663927D01*
G37*
G36*
X113343512Y-47663927D02*
G01*
X113492812Y-47693624D01*
X113656784Y-47761544D01*
X113804354Y-47860147D01*
X113929853Y-47985646D01*
X114028456Y-48133216D01*
X114096376Y-48297188D01*
X114131000Y-48471259D01*
X114131000Y-48648741D01*
X114096376Y-48822812D01*
X114028456Y-48986784D01*
X113929853Y-49134354D01*
X113804354Y-49259853D01*
X113656784Y-49358456D01*
X113492812Y-49426376D01*
X113343512Y-49456073D01*
X113318742Y-49461000D01*
X113141258Y-49461000D01*
X113116488Y-49456073D01*
X112967188Y-49426376D01*
X112803216Y-49358456D01*
X112655646Y-49259853D01*
X112530147Y-49134354D01*
X112431544Y-48986784D01*
X112363624Y-48822812D01*
X112329000Y-48648741D01*
X112329000Y-48471259D01*
X112363624Y-48297188D01*
X112431544Y-48133216D01*
X112530147Y-47985646D01*
X112655646Y-47860147D01*
X112803216Y-47761544D01*
X112967188Y-47693624D01*
X113116488Y-47663927D01*
X113141258Y-47659000D01*
X113318742Y-47659000D01*
X113343512Y-47663927D01*
G37*
G36*
X45083512Y-47663927D02*
G01*
X45232812Y-47693624D01*
X45396784Y-47761544D01*
X45544354Y-47860147D01*
X45669853Y-47985646D01*
X45768456Y-48133216D01*
X45836376Y-48297188D01*
X45871000Y-48471259D01*
X45871000Y-48648741D01*
X45836376Y-48822812D01*
X45768456Y-48986784D01*
X45669853Y-49134354D01*
X45544354Y-49259853D01*
X45396784Y-49358456D01*
X45232812Y-49426376D01*
X45083512Y-49456073D01*
X45058742Y-49461000D01*
X44881258Y-49461000D01*
X44856488Y-49456073D01*
X44707188Y-49426376D01*
X44543216Y-49358456D01*
X44395646Y-49259853D01*
X44270147Y-49134354D01*
X44171544Y-48986784D01*
X44103624Y-48822812D01*
X44069000Y-48648741D01*
X44069000Y-48471259D01*
X44103624Y-48297188D01*
X44171544Y-48133216D01*
X44270147Y-47985646D01*
X44395646Y-47860147D01*
X44543216Y-47761544D01*
X44707188Y-47693624D01*
X44856488Y-47663927D01*
X44881258Y-47659000D01*
X45058742Y-47659000D01*
X45083512Y-47663927D01*
G37*
G36*
X115883512Y-47663927D02*
G01*
X116032812Y-47693624D01*
X116196784Y-47761544D01*
X116344354Y-47860147D01*
X116469853Y-47985646D01*
X116568456Y-48133216D01*
X116636376Y-48297188D01*
X116671000Y-48471259D01*
X116671000Y-48648741D01*
X116636376Y-48822812D01*
X116568456Y-48986784D01*
X116469853Y-49134354D01*
X116344354Y-49259853D01*
X116196784Y-49358456D01*
X116032812Y-49426376D01*
X115883512Y-49456073D01*
X115858742Y-49461000D01*
X115681258Y-49461000D01*
X115656488Y-49456073D01*
X115507188Y-49426376D01*
X115343216Y-49358456D01*
X115195646Y-49259853D01*
X115070147Y-49134354D01*
X114971544Y-48986784D01*
X114903624Y-48822812D01*
X114869000Y-48648741D01*
X114869000Y-48471259D01*
X114903624Y-48297188D01*
X114971544Y-48133216D01*
X115070147Y-47985646D01*
X115195646Y-47860147D01*
X115343216Y-47761544D01*
X115507188Y-47693624D01*
X115656488Y-47663927D01*
X115681258Y-47659000D01*
X115858742Y-47659000D01*
X115883512Y-47663927D01*
G37*
G36*
X80531000Y-48591000D02*
G01*
X78729000Y-48591000D01*
X78729000Y-46789000D01*
X80531000Y-46789000D01*
X80531000Y-48591000D01*
G37*
G36*
X113343512Y-45123927D02*
G01*
X113492812Y-45153624D01*
X113656784Y-45221544D01*
X113804354Y-45320147D01*
X113929853Y-45445646D01*
X114028456Y-45593216D01*
X114096376Y-45757188D01*
X114131000Y-45931259D01*
X114131000Y-46108741D01*
X114096376Y-46282812D01*
X114028456Y-46446784D01*
X113929853Y-46594354D01*
X113804354Y-46719853D01*
X113656784Y-46818456D01*
X113492812Y-46886376D01*
X113343512Y-46916073D01*
X113318742Y-46921000D01*
X113141258Y-46921000D01*
X113116488Y-46916073D01*
X112967188Y-46886376D01*
X112803216Y-46818456D01*
X112655646Y-46719853D01*
X112530147Y-46594354D01*
X112431544Y-46446784D01*
X112363624Y-46282812D01*
X112329000Y-46108741D01*
X112329000Y-45931259D01*
X112363624Y-45757188D01*
X112431544Y-45593216D01*
X112530147Y-45445646D01*
X112655646Y-45320147D01*
X112803216Y-45221544D01*
X112967188Y-45153624D01*
X113116488Y-45123927D01*
X113141258Y-45119000D01*
X113318742Y-45119000D01*
X113343512Y-45123927D01*
G37*
G36*
X115883512Y-45123927D02*
G01*
X116032812Y-45153624D01*
X116196784Y-45221544D01*
X116344354Y-45320147D01*
X116469853Y-45445646D01*
X116568456Y-45593216D01*
X116636376Y-45757188D01*
X116671000Y-45931259D01*
X116671000Y-46108741D01*
X116636376Y-46282812D01*
X116568456Y-46446784D01*
X116469853Y-46594354D01*
X116344354Y-46719853D01*
X116196784Y-46818456D01*
X116032812Y-46886376D01*
X115883512Y-46916073D01*
X115858742Y-46921000D01*
X115681258Y-46921000D01*
X115656488Y-46916073D01*
X115507188Y-46886376D01*
X115343216Y-46818456D01*
X115195646Y-46719853D01*
X115070147Y-46594354D01*
X114971544Y-46446784D01*
X114903624Y-46282812D01*
X114869000Y-46108741D01*
X114869000Y-45931259D01*
X114903624Y-45757188D01*
X114971544Y-45593216D01*
X115070147Y-45445646D01*
X115195646Y-45320147D01*
X115343216Y-45221544D01*
X115507188Y-45153624D01*
X115656488Y-45123927D01*
X115681258Y-45119000D01*
X115858742Y-45119000D01*
X115883512Y-45123927D01*
G37*
G36*
X45083512Y-45123927D02*
G01*
X45232812Y-45153624D01*
X45396784Y-45221544D01*
X45544354Y-45320147D01*
X45669853Y-45445646D01*
X45768456Y-45593216D01*
X45836376Y-45757188D01*
X45871000Y-45931259D01*
X45871000Y-46108741D01*
X45836376Y-46282812D01*
X45768456Y-46446784D01*
X45669853Y-46594354D01*
X45544354Y-46719853D01*
X45396784Y-46818456D01*
X45232812Y-46886376D01*
X45083512Y-46916073D01*
X45058742Y-46921000D01*
X44881258Y-46921000D01*
X44856488Y-46916073D01*
X44707188Y-46886376D01*
X44543216Y-46818456D01*
X44395646Y-46719853D01*
X44270147Y-46594354D01*
X44171544Y-46446784D01*
X44103624Y-46282812D01*
X44069000Y-46108741D01*
X44069000Y-45931259D01*
X44103624Y-45757188D01*
X44171544Y-45593216D01*
X44270147Y-45445646D01*
X44395646Y-45320147D01*
X44543216Y-45221544D01*
X44707188Y-45153624D01*
X44856488Y-45123927D01*
X44881258Y-45119000D01*
X45058742Y-45119000D01*
X45083512Y-45123927D01*
G37*
G36*
X47623512Y-45123927D02*
G01*
X47772812Y-45153624D01*
X47936784Y-45221544D01*
X48084354Y-45320147D01*
X48209853Y-45445646D01*
X48308456Y-45593216D01*
X48376376Y-45757188D01*
X48411000Y-45931259D01*
X48411000Y-46108741D01*
X48376376Y-46282812D01*
X48308456Y-46446784D01*
X48209853Y-46594354D01*
X48084354Y-46719853D01*
X47936784Y-46818456D01*
X47772812Y-46886376D01*
X47623512Y-46916073D01*
X47598742Y-46921000D01*
X47421258Y-46921000D01*
X47396488Y-46916073D01*
X47247188Y-46886376D01*
X47083216Y-46818456D01*
X46935646Y-46719853D01*
X46810147Y-46594354D01*
X46711544Y-46446784D01*
X46643624Y-46282812D01*
X46609000Y-46108741D01*
X46609000Y-45931259D01*
X46643624Y-45757188D01*
X46711544Y-45593216D01*
X46810147Y-45445646D01*
X46935646Y-45320147D01*
X47083216Y-45221544D01*
X47247188Y-45153624D01*
X47396488Y-45123927D01*
X47421258Y-45119000D01*
X47598742Y-45119000D01*
X47623512Y-45123927D01*
G37*
G36*
X103343512Y-45123927D02*
G01*
X103492812Y-45153624D01*
X103656784Y-45221544D01*
X103804354Y-45320147D01*
X103929853Y-45445646D01*
X104028456Y-45593216D01*
X104096376Y-45757188D01*
X104131000Y-45931259D01*
X104131000Y-46108741D01*
X104096376Y-46282812D01*
X104028456Y-46446784D01*
X103929853Y-46594354D01*
X103804354Y-46719853D01*
X103656784Y-46818456D01*
X103492812Y-46886376D01*
X103343512Y-46916073D01*
X103318742Y-46921000D01*
X103141258Y-46921000D01*
X103116488Y-46916073D01*
X102967188Y-46886376D01*
X102803216Y-46818456D01*
X102655646Y-46719853D01*
X102530147Y-46594354D01*
X102431544Y-46446784D01*
X102363624Y-46282812D01*
X102329000Y-46108741D01*
X102329000Y-45931259D01*
X102363624Y-45757188D01*
X102431544Y-45593216D01*
X102530147Y-45445646D01*
X102655646Y-45320147D01*
X102803216Y-45221544D01*
X102967188Y-45153624D01*
X103116488Y-45123927D01*
X103141258Y-45119000D01*
X103318742Y-45119000D01*
X103343512Y-45123927D01*
G37*
G36*
X57623512Y-45123927D02*
G01*
X57772812Y-45153624D01*
X57936784Y-45221544D01*
X58084354Y-45320147D01*
X58209853Y-45445646D01*
X58308456Y-45593216D01*
X58376376Y-45757188D01*
X58411000Y-45931259D01*
X58411000Y-46108741D01*
X58376376Y-46282812D01*
X58308456Y-46446784D01*
X58209853Y-46594354D01*
X58084354Y-46719853D01*
X57936784Y-46818456D01*
X57772812Y-46886376D01*
X57623512Y-46916073D01*
X57598742Y-46921000D01*
X57421258Y-46921000D01*
X57396488Y-46916073D01*
X57247188Y-46886376D01*
X57083216Y-46818456D01*
X56935646Y-46719853D01*
X56810147Y-46594354D01*
X56711544Y-46446784D01*
X56643624Y-46282812D01*
X56609000Y-46108741D01*
X56609000Y-45931259D01*
X56643624Y-45757188D01*
X56711544Y-45593216D01*
X56810147Y-45445646D01*
X56935646Y-45320147D01*
X57083216Y-45221544D01*
X57247188Y-45153624D01*
X57396488Y-45123927D01*
X57421258Y-45119000D01*
X57598742Y-45119000D01*
X57623512Y-45123927D01*
G37*
G36*
X115883512Y-42583927D02*
G01*
X116032812Y-42613624D01*
X116196784Y-42681544D01*
X116344354Y-42780147D01*
X116469853Y-42905646D01*
X116568456Y-43053216D01*
X116636376Y-43217188D01*
X116671000Y-43391259D01*
X116671000Y-43568741D01*
X116636376Y-43742812D01*
X116568456Y-43906784D01*
X116469853Y-44054354D01*
X116344354Y-44179853D01*
X116196784Y-44278456D01*
X116032812Y-44346376D01*
X115883512Y-44376073D01*
X115858742Y-44381000D01*
X115681258Y-44381000D01*
X115656488Y-44376073D01*
X115507188Y-44346376D01*
X115343216Y-44278456D01*
X115195646Y-44179853D01*
X115070147Y-44054354D01*
X114971544Y-43906784D01*
X114903624Y-43742812D01*
X114869000Y-43568741D01*
X114869000Y-43391259D01*
X114903624Y-43217188D01*
X114971544Y-43053216D01*
X115070147Y-42905646D01*
X115195646Y-42780147D01*
X115343216Y-42681544D01*
X115507188Y-42613624D01*
X115656488Y-42583927D01*
X115681258Y-42579000D01*
X115858742Y-42579000D01*
X115883512Y-42583927D01*
G37*
G36*
X47623512Y-42583927D02*
G01*
X47772812Y-42613624D01*
X47936784Y-42681544D01*
X48084354Y-42780147D01*
X48209853Y-42905646D01*
X48308456Y-43053216D01*
X48376376Y-43217188D01*
X48411000Y-43391259D01*
X48411000Y-43568741D01*
X48376376Y-43742812D01*
X48308456Y-43906784D01*
X48209853Y-44054354D01*
X48084354Y-44179853D01*
X47936784Y-44278456D01*
X47772812Y-44346376D01*
X47623512Y-44376073D01*
X47598742Y-44381000D01*
X47421258Y-44381000D01*
X47396488Y-44376073D01*
X47247188Y-44346376D01*
X47083216Y-44278456D01*
X46935646Y-44179853D01*
X46810147Y-44054354D01*
X46711544Y-43906784D01*
X46643624Y-43742812D01*
X46609000Y-43568741D01*
X46609000Y-43391259D01*
X46643624Y-43217188D01*
X46711544Y-43053216D01*
X46810147Y-42905646D01*
X46935646Y-42780147D01*
X47083216Y-42681544D01*
X47247188Y-42613624D01*
X47396488Y-42583927D01*
X47421258Y-42579000D01*
X47598742Y-42579000D01*
X47623512Y-42583927D01*
G37*
G36*
X45871000Y-44381000D02*
G01*
X44069000Y-44381000D01*
X44069000Y-42579000D01*
X45871000Y-42579000D01*
X45871000Y-44381000D01*
G37*
G36*
X114131000Y-44381000D02*
G01*
X112329000Y-44381000D01*
X112329000Y-42579000D01*
X114131000Y-42579000D01*
X114131000Y-44381000D01*
G37*
G36*
X104131000Y-44381000D02*
G01*
X102329000Y-44381000D01*
X102329000Y-42579000D01*
X104131000Y-42579000D01*
X104131000Y-44381000D01*
G37*
G36*
X58411000Y-44381000D02*
G01*
X56609000Y-44381000D01*
X56609000Y-42579000D01*
X58411000Y-42579000D01*
X58411000Y-44381000D01*
G37*
G36*
X77923512Y-41603927D02*
G01*
X78072812Y-41633624D01*
X78236784Y-41701544D01*
X78384354Y-41800147D01*
X78509853Y-41925646D01*
X78608456Y-42073216D01*
X78676376Y-42237188D01*
X78711000Y-42411259D01*
X78711000Y-42588741D01*
X78676376Y-42762812D01*
X78608456Y-42926784D01*
X78509853Y-43074354D01*
X78384354Y-43199853D01*
X78236784Y-43298456D01*
X78072812Y-43366376D01*
X77923512Y-43396073D01*
X77898742Y-43401000D01*
X77721258Y-43401000D01*
X77696488Y-43396073D01*
X77547188Y-43366376D01*
X77383216Y-43298456D01*
X77235646Y-43199853D01*
X77110147Y-43074354D01*
X77011544Y-42926784D01*
X76943624Y-42762812D01*
X76909000Y-42588741D01*
X76909000Y-42411259D01*
X76943624Y-42237188D01*
X77011544Y-42073216D01*
X77110147Y-41925646D01*
X77235646Y-41800147D01*
X77383216Y-41701544D01*
X77547188Y-41633624D01*
X77696488Y-41603927D01*
X77721258Y-41599000D01*
X77898742Y-41599000D01*
X77923512Y-41603927D01*
G37*
G36*
X75383512Y-41603927D02*
G01*
X75532812Y-41633624D01*
X75696784Y-41701544D01*
X75844354Y-41800147D01*
X75969853Y-41925646D01*
X76068456Y-42073216D01*
X76136376Y-42237188D01*
X76171000Y-42411259D01*
X76171000Y-42588741D01*
X76136376Y-42762812D01*
X76068456Y-42926784D01*
X75969853Y-43074354D01*
X75844354Y-43199853D01*
X75696784Y-43298456D01*
X75532812Y-43366376D01*
X75383512Y-43396073D01*
X75358742Y-43401000D01*
X75181258Y-43401000D01*
X75156488Y-43396073D01*
X75007188Y-43366376D01*
X74843216Y-43298456D01*
X74695646Y-43199853D01*
X74570147Y-43074354D01*
X74471544Y-42926784D01*
X74403624Y-42762812D01*
X74369000Y-42588741D01*
X74369000Y-42411259D01*
X74403624Y-42237188D01*
X74471544Y-42073216D01*
X74570147Y-41925646D01*
X74695646Y-41800147D01*
X74843216Y-41701544D01*
X75007188Y-41633624D01*
X75156488Y-41603927D01*
X75181258Y-41599000D01*
X75358742Y-41599000D01*
X75383512Y-41603927D01*
G37*
G36*
X72843512Y-41603927D02*
G01*
X72992812Y-41633624D01*
X73156784Y-41701544D01*
X73304354Y-41800147D01*
X73429853Y-41925646D01*
X73528456Y-42073216D01*
X73596376Y-42237188D01*
X73631000Y-42411259D01*
X73631000Y-42588741D01*
X73596376Y-42762812D01*
X73528456Y-42926784D01*
X73429853Y-43074354D01*
X73304354Y-43199853D01*
X73156784Y-43298456D01*
X72992812Y-43366376D01*
X72843512Y-43396073D01*
X72818742Y-43401000D01*
X72641258Y-43401000D01*
X72616488Y-43396073D01*
X72467188Y-43366376D01*
X72303216Y-43298456D01*
X72155646Y-43199853D01*
X72030147Y-43074354D01*
X71931544Y-42926784D01*
X71863624Y-42762812D01*
X71829000Y-42588741D01*
X71829000Y-42411259D01*
X71863624Y-42237188D01*
X71931544Y-42073216D01*
X72030147Y-41925646D01*
X72155646Y-41800147D01*
X72303216Y-41701544D01*
X72467188Y-41633624D01*
X72616488Y-41603927D01*
X72641258Y-41599000D01*
X72818742Y-41599000D01*
X72843512Y-41603927D01*
G37*
G36*
X71091000Y-43401000D02*
G01*
X69289000Y-43401000D01*
X69289000Y-41599000D01*
X71091000Y-41599000D01*
X71091000Y-43401000D01*
G37*
M02*
